<mxfile host="Electron" modified="2025-07-12T13:05:09.218Z" agent="Mozilla/5.0 (Windows NT 10.0; Win64; x64) AppleWebKit/537.36 (KHTML, like Gecko) draw.io/22.1.2 Chrome/114.0.5735.289 Electron/25.9.4 Safari/537.36" etag="W2tX3-cRagWRhIddqosN" version="22.1.2" type="device">
  <diagram name="Least Recently Used" id="POMsT31KwhoCUOCz0t1W">
    <mxGraphModel dx="7372" dy="6580" grid="1" gridSize="10" guides="1" tooltips="1" connect="1" arrows="1" fold="1" page="1" pageScale="1" pageWidth="850" pageHeight="1100" math="0" shadow="0">
      <root>
        <mxCell id="5hRMl-ogob8N2ftGV3x6-0" />
        <mxCell id="5hRMl-ogob8N2ftGV3x6-1" parent="5hRMl-ogob8N2ftGV3x6-0" />
        <mxCell id="5hRMl-ogob8N2ftGV3x6-14" value="&lt;font size=&quot;1&quot; face=&quot;Verdana&quot; style=&quot;&quot;&gt;&lt;b style=&quot;font-size: 100px;&quot;&gt;Content Deivery Network (CDN)&lt;/b&gt;&lt;/font&gt;" style="rounded=0;whiteSpace=wrap;html=1;fillColor=#d5e8d4;strokeColor=#82b366;" parent="5hRMl-ogob8N2ftGV3x6-1" vertex="1">
          <mxGeometry x="-1070" y="430" width="2150" height="210" as="geometry" />
        </mxCell>
        <mxCell id="vzekT2HtuLbiQsP1vmq4-4" style="edgeStyle=orthogonalEdgeStyle;rounded=0;orthogonalLoop=1;jettySize=auto;html=1;strokeWidth=14;" edge="1" parent="5hRMl-ogob8N2ftGV3x6-1" source="vzekT2HtuLbiQsP1vmq4-0">
          <mxGeometry relative="1" as="geometry">
            <mxPoint x="-1025" y="-1450" as="targetPoint" />
          </mxGeometry>
        </mxCell>
        <mxCell id="vzekT2HtuLbiQsP1vmq4-0" value="" style="shape=image;verticalLabelPosition=bottom;labelBackgroundColor=default;verticalAlign=top;aspect=fixed;imageAspect=0;image=data:image/png,iVBORw0KGgoAAAANSUhEUgAAAgAAAAIACAYAAAD0eNT6AAAABHNCSVQICAgIfAhkiAAAAAlwSFlzAAAOxAAADsQBlSsOGwAAABl0RVh0U29mdHdhcmUAd3d3Lmlua3NjYXBlLm9yZ5vuPBoAACAASURBVHic7N13mFxneffx7/S2vWmrtOq9ufeOC8YOGIONqQEMJKEGwhtCEiAhJIQECD1ATAsBTDe2sY0LrnKRZFmWVVdtJa20ve/0mfePsYyLyu4pc6b8Ptc1l8De5zm3tbvn3Ocp9+NCRI6lEWgHOoDZwCygBqh9/s+j/7sCqHxROz8QedH/HwGywDiQAqaASWAAGHzZpxc4AOwH+u35zxIRyXE5HYCIg5qAZcCSF/05h9wDP+hgXJBLEva96LMdeA7YTC5ZEBExRQmAlIsFwBnPf04l98CvczQi444AW57/bATWAV2ORiQiRUcJgJSiIHAucD5/eujXOxqR/fqBx5//PAY8SW66QUTkmJQASClwA2uBy57/nAuEHI3IeSngGeBe4HZySUHG0YhEREQsUAXcCNwKDJFbaKfP8T99wE+At5JbwCgiIlI06oC3Ab8DYjj/UC3WTwp4BPgQ0Dyj74CIiEieVABvB+4j9+By+uFZap8UuWmCd5MbVREREXGMGzgP+G9gDOcfkuXyiZKbUrkMrQ8SEZE8agE+DezF+YdhuX/2AJ8C2k70DRMRETHjFHJv+1Gcf/Dp89JPityai3OO+90TERGZATdwDfAHnH/I6TO9z3pyizC9x/h+ioiInJAfeB+58rZOP9D0MfbZ9/z30I+IiMhJ+Mm9Pe7G+QeYPtZ8usltJXT63AQRESlAAeD95E65c/qBpY99icBfPv+9FpEioa0+YhcX8CbgX8mdrld0/D4foVCIYDBAMBDA7/fj8/nw+334fX7cbjc+nxcXLrze40+LpzNpMpkMyWSSdCZDKpUikUiSSCSIJxK5P+MJpqJR4vF4Hv8LLbcX+H/Az50OREROTgmA2OFs4EvAmU4HcjJej4dQKEQkHKaiooKa6koikQjhUAiPx5P3eDKZDFPRKNFolMmpKOMTE0xMTDI+MU4ikcx7PAY9Avw18JTTgYjI8SkBECvNAf4NuIEC/Nnyer1URCJUVkSoiFRQUZF70Pv9Pvx+Py5XwYX8EolEgtHxcUZHxxgZGWVkdJRY4Y4YZIH/Bf4OOOhwLCJyDIV9x5NiEQA+QW74t2AWhPl8PqqrKqmuqqK6qopIOPzCv/N4PAQCuSH9YhaLxRkaHmZwaIjBoWEmJiedDunlJoB/AL4KpB2ORUReRAmAmHUe8G1gqdOBuFwuqiorqautobam5iUP/KNyD/4APl9pbmWPx+MMDA3R1z9Af/8AiWTBTBs8BdxM7ohiESkASgDEqGpyw/3vxcGfI4/bTV1dLfW1ddTWVB93MZ7X6yEQCOL15n9e3ynZbJbhkRF6+/rp7esvhNGBFPCfwGfIVX0UEQcpARAjXgd8DWh14uJut5vammoa6xuoq6vF43Yf92s9bg+BUADfCVbpl4uxsXEOHTnC4cNHmIo6+vztAt4KPO5kECLlTgmAzEQluQf/25y4eEUkQvOsJhrr60+47Q5ySUIg4MfvV7G6YxkeGeXgoR4OHT5MKpVyIoQU8E/A59DaABFHKAGQ6ToT+DEwP58X9Xg8NDU00DyriYpI5KRf73K5CAT8BAKqSTMd6XSaniNH6D5wiOGRESdCeBR4C7nywiKSR0oA5GQ85Fb3fxrI25L5QCBAW0szzU1N096P7/N6CYaCuE8wJSDHNz4+wd79+znYc5hMJpPPS4+SqyT4f/m8qEi5UwIgJ9JObi/3hfm6YEVFhPaWVhrq66a9L9/tdhMKhcpqgZ+d4okE+7sPsK/7AIlEIp+X/jrwEaBgti6IlDIlAHI8FwK3Ak35uFhlRQWz29upq62ZUbtgMFAURXyKUSaTofvAQbr27M1nwaGHgTcAvfm6oEi50l1TjuU95Bb72T7kHwmHmd3eRkN9/YzaeZ4v4evxaLjfbplMhoOHeti5ezexWF4SgUPA9WiXgIitlADIiwWBbwFvt/tCgUCAuXNm0zjDB//RtoGA3vrzLZ3OsP9AN7t27yVpf4GhGPAXwPftvpBIudKkqRzVBvweuNrOi3jcbjra2li6aOG0VvW/tK2HSCSM3+/Tw98BbreL2poa5nS0g8vF6OgY2WzWrst5gdcCIeBeuy4iUs50FxWANcCdQIudF2lqbGTu7A5De/P9Pj+hUAD04C8Yk5NTbN2xg96+frsv9R1yowGqFyBiId1N5VLgV0CVXReIhMMsmDeXqsrKGbd1uVyEgkF8/uI+tKeUHent47lt24nGYnZe5nfAjcCUnRcRKSdKAMrbjcAPAFvK5bndbuZ0tNPW0mJoyN7jcRMOh7Wvvwik0ml27Opi3/5uO6cF1gHXAIN2XUCknCgBKF8fJncwiy1P18qKChYtmE84FDLU3ufzEQoFNddfZEbHxti0eQvjExN2XeIZcqNWSgJETNLdtTx9Hvi4HR27XC7mdLTT3tpq+OEdDAZUyreIZTIZtu3cZedowCbgMpQEiJiiBKD8fBL4rB0dR8JhFi+YT2SGq/uPcrlchMNhVfQrEQODQzzz7Ba71gYoCRAxSQlAeVkFbCC3xcpS7a2tzOloNzxf73a7iUQ0319qkskkmzZvobfflp0CSgJETFACUF5+SO4cdsv4vF4WLVgw4xK+L+bxeIhEQrhceviXqq49e9mxq8uOKYH1wMWAbYsOREqVEoDy4QIGgDqrOqysrGDpwoWm5uu9Xi/hcEiL/crA4NAQG595lrj15wrcBVyLDhESmRHddctHI9BnVWdtLc3MnTPH1IPb7/MTCgetCkmKQDQW46kNTzM2Pm51198H3gnYtgdRpNRotVX5qAD+xmwnLpeLRfPn09HWZu7h7/cTDAX05l9mfF4vbW2tjI1PMDllaU2fNeTuZw9Y2alIKVMCUD6mgPeRSwQM8fl8LF+yhPq6WlOB+AN+7fEvY263m9aWZlKpFCOjo1Z2fQG5BYFPWtmpSKlSAlBezgCWG2kYCoVYtXwZFZGwqQACgQChoIb9y53L5aKpsQGPx8PAoKWL+F8NnE+uYFCvlR2LlBolAOVlAnjzTBtVVlawctkyAgYO8XmxQMBPUA9/eZG62hoCgQD9AwNWdjsPuBloBx5H5weIHJMSgPLSBawGlk63QX1dLcuXLMHrMfej4g/49eYvx1RTXUUkErb6VEE3cCrwDmAvsNXKzkVKgRKAMrNmxYoDU9HoO+OJxEkn4Ntamlk4f77p4jw+n49QUHP+cnxVlZVUVVZyuNfyUfsI8EZgPnAP2ioo8gIlAGXkkksumRPwep5qqK/3ZbMZJianjlmYxefzsWThAsOn+L2kL6+PcET7/OXkKioiVEQiHOmzbLfqi60GXgv8EbClLKFIsdFduUxcddVVVdHx8f3pdOqFkn3JZJLB4WEmJ6dIZzL4fT4qImHqamstKcnr8XqoMHgugJSvAwcP8cyW5+zqfoLcMdh32HUBkWKhEYDy4O5oadmWTqeaX/wPPZ7cA7qutob6ulpqqqsJh8OWvK273W4qIhG9+cuMVVdV4ff76Ou3dGHgUX7gBmAIbReUMqcEoAxccsG5T6RSKUPb/4xwuV1URCI62EcMq6muJpPJMDQ8Ykf3bnLbBf3A/XZcQKQYKAEocZdeeN5Pksn0Ffm6nssFkUgEj8ldAyIN9fVMTk4xPmHbOT/nA5XkFgeKlB3dpUvYpRdf+MFEPGm6/O9MhMMhvF7LTxuWMtXU2Mjg0CCxmOUHCB11DlCFkgApQ0oAStSrLrrotEQ88QvyuNAzEPCbOhlQ5OXcbhezmpro7e0jmbRtB9/ZQAJ4xK4LiBQiJQAl6KKLLqpJp+Kbs9ls3p7GR4/1FbGa1+OhpXkW/QODJBIJuy5zCbAH2GzXBUQKjRKAEtTZ0b45k840n/wrreF2uYhUaMW/2Mfr9dLR1orX62V0bIxMJmP1JVzA1cA6cpUDRUqe7tgl5tILzv9+Ipl8e76u53K5iETCWvQneZNKpdi7v5uuPXtJp9NWdz8AnAIcsLpjkUKjBKCEXHHRRVdGE7HfH6O4n22CwSCBgLlDgkSMiMXibN+5i4M9PVZ3/SS5HQK2zTeIFAK9tpWIq666qioanXoqm8368nVNr9dLMBjQ0L84wuv10jyricrKCgYGB62cFmgjtz3wbqs6FClESgBKxOzWWevS6UxHvq7ncruIRCK49fAXh1VWVNDa0szQ8AjxuGXbBc8EngJ2WdWhSKFRqbYScMkFF/x9Mplem89rhkIhPfylYIRDIc4583RmNTVa1aUL+A5Qc7IvFClWGgEoDm3AzcAHgfcBrwHmAAcuu+yymlQi/utsNpu3ZM7v82veXwqO2+2mtbmZeDzO6Ni4FV1WAtXo4CApUXqFK2xB4LPAh4BjlddLtrY0T8ydPbs2X3X3XW43ldryJwUsm82y+bmtHDh4yIruMsDFwENWdCZSSDQCULgi5N48buL4UzWe8YmJ0OjYGI0NDXkZko+EgtryJwXN5XIxq7GRqWiU8XHT5wi4gDOA/wbyuL9GxH66kxeubwHXTecL44kEsXiMhvp6WwPy+XwEgir1K4XvaBIwODRMNBYz210T0A08bT4ykcKhRYCF6SLgnTNp0D8wyOjYmD3RkDvlLxgK2ta/iNXcbjenrV1DOBy2orvPAKp1LSVFIwCFxwX8AmidacMsWRrq6qyPiNzD36dT/qTIeDwe6utqOXCoh6y5CllVwAQ6MEhKiEYACs9NwKlGGo5Zs/L5FTxuDwG/Vv1LcaqqrGTJooVWdPW3QK0VHYkUAo0AFJYg8GsM7j1OZzLMbm+3NiIgHA6Rr10GInaoralheGSEqamomW6CwBDwqDVRiThLd/XCcjO5/f2G2PGQ9vu8eDX0LyVg1YrlVuxg+QCQt3LbInbSCEDhCAK3kptrNKSyooLmpibrIgLCkbD2/EtJ8Hm9uFwuBgaHzHRTBWwHnrUmKhHnaASgcLyXXMU/w+rrrJ2eDAT8GvqXkjKvcw4R87sCPmxFLCJO0929MASB/2emA6/HY+nbvwvwB7TnX0qL2+1m2ZLFZrs5HTjHgnBEHKUEoDC8BWgx00F7W6ulc/X+QECH/UhJmtXUSHW14Zm2o95iRSwiTlICUBg+YKax3++nrcVU/vASLpdLh/1ISVswb67ZLm4A9EsiRU0JgPOuBFaZ6WBOe7ulc/WBQEAL/6SktcyaRWVFhZku6oBXWRSOiCOUADjP1IKicChk5RnouFwu/Cr6I2Vg/txOs128yXwUIs5RAuCsFcDlZjronN1h6du63+9DL/9SDlpbmvH5TK2beS1gahhBxElKAJz1YXIL7g2prKig3uLa/5r7l3LhdrtpbW4200UEuNiicETyTgmAc5qAN5vpoKNtxucFnVDA78fl0o+ElI/2NlOlNwAutSIOESfobu+cm8nt/zckHApZ/vbv09u/lJnammoqKiJmurjMqlhE8k0JgDNcwNvNdNBu8du/1+vFo6p/UoZMbqFdhskaHiJO0R3fGecAhs8nDfj9NDU0WBgO+AM630TKU6O53yUXcIlFoYjklRIAZ5h6+29rbbV05b/b5cLnVQIg5am6qpKAua2vWgcgRUkJQP6FgDcabez1eGieZe2Jf6r5L+XM5XLR0FBvpotzrYpFJJ+UAOTf64Bqo42bGhssnat3uVxm90KLFD2TU2oLUD0AKUJKAPLP1PB/86xZVsUBgMfj0ZG/UvZMjgC4yRX1EikquvPnVzsm5gurKiutOMv8Jfx+zf2LBPx+QqGQmS5WWxWLSL4oAciv6wGP0cYtFs/943Lh9SkBEIHcYkATTB3oJeIEJQD5dY3Rhl6vl4Z6U8OUr+DzeY3XIRYpMdVVVWaaawRAio5Wf+VPDXC+0cYN9XWWz9Vr65+8XDyRYHR0lKlolGQyhdvlwuP1EA6FqamuKumTIqvMjQCsJFcTIGtNNCL2UwKQP1cBhp+4jRa//btAq/8FgGQySffBQ/QcPszo2PgJv7aqqpK2lhZmt7fhK7HpI5MjAFVAPTBgTTQi9tMTIH+uNdrQ5/OZvTm9gleL/8peJpNh9959dO3ZSzqdnlabsbFxxsbG2bV7D/M657Bg3tyS2UUSDATw+3wkkkmjXbShBECKiBKA/PCTGwEwpKGuztLKfwA+r7715WxicpINTz/D+MSEofapVIqdXbvpOXyEU9euprKiNLbBh0JBswnAMxaGI2Kr0kjdC98FmCj+Y/XiP8gtKpTydLi3l0cee9zww//FJiYneXTdEwwMDlkQmfOCQcMHdEIuARApGkoA8sPw6v/c8L+pxUmv4PV6LB9RkMKXzWbZvnMXG55+htQ0h/ynI5VO89TGjQwNj1jWp1NCSgCkjCgByA/Dp4XVVldb/rDW23/5SSaTPLlhI1179trSfzqdYcPTm4jF4rb0ny8aAZByogTAfnXkzgw3pLamxsJQcjxKAMrK2Pg4D697nP6BQVuvE08k2Pzcc7Zew24aAZByogTAfhdi4u+5psbw0oFjcrlceD2GixFKkek5fIRHH3+SqaloXq7X1z/A4d7evFzLDsGgqZMxTZ0oJJJvehW03wVGG1ZEIvgt3mvt9ehbXg7S6TTbduxkX/eBvF9767YdNDY0FGWiabK2ganDBETyTSMA9jOcANgx/O/1Fd9NWWZmZGSUhx5b58jDHyAai7Gra7cj1zbL4zb1+6EEQIqKXgftVY2JGuFWr/4H8GgEoGRls1n27N3H9l1dZLPOVqTds28/TY0N1NfVORrHTLk9pt6JTC0gEMk3jQDY63xMnP5ndXEVlws85m5wUqAmJid55PEn2LZzl+MPf8glI09v3mKmqI4jPOamLTQCIEVFTwN7nWW0YTgUsny7nsmbmxSgbDbL3n37efixdYyOjjkdzkvEYjGeeXZLQSQk0+UxV9ZYCYAUFSUA9jI8/F9Vaf3wv9ut4f9SMjI6yqOPP8lz23eQTmecDueYevv62bJ1m9NhTJvJcw2CoBO2pXjoiWCvVUYb2lFb3etVvlcK4vE423bs4mBPj63XWdRey8hEnL6RKVP97D9wkHA4zPy5nZbEZSeXy4XH4zaaULnIJQH52XMpYpKeCPapATqMNq6oiFgYSo7JFc7isKPD/Q88/KjtD//LT53DPf92PZ9713mW9Ldtx07bqhBazeUydVvUMZtSNJQA2GcVBocDXS4X4ZD104kmVziLg/r6B3jo0XU8t30HqVTK1mt98HWn8OO/u5rKsJ/XnbuQS9fOtqTf7Tt38dy27UW1JkCklGkKwD6Gh/+DgYDlZ6zr7b84DQwOsmPXboZH7D9oJxTw8qW/uJg3XLDoJf/8399zIed9+CdE4+YTj737u4nG4qxescxs0R0RMUkJgH3WGG0YiYStjAPQ23+xGRoeYWdXV96O2Z3XUsP3P34ly+e88ujpzllVfOz60/jnHz9uybWO9PYyPDLC6hXLaGpstKRPEZk5JQD2MXwAUDhkQwJg8YiC2CP34N/NwKC9B/e82GvOmsfX3n8plWH/cb/mr167lrvW7+OpHUcsuWY8HufJDU8zZ3YHixbMJ+A//rVFxB5KAOwzx2jDcMj6gmJejQAUrEwmw+Ejvezd383I6Gjerhv0e/nM287hXVet5GQnTvs8bm752BVc/LFbGRi1bpH7/u4DHDzUQ+fsDubPnYvfr2kBkXxRAmCPANBsuHHA1Ilkx+TSCEDBicfj7D9wkP0HDhKPx/N67TXzm/jWhy9jYVvttNu01lfwPx+9gtd/5jZSFtYdSKfT7N67j/3dB2hva6OjvZXqqirL+heRY1MCYI92TOywCAasHwFwm9vaJBYaGh6h+8BBeo4cIZPJbwEfr8fNh687hY+98XR8BkaFzlvRxt+/+Sw+/cPHLI8tlU6zr7ubfd3dhMNhZjU2UF9fR011NUEbkmKRcqcEwB6G90253W7Lh0FdLhcutwqUOWlicpJDPYc51HOYqagzdWLmtdTwzQ9dymmLDA9OAfD+P1vL1v2D3PrgDosie6WpqSn27u9m7/5uAAJ+P+FwmEgkTFVlBdVVVdTV1uI62dyFiByXEgB7GE4A7FgMpZukM+KJBD2Hj3Cwp8fROv0uF7zj8hX809vPIRw0n1y6XPDV919CPJnmt491WRDhycUTCeKJxEu2Qwb8ftrbWrV2QMQgJQD2MJ4A2DDU6dbbf96Mjo3T199PX/8AI6Ojjhe9md9aw7/ffAEXrTZclPKYvB43//2RV5FMZ7jziT2W9j1d8USC3Xv3ceDQIZYtWUx7a6sjcYgUKyUA9mgx2tCO4ijaAmifVCrFwOAQfQMD9PX3E4vldzHf8YSDPj76+lP5yz9bg99rTxEon8fN/3z0ct7++d9zz4b9tlxjOhKJJJs2b2FiYpIlixY6FodIsVECYA/DR/n5fXZ8S5QAWCUWizE0PMLQyAjDw8OMjU84/pb/cteePZ/P/vl5tDVYf6DUy/m9Hr7/8av4yDcf4Gd/tG9NwHQcPWtASYDI9CgBsIfhO68dIwBaAmBMNBplfGKS8fFxxsYnGBoZIerQAr7pWNBWw+ffbf1w/8kEfB6+8cHLWNHZwKd/+BjpjHMJUdeevdTW1jBLFQZFTkoJgD0KKgFw25ABTEWjjIyOMjo6xuTUFLF4nFgsRjyeeMkbsdvtJhAIEAwECAT8hIJBwqEQoVCIcDhEOBTC63XuxzCRSDAVjRGNRYlGY0xMTjI+PsH4xITth+5YpaYiwIdedwrvu2a1bcP90/GX165h6ex63v3FuxmZcG4qZMtz22i8oF5TXyInoQTAHsYTABsehlbsAkil0/T3D9Db10/fwACJRGJa7TKZDNFo9IRvzh6P54UEwe/3EwwE8Pv9eL0evB4vPp8Pj8eD1+vF86K96z7vS5OlZCoFZEmnM2QyaTKZLMlkkkQymfszkSSZTJBIJonF4kxFo6TTaUN/H4WgIuTjfa9ZzV9eu4bqSGHsk794TQf3fv4NvPe//sCGnb2OxBCNxeg+eIjO2fkdCREpNkoA7GE4AfB4rH+DM1MDYHBomH3d3fT29dtWtCadTjM5NcXk1JQt/ZeacNDHu69ayQdeu5a6SuuLRpk1t6WaO//lOr76m6f5wq1PEU/mP8k6oARA5KSUANgjYrShHQkAzCwByGazHDzUw559+xmfmLAhHjEi4PPw51es4MPXnUJjjfUHRlnJ63HzkdefymvPXcAnb3mEu9fvy+v1R8fGiMfjtmyrFSkVSgDsYXgi35YRgBk8/4/09rJ9ZxcTk5OWxyHGVEcCvOXSpfzFtWtoqTOcWzpibnM1//d3V/PolkP85y828ODmA3m79ujYOE2NSgBEjkcJgD0M/706NQIwOTnFM1u2MDQ8ctKvlfxY0FbDe65ezY0XLSZiQQU/J527oo1zV7SxYWcvX/zleu5evw+7d0/m+4AlkWKjBMAehp/i9qxcPv6dNpvNsnd/Nzt27SJt4QlvYozLBZeuncN7rl7FJWtml9wWzlMXzeLHn7iabd1D3PrgDn7z6C66+8ZtuVYimbSlX5FSoQTAHob/Xu243x9vF0AikWTjM88wMDhkw1VlJhqqQlx3/kLedeVKFrTVOB2O7ZbOruNTbz2bf3zL2WzYdYRfPdLFHY/v4eCAhclAgRVoEik0SgDsYTwByNMr39j4OOs3bnLsZDrJLeq7aHUHN1y0mFefOc/Q8bzFzuWC0xY1c9qiZj73zvM4MjTJpt39PLOnjye2HeHJHYeJxoujHoNIsVECYA/Dd3JbEoCX9dnX38+GTZuLeg98sXK7XJyzvJUbLlrMNWfNpzJs/emPxay5LsKVdRGuPL0TgM/8aB1f+fVGZ4MSKVFKAOxRsCMAR/r62Lhps217+uWVAj4P569s5/LTOrnq9E5a6+2v0V8qSmwJhEhBUQJgD8OLAO1MAI709rJh0+aCO7ymFLXWV3D5qXN41amdXLiqnVBAv2oiUlh0V7JHwU3mDo+MsPGZZ/Xwt0l9VZAzlrRw9rJWLljZzsq5DU6HVBJKbReESCFRAlBA7Hr7j0ajrN+4ScP+FppVG+aspa2cuaSZs5a2smpeox5WIlJUlAAUEDsSgEwmw/qnNxGf5uE98lLhoI/F7bWs6Gxg6ew6ls6uZ3lnA/VVhVeDvyQpqxKxjRKAAmLHrW5vdzfj4/bV81/SXssZC2dx3uoOFrTV0tFU+cIBNdksDIxO0T8a5UD/ON19Y3T3/enPQwPjDI7FbIttuqojAWY3VdLRVEVHYyVzmiqZ3VTFktl1zJlVZctxyiIiTlMCUECsnp0fGR2l5/ARi3uFWTVh3nTBIq45o5POpioAqmorcHte+qB0uaCxJkxjTZhlc+qP2VcilWZwLEbf8BS9I1MMjE4xMBpldDLOeDTJZCzJRDTB+FSS0ck42ef/lqZiKZKpl25jdLvdVIZzJXOrIwFcuIiEfFSGfNRVBqmrDFJbGaS+KvTC/29vrKRKW/EKllIvEfsoAShRmUyGnbv3WNrnrJowH7xmNdedPQ+/9+UbHbIYuV37vR5a6iJFd8iNiEixUwJQQKxcoX+w57Blh6F43C7edskSPnLtmhMcSqN3NbFevipjipQjJQAlKJFMcrCnx5K+aiIBvnzz+Zy/rNWS/kREpDAoASggVo0AdB84aEmZ3/nN1XzvQ5fRVq/heXGGBgBE7KMEwB6OVdtJplL09veb7mdZRx3f//Bl1Fdqu5uISCkquIp1JcLwe4vZUYAjvb2mC/50NFTwvQ/p4S8iUsqUANjDkRGAbDbL4SO9pvoIB7x89wOX0qBCN1IANAMgYh8lAAXGzAjA6Ni46Yp//3jjGSxoqTbVh4hVtAtAxD5KAOzhyF1rcGjQVPtzlrTwhnMXWBSNiIgUMiUA9nBkCmBgaNhwW7fLxT/ccLqF0YiYpwEAEfsoASgRE5OTJEwM/1+wopVFbTUWRiQiIoVMCYA9DL+3GJ3zHJ8wd+DPOy5daqq9iIgUFyUA9sj7FICZRwd46gAAIABJREFUBKCzqYrzlpqs9OdyrPSBlDCX9gGI2EaFgIpUKp2GbJZsNks6nTF15O/Fq9o01yolJ5FMEovH8bhz7zler1e7CkReRAlAgUumUoyNjTM2PsZUNEosFicWj5su9vNiZy9uMd9JVjdWsZ6Z5/XuvfvYvXffC//f7XYTDoUIh0NEwmHqamupq6sl4Ndx0FKelAAUoFgsTt9APwODQ0xOTdl6LZcLzlw8y4KOjB0HLJIvmUyGiclJJiYnAdi7vxuAikiE5llNtLe2UlGhcy+kfCgBKDCbn9vK2Ph43q7XVB2m4rhH/Io4Kx9D9hOTk3Tt2UvXnr1UV1dZOromUsiUABSYfD78AeY0VlrTkaYApASMjo45HYJI3mgXQJlrrAlZ05F2AYgNlFaK2EcJQJkL+y0aBNIIgIhIUVECUOb8Xo81HWkEQGygXXsi9lECUOayzhxbICIiDlMCYI+ieapmMkUTqpQhFe4RsY8SAHsUz11LN1gRkbKkBEBECpbSUxH7KAEQEREpQ0oARKRwaYpKxDZKAERERMqQSgHbIy9L6yuCPjxuFy6Xi5HJuLFOstoFIIXLzABATSRANpslk4XxaMK6oERKhBKAIhEOeLli7WxOmd/EmrkNLG6vxePO3R1/+vAuPvmjdQ5HKGI9MxMA77liOe+9cgUA6UyWrsMjPLN3kA27+7h7Y7eSAil7SgCsNxuwqLwezGuu4u2XLOW1Z83TqX0iBnncLha31bK4rZY3nreAT914Br97ai8/uG87Ow4NW3mpTmCzlR2K2EUJgPXehwW7l7weN+961TI+fO1q68r1HosWWUkZCge83HDeQq4/ZwE/emA7//mbp5mKp6zo+r3AX1nRkYjdtAjQWgHgXWY7aa+v4PZ/eA0fv+4Uex/+oDUAUtDsrgTocbt4x6VLuf0frmF+c7UVXb4VsOiMbRF7KQGw1vVAk5kO5jVX8bOPX8nC1hqLQsoTnQYoRWxOUyU/+ZsrWNJea7arSuAtFoQkYjslANa61kzj1roIP/nYlTTXhq2KR6SoZfM4QlVfGeTHH72cOU2mX+BN3QdE8kUJgHVcwEVGG7tdLv7r5gtoqApaF1FeaSpBrJfvn6qaSICvvefCF3bYGHQeoBW7UvCUAFhnBSaG/687Zz6nzG+0MJz8ymoxodjAiSUqy2bX8daLl5jpogI4w6JwRGyjBMA65xpt6Ha5+IurVlgZS/5pMaGUkPdcsRyf19Tt0fD9QCRflABYp9Now1PmN9LZVGVhKDOgN3cpZA4llrNqwpy7pMVMF3OsikXELkoArNNmtOE55m405lh0g1UaIXZwalwpnc5w5gJTU3LtVsUiYhclANYxnADMbQiTtKYIycxpBEDkBdksxGNJopMxFpqrC2D4fiCSL6oEaJ2I0YY1kQDxeIJkKkUw6MftUV4mAvnbBpgFUvEkiUTyhUGx2oqAmS4N3w9E8kUJgHWiRhseveFk0hmmJmN4fV78AS9utxIBKW92P/8z6QypZIpkIvWK6QaTyYfh+4FIvigBsI7hX/jhiZce5ZtKpkglU3g8Hrx+D16vx/aSqCKFyI7nfzqdJp1Kk05lSKczx/26oQmDR2znxMw0FskHJQDWmTDacOfhUS5b9copw3Q6TTqaJgG4PR7cHhdutxu3243L7cLlcuUW32kHnsgrZNIZUokUmWyWTDZLNp0lnUlP+/dl5+FRM5c3fD8QyReNMVtnp9GGj+04csJ/nyWXDCQTKeKxBNGpGFMTUSbHp5gYnyIe17nmUprMDMMnU2lisQSJeJJUIkU6Pf2HP8Cj20/8e3kSO8w0FskHJQDW2WK44YEh9vSOWRmLSElwqr7U4ZEpnuzqM9PFc1bFImIXJQDWedZow2wWvn3vNitjybt8HtoiYrfv3b+DdMbUz7Th+4FIvigBsM52YNBo47s2HeCJXabeOJylRYpig6wDC1y2dA/x88f3mOliEthoUTgitlECYJ0UcJvRxtks/N3/PcmRkSkLQxIpbvkeWBqeiPM3//sEGXNv/3ejbYBSBJQAWOvXZhoPjMd4x9f/SPeAFhCLQH6nlgbGY7z7Ww/SMzRptqtfWRGPiN2UAFjrD5iYBgA4PDzFu775IFsPDlsUUp5oCYAUsT29Y7z9aw/QdcT0YtxJ4A4LQhKxnRIAa8WAr5vtpG80ylu+cj+f/80mppw6I0CkANidV6bSGW55YAc3fOleDg6afvMH+C4wYkVHInZTISDrfRX4KCZrgaczWf7vkS4eeK6HG86Zz+vO6KQmYqo2ub20BlCKyFg0wW3r9/PTR3ZzYNCyKbck8EWrOhOxmxIA6w0A3wY+YkVnh4en+PIdz/KNu5/j/KUtrO2sZ+Wcepa01RD0eay4hDW0DVBsYNWPVTyVZvuhEbZ0D7Fp3yAPbj1MPJm2pvM/+V+g2+pOReyiBMAenwFuAFqt6jCRynDfs4e479lDL/nnkYDX7H5li2gIQKxnZhHgt+7Zynfv285kLGlhRMc1BHwiHxcSsYrWANhjFHh/Pi40GU8RM/Mmozd3KWBmtuPFk+l8PfwBPg705utiIlZQAmCfXwO/cDqIk0lZNHqQdSmREOvZMExvh/uBW5wOQmSmlADY652YOCMgH050HOpM6PkvdoglCn4XzH7gTWgjrBQhJQD2GgeuAfqdDuR4rBoB0BoAsYOp6S37TQDXAkVcw1vKmRIA++0DridXIKTgpCwaARCxQzxRsAlAHLgR2Ox0ICJGKQHIj4eAizFZJdAO1iUAGgEV68WSBTkFMAX8Gar4J0VOCUD+PAVcRoENF6bSmgKQwlWAIwCjwBXkDvwRKWpKAPJrE3Aq8LDTgRxl1QhANqupBLFevLBGADYCpwOPOB2IiBWUAOTfQXLTAZ8BHH+9mbBon7TKCYgdxqYSTocAufmtrwDnALscjkXEMkoAnJEGPk3uhvKYk4GMTMYt6UcJgNhhaDzmdAibgEuBD5Fb+CdSMpQAOOtJ4DxyZYP3OhGAdQmAMgCxnoMJwGHgXeSm7B5wKggROykBcF4WuBVYTG674L3kcUn92FSCjBUP74zWAIi1ovEU0fwfh/0o8FZgLrnqfvrBlpKlw4AKRxL45fOfRcBNwOXAGYBtx/6lM1n6R6PMqgmb6sdMzXaRY8nT238GeBr4A/B/wLP5uKhIIVACUJh2klsj8GmgBriE3FDkAmD+839WW3WxI8NTSgCk4AyOR63uchzYDXQ9/+fTwH3kjvAWKTtKAArfCPCr5z8vFwCOPrl/B5xr5AJHhqdYPddYcEcpARCr9QxMmGm+jT/9PkQBx1cTihQarQEobnFg+PmP4e1JBwdN3WgByGgNgFisq2fETPNd/Ol3Qw9/kWNQAlA69hhtuLd3zPTFs5msdgKIpXabSwB2WxWHSKlSAlA6HE0AANIaBRALKQEQsZcSgNJh+IZnVQKQSSkBEOvsPjxqprnhhFikXCgBKB2GE4DekSlLtlxldLSwWGRgNMqRIVMnaGsEQOQklACUjn7giNHGW7qHTAeQVgIgFnlqh+EfZYBJlACInJQSgNKy0WjD57oHTV88nVQCINZYv6vXTPNNFMBBWyKFTglAaTGcAGzeZz4ByGQy1pQVlrK33twIwNNWxSFSypQAlJYNRhs+ubPXkoe3RgHErFQ6w9NdfWa6MJwIi5QTJQClxXACMDIZZ6sV6wBSGnkVc57acYTJWNJMF0oARKZBCUBpOQAYfnV6bPth0wGkknk/vU1KzL0b95tpPglstSgUkZKmBKD0PGi04WPbTM27ApBKagRAzLnrqX1mmj9C7mRNETkJJQCl5z6jDdd39ZGwYAhfSYAYdXBgnO0HTE1FPWBVLCKlTglA6TGcAEQTKZ7eY/5kVE0DiFF3PbnPbBf3WxCGSFlQAlB6ugDDk6gPbjlkOoBUXCMAYozJ+f8RtABQZNqUAJQmw29Btz+1F7O7AVPptI4HlhkbGo/x0LMHzXTxECoAJDJtSgBK091GGx4anGS9uT3YACQ1CiAz9MuHdxI3t37kdqtiESkHSgBK0x1A1Gjj2540f5BaMqmF2DIzP75vm5nmGeB3FoUiUhaUAJSmCeAeo43vXL+fpMmjfdPJDFlNA8g0bd0/yLN7TS1AfRgTh2GJlCMlAKXrl0YbjkzGeei5HlMXz2azJBLaDSDT86N7Tdfu+bUVcYiUEyUApet3QMJo499aMA2QMFfOVcpEIpXmlw/vNNNFFviNReGIlA0lAKVrBLjXaON7nu6md2TKVADpVIZMWtMAcmK/ebSLwbGYmS6ewMTWV5FypQSgtP3IaMNkKsMP799uOoC4RgHkBLJZ+MqvTW/dv8WKWETKjRKA0vYroN9o4//94w4mTD7AE7FkboBW5BjuXr+PbeZOoZwEfmZROCJlRQlAaUsA/2u08UQsyc8f6TIVQDabJRHXKIAcmwVv/z8HxiwIRaTsKAEofd/GxDv49+7bSjpj7hVe0wByLOu29vCE+SOoNfwvYpASgNK3HXjUaONDg5PctcHc+qp0Kq0DguQVvvqbp812sZ3c8b8iYoASgPLwLTONv3L7M6ZHAWJTGgWQP1m/8wj3bNhntpsvoxUmIoYpASgPP8PENqmuw6P87OFdpgJIJVOk0jofQHIr///x+4+ZPXSqH/ihNRGJlCclAOUhBXzRTAdfum0T41HDdYUAiE2aay+l4VeP7LJi7v/rmDjvQkTA43QAkjfPAu8FwkYaRxMpXC4X5yxtMRxAJp3B5/Pi9ijvLFfxZJq3ff5ORs0lg1HgzYC5SlUiZU534vIxRe6tybDv3buVnqFJU0FEpzQKUM6++btn6O4bN9vNDzBR30JEcpQAlJevkTsp0JBYMs1//Nrcyu1UMqUdAWXqyNAkX/7VBrPdxIDPWRCOSNlTAlBeBjC5FuC3T+zhwS2HTAURnUxo6XYZ+pvvPMS4+RGgbwIHLAhHpOwpASg/XwB6zXTwiR+uY9TEjTydSpOMaltgObn1wR3c+YTpEyYngM9bEI6IoEWA5SgBxIGrjHYwGUsyMBblVWtmGw4inU7jC/hwuVyG+5Di0Ds8xZs/dyexhOmpn88Dt1sQkoigBKBcbSK3irrWaAfbDgyzck49c2dVGWqfzUI2k8UX8BoNQYpAJpvlHf9+F9sPmDrwB2AQuJFc8ioiFtAUQHlKAH9vtpNP/mgdI5PG78eJeFILAkvc13+7iT8+Y8mU/d8Do1Z0JCI5GgEoX88BFwNzjHYwGU/R3T/Bq0/txOhIfiqVJhD0YbgDKVibdvfxvi/fa7qMNLABeB8q+ytiKSUA5W0dcDNgeBy+6/Aofp+b0xfOMtQ+m4UsWXx+TQWUkuGJGK//zG0MjcfMdpUBrkcr/0UspwSgvA0CIeB8M508vqOXlZ3G1wOkUxk8Pg8eVQgsCUfn/Z/u6rOiu1uAb1jRkYi8lBIAWQe8CRMLArPAg1sOceUpc6iJBAz1kUqmCQS82hVQAj7748f5yQPbrehqEHgdKvkrYgu9ckkUeL/ZTkanErzvmw8wFTe2qC+byTI5oQXexe5nf9zBl3+10aru3o9K/orYRiMAAtAFdACnmOlkcDzGrp4RXn1aJ24Db/KZdAZw4fXpx7IYPba1h3d+4W4rFv0B3Ap82oqOROTYdKeVo+4HbgDqzHSyp3eMAwMTvGpNh6Hh/FQyjdfn0YmBRWbXoWHe8E+/YyJmSYXHI8DV6LhfEVspAZCjEsBjwJ9j8udi+8FhhifiXLyy3VD7ZDKDX1UCi0bP4ASv/cff0jts2VT92wDL5hFE5NiUAMiL9ZD7mbjIbEeb9w2SSKY5d2nLzBtns6SS6eeTALORiJ0GRqNc8w+/YV/vmFVd/jfwH1Z1JiLHpwRAXu4R4FXk1gSYsr6rD7/XWI2AbCZLJp0bCZDCNDAW5bpP/5YdB4et6nIj8EZA5SFF8kAJgLxcBriT3NbASrOdPbb9CHGDIwGZdIZsBhUJKkADY1Fe96nfsnX/oFVdDpNLPLXqXyRPlADIsUwATwFvwYKfkQ1dfQyMRblwRduMdwekU2m0M6CwHBma5LpP/5Zt3aYP+DkqS24B6hNWdSgiJ6e7qhxPN7m3sldb0dmz+wfZ2TPCZas78M5whX8qmcblcisJKADbDwzxZ//4W/YctvRcns+jan8ieac7qpzIk1hQH+Co3YdHWd/Vx+VrZxOY4cM8lUzh9rjxePUj65RHthzi+n/6Hf2jlhbmuwN4DzroRyTvdDeVk7kHuAQLFgUCHBqc5P5nD3L+stYZlw1OJlK43UoCnPDzh3byzi/czVTckn3+Rz1Fbr9/wspORWR6dCeVk0kBvyQ3FWDsyL+XGRyP8YvHdtPZVMXC1poZtVUSkH//ffszfPRbD5LKZKzsdh9wGblpJhFxgO6iMh1xcjsD3gAYO/LvZZKpDL/fuJ9oIsXZS1pmtDgwmUhpTUAeTESTfPDr9/PV3zxt9fj8CHApsNfabkVkJlRmRWZiBfAwMLPX9pM4c3EzX7n5AhqqgjNqFwz5CRo8fVBObPOeft71n/ew5/CI1V1PAVcBD1ndsYjMjF6hZCb6yJULvhGwrELPocEJbntiD52zqpjXXD3tdqlUmmwmqzoBFspm4Tt3bubdX7yHgVHLS/HHgGuBB6zuWERmTiMAYsQF5FZvV1jd8atPncNnbjqTusrpjwZ4fV4iVSGVDTZpbCrBh7/xAL99rMuO7hPA64Hb7ehcRGZOIwBixH5gHbk1AX4rO951eJRfrdtNa32ERdNcIJjJZEgmUvj8XlxuZQFG3PHEHm763B2s33nEju6T5Ar93GZH5yJijO6WYoZtIwEAV5wym0/deAazasLT+nq320W4MojXpymB6eruG+dvv/sQd6/fZ9cl4sCbye0kEZECogRAzDqP3A4B0+cGHEvI7+Wdr1rGe69YTiQ4vWUHWhx4csl0hm/ctokv3PoU0bhtZ++MA68D7rPrAiJinBIAscJacnO7rXZdoKEqyIevXcMbz1uIZxrD/D6fl1BlELemBF7hkS2H+NvvPmRlLf9j6SdXO2K9nRcREeN0dxSrzCY3HbDCzossaKnm49edyiWr2k+66M/ldhGuCOHza6kLwJPbj/CvP32ChzYftPtS+4ErgB12X0hEjFMCIFaqITfXe4ndF1rcVsvNVyznmtM7T3q4kD/kIxwOUK7bBDbu6uXffvok9z3dnY/LPQW8FujJx8VExLjyvCOKnfzAd4C35eNirXUR3nnZMm44fyHhwPEX/3ncLkJltkBw/c4jfPEXG+xc4PdyPwbeTW6/v4gUOCUAYpcPAV/AwoJBJ1ITCXDD+Qu5/pwFzGs+frVif9BPKOwv2e2CU7Ekv3h4F9+7awub9/bn67Jp4BPkvt8iUiRK8y4oheIc4FagLZ8XXTuvkevPmc/Vp3dSGXplmQK320Ug5CdwjH9XrHYeHOaWu7bwsz9uZ2wqr4frjQA3Ab/P50VFxDwlAGK3JuAn5GFdwMsFfR4uXzuba8+cy9lLWgi+7PAgj9dNuCJYtCcL7u8d4/Yn9nD747t5crstBXxOZh25h/8+Jy4uIuYoAZB88ACfJjdM7MjTNuT3cs6SZi5e1c7FK9tprv1TcSGf30swHMDjPfFiwkKw/cAQtz++hzse35PPIf6XSwOfA/6J3HHRIlKElABIPp0FfB9Y7HAcLOuo4/zlrZwyr5HV8xpoqg7jC3gJhv243YWTCOzuGeGJ7YdZt/Uw67b2sPfIqNMhHQDegk7zEyl6SgAk30LAvwIfAArmSdteX8GaeQ2smdvIqYtmsWxeIw3TLEFslUMDE3T1DLN1/xCPb+vhie1H6B+ZymsMJ/Ejcos7h50ORETMUwIgTrkIuAWY63Acx1UTCTCvpZp5LTXMa61mbnM1zbURaioC1FQEqakIUBWe3kLCyViSgdEog2NRBsdjDI3FONg/zs6Dw+zqGabr0AiTsaTN/0WG7QH+ArjH6UBExDpKAMRJEeDvgI8CRVm83+1yUVsZOOZuA4B4Ms3QeIx4Mp3nyCyRAr4MfAooqKEIEREpDQvIlRHO6lMwnxRwyom+aSIiIla5DNiG8w8/fVTNT6TkaQpACk0HkJei9XJCcSDodBAiYp+CWYUt8ryinCwXESk2SgBERETKkBIAERGRMqQEQEREpAwpARApUdXTLFIkIuXJ63QAIlbxetx43S5ixVl0xxI+r5uLV7Zz3dnzOXtJM6s/+BOnQxKRAqUEQEpGbSTAHZ+4ksd29vLAlh4efK6HkamE02HZLuDzcO7SFq5YO5vL1nRQE8kVVSzS6oMikidKAKRkZMkS8Hm4eHkrFy9vJZPJsnHvAA9s6WHdrl729I6RzTodpTXa6yu4YEUrF61o5+wlzYQD+lUWkZnRXUNKhutlda3cbhenzW/ktPmNAAxPxNncPcSmvQM8vquPbYeGiyYh6GiszP23LGji1AVNLGipwaUyXiJighIAKRlZTvw0r60IcOGyFi5c1sKHgJGpBNsODrP90Ag7ekbY0TPKvv5xMhnnsgKP28WcpkqWttextKOWpe11rJ7bQG1FUZ6VJCIFTAmAlK2asJ+zF83i7EWzXvhnsWSaw+MxeoaidA+Mc6B/ggMD4/QMTTI8EWd4Ik7G5LBBTSRAa10k96mP0Fqb+9/tDRUsaqsh5NevpYjYT3caKR0WvLgHfR6WtNWysrPx2JfIwvBEjKGJOJOxJBOxJJlslvFo8phfXx32Ew54qQj6qAj6qKkI6AEvIgVBdyKRGXC5oK4ySF2lzskRkeKmQkAiIiJlSAmAiIhIGVICICWjSHb0iYgUBCUAUmhanQ5AAAgAdU4HISL2UQIgheZmpwOQF7zb6QBExD7aBSCFoh74JPAeox1ki6WsX/H4l+f//Dow6WQgImI9jQCIk0LANcCtQA/wEWfDkZfxAp8H+oHfAW8DIo5GJCKWUQIg+RYg99D/IdAH3Aa8AdDh9YUrBLwG+AG579nv0PdMpOhpCkDywQOcDbwVuBGocjYcMSFMLhl4DTBCLhn4OXAXcOxyiCJSkJQAiF3cwDnk3hRvAGad+MulCNWQS+reCgwBd5BLBn4PpByMS0SmQQmAWMlN7k3/Dc9/8rqlT0sAHVXHn5KBI8AvgJ8BjwEZB+MSkeNQAiBmvfhN//VAm7PhFJ90Jkt3/zh7e8foG40SjadIpNKm+005d6xxM/D+5z8HgV8Ch50KRsreGLldLAeAHeQWHAtKAMS4U4CbyM3pF8RDv5h2AU7Gkty1sZu7N+7nyV19jEcTTodkl3bgQ04HIfIi+4F7yY1Q3UcZj1ApAZCZWEDuof8mYInDsRSl3pEpvnvPVn768E6m4pomF3HAHOBdz3/2AV8AbgFiDsbkCCUAcjLN5BbxvQk40+FYilYqneGWe7fy1ds368EvUjg6yRW6+mtyU1Z3ORpNnikBkGOpBv6M3Lz+FYDP2XCK25HhKT74nYfY0NXndCgicmzzye1e+TbwQSDubDj5oQRAjgoAl5N76F+HKr5ZYsehYf78v+6jd2TK6VBE5OTeAywm9wI06nAstlMCUN48wEXk5vWvI7evu3gV2CrAzfsGeOsX/8BETPVxRIrIhcD9wCWUeBKgBKA8nU5uTv8GdPyuLfb3jfOur96vh79IcToF+DW5KdCS/SVWAlA+5pDbsvfn5Ia45HhMDiTEk2ne/+0HGRovu0XFIqXkYuBzwN84HYhdlACUtlZyb/k3Aac5HIvt0gUyBfCl325ia/eQ02GIiHkfJVfi+o8Ox2ELJQClp4bcfP6byc1leZwNZ3oaZrWwcPkq5i1exo+/+SVDfUzGUmQyWdxul7lgTDTfeWiE7923zdz1RaRQuMhtE1xDCU4FKAEoDS9ewf96cie2FbyqmloWLFvF0tWnUNvQ9MI/d7vdZDIzL86VyWYZnUpQWxGwMswZ+crtz5BKl21hMZFStIzcKOoPnA7EakoAipcHuJTcYr7rKJIjdqtqalm4fDULl6+iYVbLMb8mEAwRnZo01P/e/nHHEoD9fePcvbHbkWuLiK3+H0oApAAsJ3fi2tuAYz9BC0yksooFS1ewYNlKWjrmcLIx9sqaWsMJwMY9A5wyt8FQ2xcYXErwy3W7yRTIOgQRsdRS4CzgcacDsZISgOKwhD/V4F/gcCzTEgpHmL90JYtWrKKloxOXa/oT69W19fT1HDR03XU7e3n3pSaPKTC4BuDO9fvMXVdECtkbUQIgedLOn1bwn+JwLNMSCIaYv2Q5C5avor1zPm6321A/jc0t7HruGUNtN+zpZ1//OJ2NlYbaG3VkeIq9vWOm+1m9ejUrVqwgEpl5IUa3200g4Nz6B5FC1NfXxyOPPMKBAwfMdnWpFfEUEiUAhaUWuJ7cQ/8CwNgTNI98fj9zFy1j4fJVzJ6/CI/H/KaDptYOw22zWfjpI7v529etMR6AgVH8TXv7jV8PqK+v50tf+hJnnXWW4T7C4TChUMhUHCKlKJVK8c1vfpN//ud/Jp1OG+1mJbkS6cbmJwuQEgDnhYBryD30rwL8zoZzcl6vjzkLF7Nw2So6Fy3B67X2rKDmtg48Xi/plLFT837++B7ecPY85jcbWxdpZBZ/zxHjb/8ej4fvfOc7rFixwnAfAH5/wf/oiDjC6/XygQ98gFQqxWc/+1mj3biAhcAm6yJzlhIAZ3iBy8g99F8L5He82gCPx0PHvIUsXL6KuYuX4ffbN9Ts9flo75zP/q4dhtqn0hn+5Vcb+e77LjRUE8BlIAMwc9jPq1/9atMPf8DwlItIufirv/orvvWtbzEwMGC0i3aUAIgBLnKrSG8it5ik6cRf7jyXy0Xr7LksXrmGeUuWEwzlr7zAvMXLDCcAABv2DPDF2zfzsWtXz7htlpnv45+MGxutADjzzDMNtz3K5XLNaKGlSDny+/2ceeaZ3HHHHUa7KPiXtZlQAmDZQFHzAAAgAElEQVQvH3A+cDXwOmCus+FMT0NzC4tXrGXh8lVUVFU7EsOCZat4+O7bSaWMF9/60UO7aK2LcNN5M9s4YWQnXyJleF6RiooKw22P0sNfZHqqq03d04JWxVEIlABYr5HcA/9qctX5iqZAz6IVa1i0Yg11jc4PTgSCQeYvXcGOZ5821c/nf7OJ/tEoH3z1Sqb7jMxmtJdfREqfEgBruIErgXcDryH35l/wQuEIC5atYtHK1bS0z8ZUEXwbrD37fHY8uwmzx/Pd8sAOth0a4ZOvX0tH/cnftlXMR0TKgRIAc0LA24G/Jrc6tOD5/H7mLV7GohVr6Ji3sKAXjjXMaqFz4WL27dpuuq91O3t5/X/8gbecv5Abz51PU/Xxt8tl0hmy2ayG1UWkpCkBMCYEvJ/cOdGNDsdyUm63h9nzF7JoxWrmLl6Gz1c828XOvuRK9nftJJs1f8BOPJnmf+7fzg8e3MlFy1u4dGUb5yxupib8yr+PTCaLx6MEQERKlxKAmfEA7wL+EWhzOJaTcNHSMZtFK9awcNlKguGZV5YrBPVNs1h+yhls2WBdBc5UOsO9mw9x7+ZDuN0uVs2u48JlLZyzuJmFLdV43C7S6QweT+GOjoiImKUEYPrOAr4BrHU6kBOpa5zFohWrWbRiDVU1tU6HY4lzLr2S/V3bGR8dsbzvTCbLpn2DbNo3yH/duYWQ38vyjlpWd9Zz+uIWlnXU0VoXmfYCQhGRYqEE4OQqgS8AN1OgpXkrqqpZtHw1i1auOe4Ru8XMHwhwyTWv57Yf30LW5gV60USK9bv7Wb+7n/+5L7f2IODzMKepks6mKuY0VdJeX0FNJEB1xE9tJEBNRYBkyvwUhYhIPikBOLEzgR9RgAv8AsEgnYuWsmDpSjoXLsblKsjcxDIdcxdwxgWX8sSD9+b92vFkmp2HRth5yPoRCBERpygBODYX8PfAp8jN+xcEr9dH56KlLF6xmtkLFlty8E4xOe38SxjoPczu7c85HYqISNFTAvBKlcD3gescjgPIVXhrbp/NklWnsHD5avxlfNyry+Xi8uvexB0//QHde3Y5HY6ISFFTAvBSncBdwGKH42BWaweLVq5m4bJVhCtKqvy0KR6Phyvf8Gbu+OkPObR/j9PhiIgULSUAf7Ia+D3g2Cq6mvqG58vxrqamrsGpMAqe3x/gmpvewd2//Al7d25zOhwRkaKkBCDnTOBuIO8n30QqKlm4fDWLVqymqbU935cvWl6vj1e/8a088cc/sP6RP2K2XLCISLlRAgCnkRv2z9vDPxypoHPRUhYtX01b59ySX8FvF5fLxVkXX05z+2zuv/1XTE2MOx2SiEjRKPcEYAW5N/8auy9UXd/AgiUrmLtoKbPaOlRn3kKdC5dw03s/xMP33GHJ4UEiIuWgnBOAZuB2oM6uC4Qrqpi/YjWzFy5jzpw5uPXQt00wHOFVr30jq04/m0f+cCeHD+xzOiQRkYJWrglACLgNmGNH59X1jSw77Wza5y7E5XZTVRHRwz9PZrV18Pp3vJee7r1sfOwhyw4SEhEpNeWaAHwNON3qTkMVlaw441w6F694YYjf5/USDBTP6XulonX2XFpnz2VibJTtmzeye/sW+g8fRtMDIiI55ZgAvAN4p5Udut0elp12NovXnI7H+9K/0opImFxhQXFCRVU1p513MaeddzGT42Ps79rBvq4dHNizi2Qi4XR4IiKOKbcEYCHwdSs7rK5r4MzLrqamoekV/87v8+HzlttfceGKVFaxbO3pLFt7Oul0ip79e+k5sJ/eQwfoPXSAeCzqdIgiInlTTk8nN/A/QNiqDuctW8Xa8y/F4zn2X2MkHLTqUmIxj8dLx7yFdMw7es5TluHBgf/f3r1HWVmdeR7/nlsVdaGKulBAKcjdyAQlojhhUiACasx4aY2XaVpNC7hMjGtYMwzEJY4a7BDotLp6YjRZ8YYybYbWbm2NIBpLQQNeCCBXQRARAakbRZV1PefMHxUSUIo6tfdb9d5+n7WyVhac/b5PlVTt5937eZ/NF/s/4+D+fdRWHeJIbQ0N9Ud6/ARCERE3hCkBuB2ocOJC0ViMcyumMXzM2Z1+JhGPk4gnnLid9IoIRSX9KSrpz5lnf+svf5pMtlNfW0NdTTVHaqtpPFpPS3MTzU1NtDQ10dLc8b8vG46STCZdjF9EpHvCkgCUAQuduFA8kcXES69k4OChp/xcnxAf2hMksVicotIyik6yxXO8Fc/9C7u2buqlqERE7IUlAfgHHOj0l52Ty+TLrz3pfv/xIkRU+R8yestTRPwmDD1ox+JA1X8iOzujyR+gT3aWOv2JiIinhSEBuBvLrzMWj1Nx2TUZTf4A2Xr6FxERjwt6AjAGuMb2IudWTKN00GkZfTZChCwV/4mIiMcFPQH4X1h+jSO+OY5hZ43N+PNZWQn1/Qkl/UcX8YNo1GpKCNSrPkFOAEqBG2wukFdQyDnfvrBbY9T4R0TEu0pLS22GH3QqDi8IcgIwG7DqxHP+lEuJJ7q3nB+Px2xuKT6lmk8Rfzj77M77t3QhBQTqXd8gJwB/bzP4jNFjKDttSLfHxWNKAEREvGrq1KkUFBSYDK1EKwC+MIGOvv9GotEY35zwX7o/LhKx3V8S39ISgIgf5OfnM2fOnO4OSwELeiAcVwV1tvpbm8HDx5xNXkG/bo+LaflfRMTzfvzjH3PxxRd3Z8idwB97KBzXBDUBuNJ0YCQSYfQ55xmNjXdyKJAEn2oARPwjFovx5JNPctNNN3XVtK0J+CGwpHci611BTADGAENNBw8cMoz8wu4//QMklACIiPhCdnY2Dz74ICtXruSGG25g0KBBx5KBNmAH8I/AaOBRN+PsSUGcsS6zGTxy7LnGY/UGQJhpCUDEj8aPH8/48eMBaGtr2z9w4MDBQCjOAA/iCsCFpgOz++Qw8PQzjMZGgFg8iN9OyUwofl+IBFoikUgToh/moM1YEeDbpoNPHzGaiGEVfzQWI6KnwBDTf3sR8ZegJQDfAIpNB582zPjNQRJa/g83zf8i4jNBSwAmmA6MRCIZH/hzMjG1ABYRER8JWgIw3nRgYUl/4gnzY3wT6gAoIiI+ogTgz0oGDLK6sVoAh5vqP0TEb4K0bh0DzjEdXGyRAKgFsEiwtba2snv3bnbu3ElNTQ1HjhwhnU6TlZVFXl4egwcPZsSIEQwePLirxjIinhGkBOAbQJ7p4JIB5cY3jmv/XyRw/vSnP/H73/+eNWvWsH79etrb27scU1BQwMSJE5k0aRKXX3455eXmv1dEelqQZi7j5f9EVhZ9+xm/PKDlf9FbAAHR2NjI0qVLWbp0KR999FG3x9fX17NixQpWrFjBggULmDRpErNnz+aSSy7RyoB4jhIAoLhskNUPp1YARPytpaWFRx55hF/96ldUV1c7cs1UKkVlZSWVlZWMGTOGu+66i0svvdSRa4s4IUgb18Y9fG32/0EtgEVFgH62evVqKioqWLhwoWOT/1dt3bqVGTNmMGPGDD777LMeuYdIdwUlAYgB3zIdXFw20OLWEWJRJQAifpNMJlm8eDFXX301H3/8ca/cc8WKFVRUVPDiiy/2yv1ETiUoCYBVAWBRf/MEIBaP6ihYUQ2AzzQ0NPD973+fJUuWkEqlevXe9fX13HLLLSxZEsgTZsVHgpIAGO//Z/fJITe/r/GN1QBIxF+qqqq44ooreOutt1yLIZ1Os3jxYubNm9frCYjIMUGpXjNOAIqslv9VACjiJw0NDVx33XVs3LjR7VAAeOyxxwC0GiCuCP0KQFH/AVY31iuAAioC9IP29nZuvvlmz0z+xzz22GM8/PDDbochIRSEBCCKTQdAi/1/0AqAiF8sXryYyspKt8M4qfvuu4/Vq1e7HYaETBASgG8A+aaDi8rMVwCi0ShRVQAKqAjQ495++20eeught8PoVDKZ5Ic//CFHjhxxOxQJkSAkAJYFgAXGN9byv4j3tba2MnfuXM8X2x04cIBFixa5HYaESBASAOMGQNb7/2oAJH+hJQCv+vWvf23U1tcNjz/+OFu2bHE7jFDZs2cPCxcuZOrUqZx55pmDgH3A68D/AMyfEH0gCAmARQGg5f5/TPv/0kE7Qd7U1NTEL3/5S7fDyFgymeSBBx5wO4xQSKVSLFq0iIkTJ/LQQw+xYcMGqqqqYsDpwEXAPwEfA3/jaqA9yO8zWBSLDoBF/cusbq4tABFve/rpp6mqqnLserm5uUyYMIHy8nLy8vKorq5m7969bNiwgWQy6cg9XnzxRXbt2sXIkSMduZ6c3B133MGzzz7b1cdKgeeAWcDjPR5UL/N7AnAmNgWAFisAESLE40FYQBEJrqVLlzpynREjRjBr1iwmTpzIwIEDv3Z4WG1tLc8//zyPPvqodSFfKpVi2bJl3HPPPVbXkc498cQTmUz+x0SAR4D3gA97LCgX+H0GM17+z8ruQ15BofGNY/EY2veVv9K/Ba/ZtGkT27Zts7pGNBrl1ltv5amnnmLy5MkkEomTfq6oqIiZM2fy2muvMXnyZKt7AixfvtyxFQU5UXNzMz//+c+7OywL+IceCMdVfk8AzjMdaN8B0O/fOpFge+WVV6zGR6NR7r33Xn7wgx8Qjf715/1UbxMUFhby6KOPcs0111jd+8CBA55rWBQUb7zxhum20GV0bAkEht9nMfP9/1LbDoB+3z0RJ6kToPesWbPGavysWbOYNm3a1/68q9cJY7EYCxcu5Pzzz7e6v5tnFQTZ+vXrTYdanTrrRX5OAOwKAC0aAIEKAEW8rK2tjQ8++MB4/LBhw7jppps6vXZX4vE4999/PzGL3xPr1q0zHiudO3z4sM1wu6Vjj/FzAnAmYHyMn1oAiwTX3r17aWlpMR4/e/bsE5b9j5dJAgAdScRVV11lHMPOnTuNx0rnLGsrAvXk5+cEwLUCQLUAFvG2Xbt2GY/Nyclh4sSJnf59e3t7xl0Fv/e97xnH8emnn1olMSJdCWUCYN8BUE//8hXKBz2lurraeOw555xDVlZWp3+fTqdpbm7O6FoXXHCB8TZAMpmkrq7OaKxIJkKaANgt/ye0/y/iaUePHjUeW1bWdYOwpqYm0ul0l59LJBL079/fOJaGhgbjsSJd8WsCEAXGmQ62LQC0KeyRoNISgJe0trYaj83Ly+vyM+l0mqampoyu17evcalSxisNIib8mgCMxqoAUG8AiARZbm6u8diampqMPvfll19mVFD2xRdfGMeSSTIivarrZR8f8WsCYFkA2M/4xhEif+4CKCJeZfPUvW/fvow/W19ff8qtgNraWurr641jyc837nQu0qXQJQBOHAGsxV75Kr0U4i3l5eXGY7dv355xEWEymTxlvcEf/vCHjGoFTqZPnz4UFxcbjRXJhF8TAOMWwP20/C8SeKNGjTIem0qleOmllzL+fGtra6dP+cuXLzeOY+TIkZ32IhBxgh//dVkVANru/2v5X05OSwBeMnDgQEpKSozHL1u2rFuv4LW2tlJXV3dCTcBrr71m03aWMWPGGI8VyYQfEwCrAkDbLYCEEgARXzhVM5+uNDQ0cM8993Sra1x7ezt1dXU0Nzezf/9+7r77buP7A3znO9+xGi89QkWALjPe/09kZZNfWGR185gOAZKTUA2A91RUVFiNf++997j//vszbv0LHa8H7ty5k1tuucWqGRHApEmTrMaLdCVUCYDt079aAIv4xxVXXGHdtXPlypXcfvvt7NmzJ6PPV1ZWMnPmzIw/35nx48czePBgq2uIdMWPj7OuJQAJtQAW8Y3+/ftz0UUX8eqrr1pdZ/Pmzdx4441Mnz6d6dOnc955553QKri2tpY1a9bw0ksv8eGHH9qGDcD111/vyHVETsVvM5pdB0DbEwD1BoB0SitDXjRr1izrBAA63gxYuXIlK1euJBKJUFxcTF5eHjU1NY636y0sLOTaa6919JoiJ+O3LYBRQIHp4GK1ABYJlalTpzJunPEzw0ml02mqq6v59NNPe6RX/6233kpBgfGvOelZKgJ0kUUBYJZVB0DoaAIkcjIqDfGuBQsWuB1CxkpLS7ntttvcDkNCIjQJQFH/AUQsfktHiBCP+e3bJSJTpkzhyiuvdDuMjNx7773062f3oCKSKb/NaK4dAdzRAEiPedIZ/dvwskWLFlFaWup2GKd00UUXccMNN7gdhoSInxKACFYFgGoBLBJWAwYM4Le//a1n63jKysp4+OGHrVYpRbrLTwnAaKDQdLA6AIqEW0VFhXV3vp6Qm5vLsmXLKCsrczsUCRk/JQDGy//xRJZ1B0AVAMop6cHNF+644w5uv/12t8P4i0QiwZNPPsm5557rdiiSGb0F4BKL/f8yy6W1CHG1ABYJhPvuu4958+a5HQa5ubk8/fTTTJ061e1QJKRCkgBYFgBGI9qbk1OKaAnANyKRCPPnz2fJkiUkEglXYigvL+eFF15g+vTprtxfBPyTALhbAKgWwNIVzf++M3PmTF5++WWGDBnSq/edNm0alZWVWvYX1/klARiFRQFgsVoASw9LpwO1NRga48eP55133mHevHkn9PfvCcXFxTzwwAM8++yzlJSU9Oi9RDLhlwTArgCwn+URwFoBkK5o/vetnJwc5s+fz1tvvcV1113n+IpfUVER8+fP5/333+fmm2/WdqK/Beon3S8JgPFaWb9S2wJASLjWATDF0SN1HDqwn6NH6gjYvz0RTxk1ahSPPPII69atY+7cuVZbA5FIhAsuuIBf/OIXbNiwgXnz5lFYaLyIKd4RqOzNL4+2rh0BHCHS681DGhuO8u5br7N7+xaaGv962EhOXj7Dv/FNJky6iLz8vr0ak3RFyVlQDB06lDvvvJOf/OQnbN68mdWrV7N27Vp27NjB3r17aWtr+9qY/Px8RowYwZgxY6ioqKCiooLy8nIXohfJnB8SgAgWKwDFlglArJff/9/90TZW/fvvaGtp+drfNTU2sOWDtezcvIFpV13H8NFn9Wps0jmVAARPJBJh7NixjB07lh/96EcAtLW1UV9fz9GjR2lubiY3N5eCggL17w+PQP2k+yEBsCoALCqzKwDszQ6A+z75mBXLl5FKJU/5udaWZlYsf4bLrr+ZoSNH91J0cmqB+r0gnUgkEpSUlKiITwLBDzUAxk//8USCvv2KrW7eW28AtLa28urzz3Y5+R+TSqV4/cV/pa2ttYcjk0xoBUBE/MYPCYDx/r8TBYC91QNg03t/PGG/PxNNjUfZ8O4feygi6R5lACLiL35IAIxXAGwLAOnFAsDd27cYjduzw2ycOEsrACLiN15PAKwKAJ1oARztpXd2j9RUmY2rNhsnTlMGIBICgfpB93oCMAIwLq+1bwHcewWALc1NFuNSzgYjIiKB5/UE4DzTgbF4ggLbAkCfdABMB6s3hS+pFbCI+I3XEwDzBkClZUSidl+ejgCWzCkBEAmBQP2gBzcBsC4AhHjc698e8QotAIiI33h5hosA3zIdXFTmQAvgqE4BlEwpAxARf/FyAmBZAGh5BHAvtwAWn9P8LyI+4+UEwHj535kCQCUAkrm0MgAR8ZlAJgD9SvurAFB6l+Z/EfEZLycA5g2ASp0oANQKgIiIBJdXH3OtOgAmsrOpPXzILoKWL6GXugCK/2kLQCQUAjUpeDUBGAEUmQ7e9sFatn2w1sFwRLqg+V9EfMarWwDG+/8ibtAKgIj4jRIAESdo/hcJg0BtASgBEHGEMgCREFAC0MMiwDi3gxDpDrUCFgkFJQA9bDhg18VHpNcpAxARf/FiAqDlf/EdrQCIhIJWAHqYEgDxIWUAIiGgBKCHKQEQ39EKgEgoKAHoQVZHAIu4RxmAiPiL1xIAFQCKP2kJQCQMtALQg7T8L76k6V8kFJQA9CAlAOJPWgEQEZ/xWgJgfAKgiIhID/PanGnFS6cBWh0BPLgkn745CbsAohEiLh0BvHlvtSv3FRGRcPJSAjAMiwLAf7r5P3NmeT+rAHLzc4hG3UkARty61JX7iohIxlQD0EOM9/+z4lGGDyiwvH3EtclfRESktwUiARg1qJBEzO5LicU0+YuIyCkFaqIIRAIw5vQi65vr6V9ERLoQqInCKwmAVQdAZxKAmPU1RERE/MIrCcBQoMR08FkOJAARbQGIDZfeHhGRXhWoH3SvJADnmQ5MxKKMHGhbAAjRqFe+FSIi4lFJtwNwkldmPeP9/9Hl9gWAkYjeABARkS4pAegBxgmAE8v/UcsEQkREQiHldgBO8sLM54ECQC98G0RExOO0AuCwoVgUADqSAKgAUEREuqYEwGHGy/+JWJQR1h0AtQIgIiIZ0RaAw4wPABo5sICsuP2XEFMNgFiyOUQq7cBRwm4dYiXiN6mU1RyuBMBhrnYAjKj6XxyQlZ1tPPbQoUPW97f8pSYSGp9//rnNcG0BOMx4BcCJBEBP/+KE7D45xmNfeeUV61WAdDrtyEqCSJAdPHiQdevW2VyizqlYvMDt2W8oUGo62JFXALUCIA7IyzevRdm4cSNLl9ofB93e3m59DZGgam9vZ86cObS0tNhcZr9T8XiB2wmA8et/iViUUYMKrQPQGQDihNIBg6zG/+xnP+OnP/2p1XZAW1ubVQwiQbV+/XquuuoqVq1aZXOZRmCnQyF5Qtzl+xsnAE4VAOoNADmVZDLJ53t3c+jzz6g6dIDGo/W0tjR/bbJNJe22BtPpNM888wzLli2jtLSUPn36GF0nFlNCK3K8uro66uocWbnPAj46yZ8fBer//HebgDeAzYDn9+TcTgDGmQ505AAgdAiQnFzVoQNsWLeG3du30trS3Gv3TafTHD58uNfuJyIZSwDDT/H3Fcf9/13Ak8CjQHUPxmTFtwmAI28AxKLBOtpJrB2prWbNqy+z56NtbociIv41Ergf+AnwC2Ax0HtPEhlyMwEoAQabDnamA6CW/+WvNr77Nu+8voKkiulExBn5wL3ADOAGYL2r0XyFmzOg8dN/3KECwJjeABA69vlX/fvvWL3yJU3+ItITRgHv0JEIeIabKwDGCYBzBYAqmAq7ZDLJiuf+L3t2bHU7FBEJtmzgaaAAeMTlWACfrgA4sfwPOgRI4I2Xn9fkLyK9JQL8ErjW7UDA3QRgrOlARxKASET900Nuy/p32b7RU1tyIhJ8UeBx4CwvBOLWfUebDnZm/18FgGHWUH+ENatedjsMEQmnfOApXG7G59bNzwCMm6cPLetrHYCW/8Pt7dd+T1trq9thiEh4nQ/McjMAtxIA46WPwtws+uVmWQegMwDCq66mil1bP3Q7DBGRBXR0GHSFWwnAKNOBQ/vbP/2DWgCH2cZ17+jkPBHxgsHA37h1c7dmwTLTgWf0z3ckACUA4ZROp9i1dZPbYYiIHHOjWzd2axYsMR04uNSZBCCiLYBQOrh/H01fNrodhojIMVMBs9O/LLmVABjveeRl2/cu0ut/4XXg071uhyAicrw+wAQ3buxWJ0Dj8uusuLr3ibnqwwetxl9yySVcfPHFFBcXOxSRc3Jzc3UcsEgvam9v57PPPuOJJ55gy5YtNpf6T8BbDoWVMbcSgAbTgY0tbV1/qAsqAAuvIzXmJ3NOmTKFOXPmOBiNswoKCrS6JdLLhgwZwrhx45gxYwaHDh0yvcwwJ2PKlFtbAFWmA480OvXutpKAMGptMT+R87LLLnMwEmdF1NlSxDW5ublcfPHFNpew725nwK0EwPgxbF+1MwVc6ZQjlxGfaW1pMR5bXl7uYCTO0uQv4q7TTjvNZrgre3duJQDGG7G7v6h3JIBUShlAGMXi5rterR7uHKhtLRF3tVg8XGCxLW7DrQRgh+nA3Yfqqao3X8Y9JqVfmKGU3ce4AzV79+oNAhE5uY8//thmuDNPtt3kVgLwMWA0i6fT8Oa2A9YBJJNaAQij3DzzPhLvvvuug5E4K51Oa1VLxCXpdJp169bZXMKVpwu3EoAksM108DNv7bR+gk+1J63Giz+VlA00Hvvmm2/S2OjdJkLt7e1uhyASSmvXrrV5AwBgu1OxdIeb/XCN33ncfaie/3jfLmFKpdKkUtoGCBubBKCxsZHnnnvOwWicpQRApPelUil+85vfWF0C2OpQON3iZgLwus3gRf+2gR2fH7EKoK1NvzDDpnzIUMC8Yn758uXs2rXLsXicpARApPc988wz7NhhXNYGsAGodSicbnEzAXgTMC6bbGpt578//ja7D5nXTrS3tqkbQMjkFxRSOtB8FaC9vZ377ruPw4cPOxiVM9LptKffVBAJmjfffNP26R/gD07EYsLNBKAeeMnmAgfqvuTv/s8bPLduj1FNQDoNba32nQXFX4aNOstqfFVVFXPnzuWTTz5xJiAHWb6KJCIZevnll7n77rudKL79VyfiMeF24/Bm4L/ZXKCtPcWbWw+watN+4rEIQ0rzu3VeQDKZJpGVwO0+Kv/8HxuNx06YPJWIxbJ22PQt7Memd/9odY3GxkZWrVpFJBJh5MiRxC36CzgpnU4TjUZ1JoBIDzl48CCLFi1i6dKlTkz+O4A7HQjLiNuzRgLYCZzh1AXjsShnDylm3NASRpUXUl6Ux4DCHPL6xMnJipOIfX3RIx6P0Sc326kQjIy4danx2Nvv/pkSgG56Ydnj7Nu905Fr9e3blylTpnDuuecybNgwCgsLyc52799TJBIhPz+faNTNBT6RYGhoaKCqqootW7bw9ttvs3r1apJJx94i+5/AA05drLu8MGvcBjzidhAifhKJROjXrx+jRo1i8uTJXHjhhSdM+LFYjLy8vB5pEZxKpXj99ddZtWoV27Zto7a2Vj0IRLqvChgKuPZusRcSgGw6VgEGux2IiF8NHz6cu+6664TzChKJBDk5OY4mAZ9//jkLFixg+3ZXXlsWCZL5wBI3A/BCAgBwFfBvbgch4mcFBQU8+OCDJyQBWVlZ5OSYtz8+3oEDB5g9ezY1NTWOXE8kxLYD5wCuvrbjlUqh7cBYYMwJY18AAAJJSURBVIzbgYj4VUtLC5s3b+a73/3uX576k8kkyWSSeDxutRKQSqWYM2cO+/btcypckbBKAdfT0RLfVV6qEroN+MTtIET8bPfu3VRWVp7wZ+3t7TQ2Nlo1CqqsrNSyv4gzFgNvuB0EeCsBqKJjK8C7zdZFfOCrCQB0PME3NjYaJwKrVq1yIDKR0HsD+N9uB3GMlxIAgI3A9zE8KVBEYOfOzl9vPLYa0NjYSGtra8bV+3r6F7G2Cbga8EzPbm90LznRCuBy4AUg1+VYRHynvr6e1vbUvki08z3/ttY2mo51wUynm5Npvkyl0s1paE+lU8lIJHJCa83a2trv4J2aIRG/2QZ8F6hzO5DjeeUtgJMZBzwHDHc7EBGfOQSYH3hwcnuBIQ5fUyQM3gO+B3juABGvbQEcbwNwPh0rASKSufd9ck2RoHscmIwHJ3/wdgIAUENHYeDVwGcuxyLiF//ik2uKBFUNcCMwE2hyOZZOeXkL4KvygFuBuUB5F58VCas/0bFy5liz8j+LAGuBCQ5fVyRIUsBTdHT58+RT//H8lAAckw3cANxMx9KK11cxRHrLYeDb9FyDkTPoSAKcri8Q8bt2OlbJFtFR8OcLfkwAjjcE+K/ANGAK0M/dcERcsx64Ftjdw/c5A/h/aCVAJE3HitsyOib/A+6G031+TwCOFwVG0tFf+Ww6flGdTsfTSgkdRw/3xZuvPop0V5KOav/3gWeB39Gx/NgbosA1wN/SkQgMQK8ISnB9CTQA1cAuOlrXv09HUx/PL/Ofyv8HscGoYF+FsdcAAAAASUVORK5CYII=;" vertex="1" parent="5hRMl-ogob8N2ftGV3x6-1">
          <mxGeometry x="-1410" y="-720" width="770" height="770" as="geometry" />
        </mxCell>
        <mxCell id="vzekT2HtuLbiQsP1vmq4-1" value="" style="shape=image;verticalLabelPosition=bottom;labelBackgroundColor=default;verticalAlign=top;aspect=fixed;imageAspect=0;image=data:image/png,iVBORw0KGgoAAAANSUhEUgAAAgAAAAIACAYAAAD0eNT6AAAACXBIWXMAAE69AABOvQFzamgUAAAAGXRFWHRTb2Z0d2FyZQB3d3cuaW5rc2NhcGUub3Jnm+48GgAAIABJREFUeJzs3WecHVXBBvBnZm6/21s2m03bVFKBkEBAmgRRQQFF5AUJRcSGDVBBQaKIiJRQbUg1QQQBAamGhJDe62Zbtm+yu9nebp8574dgRAhhd3PvPTNzn/8nfmSZeUg2O8+ce4oCIrIUIYTycEVgZEx1FgBKniqMPANKrgIlF0LkKkCugMgDlFwAigKkC8ABQAGQ9f5lXAD87//zAIDI+//cDUAAiALoP/jPon2U793JhhABKM4OQ6hthlBbIRyNUB01qlD3Fo59bdeZyqJY8n4XiOhoKbIDENFHPVgl8g0RLYEQ4yDUcYAYB4jxgDIOwFgAnmRlcSr9GJv28hG/RkBFTPdEDcXTqxuuNsNwN0B1VESFutMJ75pLxs0pS1JcIhokFgAiif60WTgHvJHJqkOZAyGmQcF0CJwAKIWys/1HhrMaBZ71R3UNAy4R0/19UeHdZwh3uRDqez49+MIFE89pjFNMIhoiFgCiJHmwSrhFLDYHwMmGIuYqwCwAkwBokqMdUYFnHTKcNQm5dkz3RqPIaI3qvm06XK8pMfVvX5t0Um9CbkZE/4MFgChBHqwSGbqIzYNufEqFcopQcAoAr+xcQzXO/xIcaiAp9xJQETYyBwzDXxUz3O9CuJ64tOSknUm5OVGKYQEgipO7ykW6S4mcpQjlswBOBzBVdqaj5VE7UOx/U2qGqO6LRkVmVUx4XnOEXQ9cPOXkfVIDEdkECwDRUVhcGSpRDfULEDhPKDgVgFt2pnjKdW9DtmuP7BiHCKEiamT1RoV/o2F4l2rj9v31YuViXXYuIitiASAaggerhNvQw+coUL8goHwWEMWyMyXS2LSX4VT6Zcf4WDo8eiiWWxk20p71BDLvu3j6dPOGJTIZFgCiT/CcEFpzZWy+EOIrAC4FkCc7UzIo0DEh/VnZMQZNwCHCRta+SMz3j6hT/PqK4gUdsjMRmRkLANFhfOihfwmAAtmZkm0w6//NSkATISO3IRzN+KvLqf3m4tEnB2VnIjIbFgCiD7i/PDxLKMo1isClAHJl55HJq7VilG+Z7BhHLQaPEYrm7NKV9DsuG3vy87LzEJkFCwClvCdqhacnHPmCIpRrhYIFsvOYRbqzFiM8a2XHiKuIkREIG1n/0kLe67magFIdCwClrAfKInOEgoUALgeQLTuP2eS4diPHvUN2jIQwhIqQnl8Vjo248/IJc56QnYdIBhYASimLSoUr2xH9qhD4IYDjZecxs3z3RmS6qmTHSLiIkRkIi5xn9bDnR9yFkFIJCwClhLvKRboH0asFcAOA0bLzWMFI37vwa6kzSq4LtxGIjVgVi3mvuXziyXtl5yFKNBYAsrXFZcFxiqJ+C1C+if8ehUuDMNr/Gtxqt+wYSSegIRgr2B0T2ddeOu7EdbLzECUKCwDZ0uLKyLGKgZsAfBmAQ3YeKxqf9g9oSlh2DGkEVIT0wpqQnnvD5eNP+KfsPETxxgJAtrK4MnwMDOVmBbgMgCo7j1UpMDAh/W+yY5iEgpCe3xLVc374f+Pn/112GqJ4YQEgW3ioPDg+pmg3KQJfh8mP17UChxLAuLSXZMcwnaA+oimiZ11z2fiT35KdhehosQCQpT28Jzg2qmk/UwSuBof648atdWK07w3ZMUxKQVAvaAoYOQuvGHfSCtlpiIaLBYAs6Z4KkecU0V8J4BoATtl57Mbn2I8iL59tRyKgIRAt2qE4M7968ai5FbLzEA0VCwBZyp82C2fIH71KKLgDKXIojwzpjlqM8NprF8BEEXCIgdjIdwaCni99feqn+mTnIRosTpIiy1hcGV0QTI9uEwr+BD78E0pVU3f2/1ApiClpjsYFOf7m9qXVaxbJzkM0WBwBINO7tyw02QHlPqEo58rOkiqy3buR67LnNsCJFtLzOgf0/KuvGH+SNY9SpJTBAkCm9UipSItq0dsBfBf8nD+pctw7kOPaLTuGZQmoGIgVbY5EC85dOHH2Adl5iA6HHwGQKT1QHv1sRIvuBvBD8OEvAd8NjoYCA2mOphMyPOX7nqlb83PZeYgOh3/LyVR+v1Nkh93R3yoC18rOksrSHA0o9K6SHcM2gvqIppCWv+ByrhYgE+EIAJnG/eXhr0Rc0Qo+/OULGvng+0H8eLXW4gxRVbakds1jsrMQ/Qf/hpN0D5QGxwhN/SOgfE52FvqvYt9b8GjtsmPYTlDPbeuPFp571YR5m2RnodTGEQCSanF5+CKhadv48Defvtg42RFsyat15Od6qjYsrXvv97KzUGrjCABJ8WCVyNCN6N0c7jcvFRGMT38RCnTZUWwrqI9o6tdHnnrV+OPqZGeh1MMRAEq6+ysjJxpGdAsf/uZmwIWBWLHsGLbm1VqLs51VVX9rWP9d2Vko9XAEgJJm0QrhyBoZuwEQt4NL+yzBq7VglO8d2TFSgIK+aPE6TfOddfHok4Oy01Bq4AgAJcXDe4Jjs4qiqwDxW/DhbxlBvRBRI112jBQgkO5snO8QbS2PVW84QXYaSg0sAJRwi8uiZ8Q0bQMETpKdhYauNzpBdoSU4dI6M/Lc1RuW1q75qewsZH/8CIASRgihPFgR/b4A7gHgkJ2HhkdTgxjn/ycUGLKjpBAF/bHiZeqYzs9erFzMWZiUECwAlBB3lYt0D2KPC4iLZGeho1foXYU0R4PsGCknqOe39sSKTrym5Ph62VnIfvgRAMXdvWWhyW4luo4Pf/voi5bIjpCSvFrbiDxXdeVT1RvOk52F7IcFgOJqcUX4Ak1RN0NguuwsFD+BWCEMwbmbMjiUfleOu+qVJbVrfyk7C9kLCwDFzQPlkR8oQnkBAKeN24yAhoBeJDtGylKUqJLlqvzF3+refUF2FrIPzgGgo/acENq+yuhiReB7srNQ4vCEQHMIxEbuzjfcc88cf2ZIdhayNo4A0FG5e4fw76+IvciHv/0dPCGQZPM5mmd0qn31r9WuKJSdhayNBYCG7ZFSUeh0R98FxBdlZ6HE0w0vYsIjOwYBcDs6CiKOjpqllRuPlZ2FrIsFgIblvtLw9IgWXQ+Au5alkIiRJTsCvc+p9nl9vrpNT9Zs/ozsLGRNLAA0ZIv3RI5XNeVdBRgrOwslV9RIkx2BPsCpDDiyXVVvPFWz8Wuys5D1sADQkDxQEf2UqmI5gDzZWSj5YsIvOwJ9iKaE1Bx31dNLa9d8W3YWshYWABq0xWXRM4QQrwsgU3YWkiOqc4WnGSmIKBnOvb//W92qW2RnIetgAaBBWVwZO1dRxBvgGv+UxhEA81IUA2nOmtuX1K++U3YWsgYWAPpED5SHL1YM4yUAnAKe4qIsAKamwECmo/qmJXVrfyc7C5kfCwAd0f3l4a8JKM8A4D6wBN3wQgge7GhmCgxkOqt+vKR+/WLZWcjcWADoYy2uCF8AKE8A0GRnIfOICZ/sCPQJDo4EVPxwSd2ae2RnIfNiAaDDerAs+hlFKM8C4Ose/Q8uBbSGgyMBe29Y2rDmdtlZyJxYAOgjFpdHTzEU8SIAt+wsZD6cCGgdCgxkaHtvWVqz+kbZWch8WADofzy4J3KSAvEGAP6Up8OKcATAUhQYSHfV3L2kdsO3ZGchc2EBoEMerIjMNlS8Bi71oyOICX57WI2q6MhwVv/+qZpNF8nOQubBAkAAgPtKQxMNgX8DyJGdhcwtonMEwIpUJaxkuvb+fWnNxtNkZyFzYAEgPFwmcjVNfQ0Az3ulTxQVLABW5VBCqt9Zt+zpunXHyM5C8rEApLhFpcIVU6LPC2Cy7CxkDUI4oRte2TFomBzqgDNNa9nwRO02Hu2Y4lgAUpgQQsnSoo8BOFN2FrIWjgJYm0vtTvdrzTuFEHwGpDD+4aewB8ojvwHAY0RpyLgZkPX5tNbRf29YvkJ2DpKHBSBF3V8e+ToU5SbZOciaogZXidpBmqPhtKV1ax6XnYPkYAFIQQ9URM8C8EfZOci6OAJgH+nO6quWVG/8juwclHwsACnm3r2B0UKIv4Fb/NJRiHEEwDZU6Ehz731oSe3qk2RnoeRiAUghD1YJtxZzvAAu96OjxFUA9uJQwqrf0brsuerNmbKzUPKwAKQQoUcfBjBXdg6yPgMu2REozpxqrx+O9rWyc1DysACkiAfKItcK4BrZOcgeDOGUHYESwOdonra09l1OCkwRLAAp4MGqyHFCwf2yc5B96IIjAHaV7mq46qma9VwenAJYAGzungqRZ+h4GQA/tKW4EVAhBOeR2pEKHZmuxscfLd8xXnYWSiwWAJtziNhjAEbLzkH2Y3AhiW05lH5nlq9xtewclFgsADb2QHnkW4D4ouwcRGQ9Xq2t6Jn6lU/JzkGJwwJgU/eVhiYK4G7ZOci+FAjZESjB0rT6hc/Urv2s7ByUGCwANvSnzcKpaepSADyxhYiGTVV0eBwtLzy9Ywd3frIhFgAbCqRFfi2AebJzEJH1udQenzur7U3ZOSj+WABs5v7K6GkKlBtk5yAi+/A7mj61pGbD92TnoPhiAbCRB6tEBgyxBIAmOwvZn6LEZEegpBFIc9bf90TtxkLZSSh+WABsROjR34JL/igJFOhQoMuOQUnkUAccfrXnDdk5KH5YAGxicVl0vgC+KTsHpQZVjciOQBL4HPuOXVK74Vuyc1B8sADYwINVwq1A/AX886Qk0cDh/9Qk4Hc0PLCkan2G7CR09PjAsAFDj9wCBdNk56DUoSph2RFIEqfa73K6Bv4pOwcdPRYAi7uvLDwTUH4iOwelFocyIDsCSeRzNJ3514Z13GXU4lgALGyREKqqKH8CeDg7JZdT7ZcdgSRSYMCntC5ZJFbwQAgLYwGwsMzK6LcBzJedg1KPU+UIQKpzq13pUxqcj8rOQcPHAmBRv98pshWBRbJzUGpyKb2yI5AJeLWGhUuadhTLzkHDwwJgUWF39JcA8mTnoFQk4NY6ZYcgE3AoYdWhH3hRdg4aHhYAC1pcGT5GEeBaXJLCpXZDUaKyY5BJ+B375y6tXXuO7Bw0dCwAFlToWvuGR2t3ys5BqcmrtcmOQCaiwIBH63hKdg4aOhYAi3mmbtWv0511Y4t9b2GkdyUcnIxFSeZ3NsmOQCbj1tpHLK1bc4vsHDQ0iuwANHjPNa71OsT+bpfWd2jZn4CG7shUdEWmwxAcFKDEUhHB+PQXoMCQHYVMJmqkRaIYlXXx6JODsrPQ4HAEwEJisciTH3z4AwcPZcl2lWKs/1VkOKuhKPzBTImT5mzgw58Oy6n2uyKx2B9k56DB4wiARTzX/F6+S29scSiRI5a2qJGOzvBM9MXGgX+8FG9j/K/BpXbLjkEmFRM+vSs6Oe+q8cfxm8QCOAJgEUYo8tdPevgDgFPtwwjvWozzv4wM116OCFDceLVWPvzpiBxKQPMqfX+WnYMGh6+IFvC38tVF/rS6JlWJDvnPK2pkoDMyE/2xMRCCfY+Gb6R3BfyO/bJjkMnFDLcRCU0tvHjS8VwuYnJ8IliA6gktGc7DHwCcai9GeNZgjO8VZLtKoYLnuNPQebR2PvxpUBxqWDWcXVwWaAEcATC5R+s2jB/hqKoebgH4MEM40RstQXdkGmLCF49LUgoY5XsHXq1FdgyyCEM4RWigZPTFU07eJzsLfTyOAJhcBnqfjtfDHwBUJYosVwXGpr2CAs86bulKn8inNfPhT0OiKlFF94Qel52DjowjACb2t327RqdhZ72CSEL/nMJ6Dnpik9AXHQcheLonfZDAaP/rcHPyHw2RbrjFgehJI79RUtIqOwsdHkcATEzR2x5N9MMfANxaJwrcGzDO/zJy3dt41jsdkuncy4c/DYumhhW/2vSI7Bz08TgCYFIvl69OR3pjl4aQlvy7KwjqeeiLlaAvOhaCOwymJFWJYqzvVWgqN3aj4dGFPxYWxRncHdCcOAJgUkFP5BE5D38AEPBqbShwb8B4/0sY4VkLn9YsJwpJk+PazYc/HRVNGXDoun637Bx0eBwBMKHnxHOaq8kIONSg65O/OnkiRgb6oiXojZZAF17ZcSiBHOoAxvpfhQJddhSyuIiRHrqw+Mt+hbuSmQ5HAEzIaCj8hdke/gDgUnuR696O8Wkvoci3HOmOWihKTHYsSoA891Y+/CkuXGqf55m61T+WnYM+ilO+Tcipdl4nO8ORCfi0Zvi8zcgTbvRHx6EvNh4hPVd2MIoDj3YAaY4G2THIRtxq9/UA7pKdg/4XRwBM5pmGDRe41a4c2TkGS1PCyHRVoNj3Jsb6X0WOexec6oDsWDRsAvnurbJDkM14HB0FT9bs+ozsHPS/OAJgMg7RdafsDMPlVHuR49qJHNcuriKwqHRnDdxah+wYZDsCHvXAbwG8LTsJ/RcnAZrIcxVrR3n9VU12mitjCCf6Y2PQFy1BUC+QHYeOQFGiGOd/FZrCmf8UfwZcor9/SsGlU05ol52FDuIIgIno7tDddnr4AwfXkmc4q5HhrEbM8KM3NgF9kfGIijTZ0ehDsl1lfPhTwqiIKKo7cCeAb8jOQgdxDoCJeLSu82VnSCSHOoAc106MTXsZo31vIMO1l6sITEJTQshylsuOQTbn0tovkZ2B/osFwCSerVt5mVPtTZnj+Q5tP5z2EgrcG+BWu2RHSmnZrj1QlajsGGRzLrUnbWn16i/JzkEHsQCYhKoEfiY7gwwaIshw7cVo/+so9r2FdGcdFNjrYxCzcyhBZDqrZMegFOFwhFLyZ50ZcRLgEM244FuXK4Y6KZ7X9Pjdvvmn5d9gt8//h0sIB0JGDiJ6DgxwBUGiebVmeDTOy6LkMOAQa5c1/y4SiUbieV2hGlW7//nHv8bzmnbHSYBDJZTLoIhz4nnJUCCEFW82xvOSNlAvOwARJYYC4Kdxf/0UylsAWACGgB8BEBERpSAWACIiohTEAkBERJSCWACIiIhSEAsAERFRCmIBICIiSkEsAERERCmIBYCIiCgFsQAQERGlIBYAIiKiFMQCQERElIJYAIiIiFIQCwAREVEKYgEgIiJKQSwAREREKYgFgIjIJFRFQXqaDz6PW3YUSgEO2QGIiOzM6XBgbFE+xhcXYszIAuRmpSM/Jws5mX4U5GbD53ZBc2gf+9APhiIIRSLo7htAT28/uvsG0NHdh5b2Luxr7cC+Ax3Y19qB3v6BJP+fkdWxANhQms8LRVVkxxi0YDCMmK7LjpEUGWl+pPs8Cbt+OBpFe1dvwq4/WEUFOVCQvO/BaCyGA509SbvfkYwqyMWcGZNw/LQJOGbCGIwpzIemDX+w1etxwetxITsjDRg14mO/rr27FxW1Tais3Yfy2ibs2VuP1o7uYd+X7I8FwIaeve8mFORkyo4xZP2BEIRhoC8QQmd3L9q6etDa0YOW9k4c6OhBbVML6va3QtcN2VGH7bLzzsBVXzo7YdeP6Tp+cMcfsWl3VcLuMRh/u+cmeD2upN1vb0MzLr3xrqTd74NUVcXx0yZgwfxjcfJx01CYly0lR15WBvKOm4ZTjpt26N81trRjy+4qbNmzF5t2VaKzp09KNjInFgAyjbT334zT03woKsg57NeEI1FUN+xHeW0TymubsHlXFZpa25MZ09QcmoY7r78SV//8fjQ0t8mOY2slowvx5c98CmedNBs5memy4xzW6MI8jC7MwwUL5sMQAjvLa7B8ww4sX7/DNCMmJA8LAFmK2+XEtIljMW3i2EP/rrG5DWt3lGP9tjJs2bMXoXBEYkL5MtL8uPen38DVt9yPvv6A7Di2oigKTpw1BZd+4UycOHMyFMU6H7WpioJjj5mAY4+ZgB9dcSF2VtTixX+vxfINOxCORGXHIwlYAMjyRo/Mx1dH5uOrnz0V4UgUq7eU4qVla7FpdxWEELLjSTG2qAD33Ph1XPfrPyAai8mOYwuzp5bgh5efj+mTxn7yF5ucoiiYPbUEs6eW4PorL8Sr727E82+uQnNbp+xolEQsAGQrbpcTZ80/FmfNPxb1+w/gleXr8dKydegPBGVHS7rjpk3AT665CHf88VnZUSxtRG4WfrjwAnz6pNmWeuMfrMx0P772hTNxyedPw79WbMQTL76N5vYu2bEoCbgPANnW2KICfO9rX8Srf7gN1132BWSk+WVHSrrzP30SvvrZU2XHsKyzTzkez9zzU5w1/1hbPvw/yKFpuGDBfPzjwZ9j4flnyY5DScARALI9v9eDheefhS+dfQqee+M9PP3yOwiEwrJjJc2PrrwQ+w50YPXWPbKjWIbH7cJN3/gKPn/aXNlRks7pcKB3gHNHUgFHAChlpPk8uPrLn8E/Hvg5Pn3SbNlxkkZVVfzq+wsxYfRI2VEsITPdj4d+/q2UfPgDQN9AEG+t3iI7BiUBCwClnLzsDPz2+qvwuxuvtuR+CcOR5vPg3p9+A1kZabKjmNrowjw88ZsfYfbUEtlRpHlt5SYEQ6m9kiZVsABQyjpj3iw8e9/NOGPeLNlRkqKoIAd333g1XE5+8nc4edkZeOiW76B4RJ7sKNIIIfDC26tlx6AkYQGglJbm8+CuG67CdZd9Aapq/78Os6eW4KZvXCw7humk+Ty4/+ZvfuwGVKli465K1O8/IDsGJYn9f+IRfQJFUbDw/LOw+KZrD+1GaGfnnTEPl513puwYpnLbd7+GyeNGyY4h3Qtvr5EdgZKIBYDoffOPnYrf/+K7yEy3/3LB713+RZx2wgzZMUzhonM+hdPn8veitaMbq7bslh2DkogFgOgDppaMxiO3fsf2k+VURcEvv/c1TBpbJDuKVKML8/CDy8+XHcMU/rlsnaUP2qKhYwEg+pDJ40bhD7d9F5k2LwF+rwf3/PQbpj3IJhmuu+yLcLucsmNIF9N1vLx8newYlGQsAESHMWH0SNxz49VwOuw9Y35kXjZ+l6IrA2ZOHo8z5s2UHcMUlq/fgfauXtkxKMlYAIg+xsEZ81+RHSPhZk0Zj59986uyYyTd1y/6jO239x2sf3DyX0piASA6gi+ceSIuToG99D9/2lxceeEC2TGSZlRBLk6aPVV2DFOoaWzBjvIa2TFIAhYAok/woysuxOTxxbJjJNy3LzkXC+YfJztGUlx49slQ+fYPAHj+rdUpe2x2qmMBIPoEmqbiF9+6BA5Nkx0loRRFwW3fvRTTJo6RHSXhTp/Lz/4BYCAYwlurN8uOQZKk3swfomGYPL4Yl5x7Opa8slx2lIRyu5y458fX4Iqb70VbZ4/sOAkxMj8HY4sKZMdATNdR29SK/Qc60dzWgVA4iv5A8NCve9wueD0u5GSkY0ReFgpys1BUkBvXkYvX39uM/kAobtcja2EBIBqkb178OaxYvwP7DnTIjpJQedkZuPcn1+Da2x5CKGy/Q2HmzZoi7d66bmD5hh147d2N2F5eM+Rjqd0uJ8YVj8DksaMwe8p4zJ5aMuwyI4TAC29x3/9UxgJAcRGNxRAa4gliDocDXo8rQYniz+1y4usXnYNf/f4Z2VESbmrJaCz67mW4efGTtvt8eKKkzY8q6/fh1vufRu2+1mFfIxyJoqKmCRU1TXh1xQYAQF5WBk45fhpOOX4a5s2aAp/HPahrbS2rRk1Ty7CzkPWxAFBcLFu7Hbc9vGRY/63P40ZhfjZG5edi8vhiTJs0BidMm2TKcvC5U0/AEy++jcaWdtlREu7TJ83GNRedg0eff1N2lLgqKS5M+j33H+jEd3/1e/T0DcT92u3dvXh5+Xq8vHw93C4nTp87E5899QTMnz0Vmvbx07z+wbf/lMcCQNIFQmHUNLagprEFq7aWAjj4tj1v5mRcsOBknHLcMaY5qU/TVHz9y+dg0SNLZUdJimsuOgf1+w/g7TVbZUeJmzEj85N+z6f+uSwhD/8PC0eieHvNVry9Zitys9Jx/lnz8aWzT0FBTub/fF17Vy9WbtyV8Dxkbub4qUr0IeFIFKu2lOKGux7FV350J5at22aaoejPnjoHI/NT49hYRVFw67f/D9MnjZUdJW5knPi4q7I26ffs6O7D4y+8jfO/+0vcdN8TKKtuOPRrLy1bi5iuJz0TmQsLAJleY3Mbfrb4KVx720OmGHpXVRXnnj5Xdoyk+c/KgBG5WbKjHDVVUeAd5Gfk8eSSeN6ArhtYvn4Hrrj5Pnz/jj9i8+4qvLRsrbQ8ZB4sAGQZO8prcMXN92LT7irZUfD50+em1DayuVnpuPcn15hyXsZQuFxOKRsAnXf6vKTf83DW7yjHd371CPf9JwAsAGQx/QNB/OCOP2L5+h1ScxSPyMPsqSVSMyTb5PHFWPTdr1l6B71IJCrlo6Qvf+YUXHbemSlVGsn8WADIcmK6jlsf/Cs27qqUmuNzp86Ren8ZzjxxFr751c/LjjFshhAIhaNJv6+iKPjBwvPxl9u/j9NOmMEiQKbAAkCWFI3FcPPiJ9Hc3iUtw/xjj5F2b5muvHABPnfqCbJjDFvfB3bbS7aZk8fjnp9cg+cW34zv/N+5mDF5nKVHVMjauAyQLKuvP4Df/PFZPHTLt6XcvzAvG0UFOdh/oFPK/WVRFAU/++ZX0dTaIWV2+9Fqamn7yLK4ZBtbVIArLzwbV154Nrp6+7Gzog6le+uxu6oO5TWN3J6XkoIFgCxtw84KvLtxJ86YN0vK/U+YMRmvLF8v5d4yuV1O3PeTr+PKny223NbIDfvbcPy0ibJjHJKdkYbT587A6XNnADj4MUXdvlaUVtVjT3UDdlXVo6ahmcv2KO5YAMjy/vT3N3D63JlSPledM21iShYAAMjMSMO9N30D19zywP8cYmN2FXX7ZEc4IlVRUFJciJLiQnzhzBMBHNwXo6puH0prGlFW3YBdFbWmWBJL1sYCQJZX3diMDbsqcZKEQ16OmTA66fc0k5LiQvz6hwtx/W8fhWEYsuMMyqZdFbIjDJnb5cSMyeMwY/K4Q/+uvbsX28uqsaOsBlv27MXehmZ5AcmSWADIFl5fuUlKARg1IheapkLXrfHwS4STjz0G1116Hh5c8orsKIPS0NyG5rZOy+/mmJeVgQXzj8OC+ccOjvqyAAAgAElEQVQBAFo7urFmaynWbN2DTburbHmSI8UXVwGQLazeUopoLJb0+zodDozMs/aDJB6+9sVP48IFJ8uOMWivv7dJdoS4G5GbhS+dfQru/ek38O/H7sAdP1iIk2ZN4SoD+lgsAGQL/YEgymsapdy7uDBPyn3N5sdf/zJOmG6eyXVH8uqKDTBMcrZEIrhdTpx9yvF48JZv45+P/ALXXvw5FOZly45FJsMCQLaxq7Jeyn3HSjhdzowcmoY7r78Koy1QiPYf6MS/bXTC4ZEU5mXjmovOwYsP3YLbvnOplNMQyZxYAMg2appapNw3I90v5b5mlJnux90/ueaI59CbxZ+feyOlltY5NA3nnjEPz953E3789YuQmZEmOxJJZv6/pUSDtL9VzrIoGafLmVlJcSFcTvPPL25sacdT/1wmO0bSOTQNXznnU3jx/p9Zat4GxR8LANnGgc4eKff1WfyEvFT22D/eRkVNk+wYUqSn+XDztRfj9u9fbvlTHml4WADINoKSlj35OAJgWTFdx0/ufRydPX2yo0hzzqfm4PE7foSRnCSYclgAyDZCkeSf8gYAXo9Hyn0pPprbOnHD7/6CgWDq7r8/YfRI/Pn2H2BsUYHsKJRELABkG05Nk3LfaExO8aD4Ka2qx7d/+Qh6+gZkR5FmRG4W/nDbdRiRmyU7CiUJCwDZhsftlHLfQDAs5b4UX+U1jfjmbQ+hoblNdhRp8rIzcO9N3+DHWimCBYBsIyNNznK8ALdctY2aphZcefN9eGfddtlRpJk8dhS+f/kXZcegJGABINsoKpCzJW/Q5CMAYUlzI6yqPxDEzYufxM2Ln0zZyYEXLjhZytkalFwsAGQbxSPk7EBn9sljD/z1ZfT1B2THsJx31m3HRT+4A0/9c1nKlShFUfD9hRfwHAGbYwEg25j5gaNSk6m5rVPKfQerfl8rfnb/Uyl9YuFw9QdCeOSZf+HC627H0n+tQCBk7tGeeJo4ZiTO+dQc2TEogVgAyBYURZFWABpb5OxAOBQbdlbgt48+JzuGZbV39+KBp1/Gud+8DYseWYqNuyplR0qKi845RXYESiDz79dJNAgzJo1DTma6lHs3tVhj1vjLy9dj8vhifOWcT8mOYlkDwRBeX7kJr6/chAmjR+KLnz4JZ8ybiZH59jwSeubk8SgZXYiaRjnnbFBisQCQLSyYf6yU+3Z096E/YO45AB907xMvoqggB6ccN012FMurbmzG4qdewuKnXsKoglycesJ0fGrODMyZNtEShyEN1hnzZrEA2BQLAFmez+PGeafPlXLvWkknEA6XYRi49YGn8Zfbf4iS0YWy49jGvgMdePb19/Ds6+/B7/Vg+sQxmDdrCmZPGY9pE8fA6bDuj9q5Myfj8Rfelh2DEsC635VE77twwclIT/NJuffWPXul3Pdo9AdCuP6uP+PJ31yPLB4JG3cDwRA27qo8NE/A7/XgmJJizJg8DtMnjsP0SWOQl5UhOeXgzZo8Dg5NS6mjk1MFCwBZWlZGGq7+8mek3X/T7ipp9z4a+w904if3PoFHbv22pd9OrWAgGMLm0r3YXPrfspiXnYFjSkZj9tQSzJ4yHsdMGGPaI5SdDgdGjchF/f4DsqNQnJnzO45okH581ZeQ7vdKuXcoHMGevQ1S7h0P28uq8dtHn8et3/4/2VFSTntXL1ZtKcWqLaUAAK/HhWklYzBzynjMnDIOc6dPgsdtniN6xxYVsADYEAsAWdaXzj4FZ59yvLT776ioRTQWk3b/eHh1xQZMGluESz5/uuwoKS0YimDLnr3Y8v5HSm6XEyfNnoozT5yFs046Fm6XnHMu/iM/J1Pq/Skx7DNVlVLKqXOm48dXf1lqhnfW22O/+Puf+idWbS2VHYM+IByJYuWmXVj08FJceN3tePb1lVJ3I/TycCBbYgEgy1kw/zj85kdXSl1qFY5EsWytPQqAIQR+8cBfsbehWXYU6caPGoGHb/0OppaMlh3lkPbuXtz35Eu44uZ70dzeJSWD38sCYEcsAGQZTocD3/m/c3HHDxdKHxJ9b9Mu9AeCUjPE00AwhBvuehRdvf2yo0h1ybmnY97MyXjqzutxxw8WYvTIfNmRDqlpbMGP734MhhBJv7dhJP+elHgsAGQJxx4zAU/85ke48sKzoZjggJJ/rdwoO0LcNbd14if3PI5I1NrzGoYrMyMNnz/t4H4SiqLg7FOOx/P3/wx33XAVZkjaZvrDKmubsKuiNun3NfuBVzQ8nARIpqUqCubNnIxLzjsDJx97jOw4h9Q0tWDDTnvuBb+jvAZ3PvocbvvOpbKjJN2XFsz/yMiSqig488TZOPPE2dhRXoOXlq3D8g07EApHJKWElFGaAZMfeU3DwwJAppKR5seMiWNw0nHH4PQTZphyj/XH/vEWDMO+J+u99u5GTBg9El/7wpmyoySN0+HAVz576hG/ZvbUEsyeWoIbr/4ylq3dhtdXbcbOitqkfi+oqoop44uTdr//aDX5iZc0PGYoAMqcK24p0Qz1eKGKGapAnhAiE4qSpQBZAvDIDvhB4YGeSUYstc4GH4wp44tx3WVfGPJ/53a7kOZxY0ReNkYW5GBUQW4C0sVPdWMz3llnj8l/R/LwklcwujAfp8+dITtKUpx9ynGD3p0vzefBBQvm44IF89Hd24+Vm3fjvU27sLm0CsFQYkcGFp5/lpRSXG2BLa81h3P+vIW3bpad44MUICSAbgjRrShKj6GgXRVil+FwbN30+KIa2fmkFICTL/35WN2pfkUIfB7A8RDIhCKgCEAAwPuf8Zpz2on8z5/NqGR0YUrsLf/o829KmYSVbIYQuO2hv+LR23+ASWOLZMdJuEuHuQ9CVkYazv/0STj/0ychpusoq27AtrIabNtTjbKaRnT29MUlX1FBDq69+HOH5igkU99AEG2dPUm/79ApGQDmyE7xQYd+UigKBPD+M06BEtMxb+Gt3QC2KQpejwntuS1PL0r6rmJJKwBzrv1ppiPkvFJAvSQGcSIEn6RkLZt3V2HFhp2yYyRNIBTGjXc9iifuvF7aUcvJMGfaREyOw7C6Q9Mwc/J4zJw8HgvPPwsA0NnTh6r6/ahuaEZLWydaOrpxoLMHXd296A+FEYlE/2d9f3qaD36PG/k5WSjMy8IxJaNx7NQSTJ80Vtrk121l1VLumwKyAJwpBM7UoP9u3sJb1wsFz6ox7ckNSxf1JiNAwgvAiZctyhCa/lOEcJ0AMsz6Xk90JKFwBL/5098hUuDt/4Oa27vwk3sex+9/8V3T7lV/tC5N4FyHnMx0nDhrCk6cNSVh90i0ddvLZEdIBQqA+YrAfKHpvzrx8lsfcjjDv1vz+O/iM4T0MRK6DPDEy2+9RGh6BYCfAbDO8VdEH/LI0lfR1NouO4YUOytqsejhpbYsP6ML83DK8dNkxzAtIQTWbN0jO0aqyRQKbonG3JVzr7j14kTeKCGVfs61i3xaSH9UAKm3lohsZ8uevXj+rdWyY0i1bN02TB43CldeuEB2lLi65NwzoJpgXwmz2rCzAi2Sdh8kFCoCf5+38JbztODAN9c9vzjuO4/FfQRg3sKbc7Wg/i748CcbaG7rxM33PZkSE/8+yR+efQ3L1m2THSNu0vxenHt68ifVWckLb6d28TUH5XLdm7Zi/tcXxX35R1wLwImXLcoQivY2FPBvFVnef7bH7U7x7XH/QwiBXz7yjKWPQP6gC86aDx8PuflYjc1tWM3hf7M4UY/ob57xlUVp8bxoXAuAcOh/UYQi73xWojgxDAO/eJAH5HxYOBLFjXf/xSLLwj6epqm4+BM2/kl1Dy55Bbpu3w2vLEfB3KA39pd4XjJuBWDuwl98FQJfidf1iGQxDAO/fOQZrNrCI3IPp72rFzf87i9St8M9Wp8+6VgU5mXLjmFaW/fsxcpNu2THoA8RUL564hW/iNs56PEpAIsWqQrEHXG5FpFE0VgMNy9+Em+sMtWGYqZTXtOIX/7+GcuuDBjuxj+pIBiK4M4/Pyc7Bn0MIcSdWLQoLs/uuFxkXrVxNoAJ8bgWkSzhSBQ/vefxlNrs52i8s247Hnvhbdkxhmz2+xvr0OHd/fg/UL//gOwY9PEmza2JfToeF4rXRwDnxOk6RFK0tHfhm4se4qSnIXr0+Tfx9pqtsmMMySWfO012BNN6Zfl6/Otd+x11bT9KXJ658dkHQBHT43IdIglWb92D2x5egr7+gOwoliOEwO1/+BuKR+Ri2kTzv1WPzMvGGfNmyY5hSqu2luLORzn0bwUKMDMe14nTCIBivjNbiT5BOBLFQ0tewQ13PcqH/1EIR6K48XeP4YAFVgZ89fOnQ9MSugGqJW3dsxc/X/wUZ/1bhhKXY1Pj9DdBaPG5DlFybNmzF5f/9B789ZXllp3IZibt3b24/q5HE34c7tHwez344qdPlB3DdN7duBM/+M2fLL2qI/XE55lrz9M9iD5Ge3cvHnj6Zby1eovsKLZTWduERY8swZ3XX2XK7XUnji2CpvJd5YP+9tpKPPD0P7nTZYriWBilhK7efjy89FV86Xu/5sM/gVZs2Im/PP+m7BiHtaO8Budf9ys8+8Z7KT/U3d3bjx/f/RcsfuolPvxTGEcAyNaa27uw5OV38MqKDf9z7jolzmMvvI0xI/Px2VNPkB3lI7p7+3HfEy/ixbfX4OovnY2z5h8LpyO1fgy+t3k37vzz39HRndCTZskCUus7n1JCJBrDqs278fp7m7B2e1nKv+0lmxACd/zp7ygekYcZk8fJjnNYdfta8YuHluD+p1/GeWfMw8WfOw0FOZmyYyVU3b5WPPjXl7nUlQ5hASBbCEei2LqnGqu27MZba7ZyVr9k4UgUP77nMTzxm+tNveVuZ08fnn75HTz7+kqcesIMfObk43HyccfA7XLKjhY3tfta8cyrK/DquxthGCzD9F8sAGRJum6gdl8rNu+uxNptZdhWVs0hfpPp6O7Djb/7C/78q++b/tS9SDSGd9ZtxzvrtiPN58Fpc2diwfzjcML0ifC4XbLjDZkQAptL9+KZV1dg7fYyrnShw2IBIFOL6Trau3rR2t6FmqYWVNTuQ3ltE6ob9vOBbwGVdftw20NLcNeNV5tyZcDh9AdCeH3lJry+chM0TcWMSeNw6pzpmDdzMiaPLzb1/0dNUwveWbcdb7y3GU2t7bLjkMmxANjQP95ahTSfV3aMQQlHoghHogiGwojpBvoDQUSiMbR3H3zod3b32WqW8rayamgvJ3fxTUt7V1Lv92ErN+3CooeXYuKYkQm7R3tXb0Kuq+sGdpTXYEd5DQAgM92P6RPGYNrEMThm4hhMKxmD3Kz0hNx7MNq7erF5dyW27KnG5l2V2HegQ1oWsp64VNl5C2/dCuC4eFzL7MIDvTBi3DCDiA4qyMnE2KICjCkagTEj8zGmKB9jRhagICczbnMJgqEImts6UdPUjL0NzahpbEFV3T4+8D9Adbjg9mfIjpEs2zY+ffvxR3sRS4wA+N3uOFWVoxcLquA0GiL6jwOdPTjQ2YNNu6s+8ms+jxt52RnIzkxHdkYasjPS4NBUeD1uqKqKNJ8HsZiOQCiMSDSKcCSGSCyGUDiCzp4+dPX040BHNwKhsIT/M2vRVBV+08w1ERgw8a6Y/2GJAjCnZAw01Rx7Fm3cE0B7JCQ7BhFZQCAURkNzGxqa22RHsb1MnxfzJoyTHQMAENFjWFNeLTvGJzLHU5WIiIiSigWAiIgoBbEAEBERpSAWACIiohTEAkBERJSCWACIiIhSEAsAERFRCmIBICIiSkEsAERERCmIBYCIiCgFsQAQERGlIBYAIiKiFMQCQERElIJYAIiIiFIQCwAREVEKcsgOYDVOhwMupzOh91BdLkCxdzdTEYOqxGTHSAoBBYZwQUCRHYVIDmHAiEQSegung4+zoeLv2BAdN3lywu/hG1uCzGNPSPh9ZPJqrRjlWyY7RlLsD56JQKxIdgwiabq3bUKwoVZ2DPoQe79mWlSwsQ56OCg7RkJFjCzZEZJiIFbEhz+lNCMcQmhfg+wYdBgsACYkDAOB2hrZMRJKF27EhFd2jIQSQkVH5HjZMYikGqjeC6HrsmPQYbAAmFSgpgpCt/dn5GE9V3aEhOqLTUBEz5Qdg0gaoccQqK+WHYM+BguASRnRCIIN9bJjJFRIz5MdIWEM4UBHZKbsGERSBeprYUTCsmPQx2ABMLGB6goIIWTHSJigPkJ2hITpiUyFbtj7Iw6iIxICAzWVslPQEbAAmFhsoB+hfY2yYyRMSM9DxEiXHSPuDOFCV/QY2TGIpAo01kEfGJAdg46ABcDk+sp3AzYeBeiPjpcdIe66ItNhCJfsGETSCGGgv3KP7Bj0CVgATE4f6EegsU52jITpjU6AgCY7RtzEhBfdkSmyYxBJFayv5du/BXAjIAsYKC+Fr3gsoNqvr8WED73RCch02uOzws7ILFsVGoo/hxKAS+2FU+2DQx2AhjAEHIjBjYiejbCeY+0lsoaB/qoy2SloEFgALCAWDCDQUAvfuAmyoyREV3g6MpzVUGDttcJRIx19kRLZMchEVCUKj9oBj9YOt9YBr9YGVfnkWfEx4UUwVoT+2BgEYoUQFhqsHaivhh4IyI5Bg8ACYBH9FaXwjh4HRbPf22VM+NATmYIsl7U/M+wIH2upH9SUGA41gCxXOXxaC1xqN4Chz+FxKEGkO6uR7qyGLtwYiBWjL1qCoF4Q/8BxJHQd/ZXlsmPQILEAWIQeCiHQUAP/+EmyoyRER2Qm/I56OFVrfm4YMnLRHxsjOwZJ5FACyHLtQaZrb1xHszQljAxnNTKc1YgJH/qi49EbmYioSIvbPeIlULcXRsje25jbCQuAhfRXlMFXPA5Kgk8jlEEIB9rDJ2Ckd6XsKMPSHuKWv6nKoQaQ49qNdGc1FBiJvZcSQLarFNmuPQjoI9AbmYgBfTSEkD/yZEQjfPu3GBYACzHCIfRX7kH69NmyoyTEwWHOcUh31smOMiQDsWKETD40S/GXqDf+wRHwaS3weVsQNfzojk5Fb3QihJD3I72/vJS7/lkMC4DF9NdUwTe2BFqa/TbQAYC20Fx4HQfgUKwxiUhAQ3uYb/+pxKN2INNVjjRnQ8Lf+AfDqQ4g370FOa5S9EQmoSc6GbrwJDVDrK8XgVru+W818seNaGgMAz2l22WnSBgDLrSETjbFkOZgdIePQdSGuxnShwn4HftQ5FuOYv+bSHfWmeLh/0GaEkKOexfG+l9GnnszHGrySnTv7h0Qwly/H/TJOAJgQeGWZoQPtMBdUCg7SkKEYiPQGZmFXLe5i05M+NAZnSY7BiWQpgaR4ahBprMyqQ/Uo6EqMWS5KpDpqkJ/dCy6ItMRMRJ3KmWodT/CB5oTdn1KHBYAi+rdvR15Z34GimKNN+Wh6opMh0drg9+xT3aUj9UemgMh7DchkwCv1opMVyX8jibTvekPlgID6c5apDvrMBAbhe7I1LgfwCWEgb7dO+J6TUoeFgCLivX1IlhbA1/JRNlREqY1dAqKvW/DpXXLjvIRA7FiLvuzGVWJIt158G3fpfbKjhNHAn5HE/yOJkSNdPRGJ6AvWhKX3QYD1VWI9ffFISPJwAJgYX3lu+EeNQqa28Lbhh6BIZxoDp2BYt+b0JSQ7DiH6MKDttCJsmNQnDiVfmS5KpDurIaqRGXHSSin2odc93bkuHYioBehNzoBA7FRAJQhX8sIBdHHA38sjQXAwoxoBH27tiPrhPmyoyRM1PCjOXgqRvneMc1Q7IHQiYgleZY1xZ9HO4AsVwX8WhMUxRzfW8miKMahUYGY8KIvWoKe6CTEDP+gr9GzcytE1N6Fye5YACwuuK8RnlFj4Bk5SnaUhAnpBWgLzUWBZ4PsKOiOTMVArFh2DBomBQbSnHXIcpXDrXbJjmMKDiWIbFcpspxlGNCL0RWZhrCee8T/JrS/CaFm887PocFhAbCB3p1b4MrLh+q07xn0vdGJUBFFrmeHtEODArEirvm3qP9MiMtx7YLDottNJ5qiGEhzNCDN0YCgPgKdkekIxkZ+5OtENIqeXdskJKR4YwGwAT0UQn/ZbmTMsvfDqTt6DAJGEUa418KtdSb13hEjAy3BUzCcz0pJLo/WjgL3eri0HtlRLMOrtWKUtxUhPQ9dkRnvzxM4qKd0B/f7twl7riFLQQN11Yh0tMuOkXARPRNNgXPQGZ4FgeScjBg1MrA/eBYM2HeExa78jn0Y5f03H/7D5NHaMdL7Lkb7X0eaowHhjjaE6mtkx6I4YQGwCyHQs2MThCFneDyZBFR0RmaiYeA8DOiJnfsQ0nPRFDgbMcOX0PtQ/Hm1VhR6V6XcBL9EcKtdGOFdi3DVhmEcbkxmxQJgI7G+PvTt2S07RtJEjTQ0B87A/sBZCBl5cb/+QKwY+4NnJX1fdTp6TrUPI70rpc0XsaP9dXkYaLXGbog0OJwDYDOB6gq48wvgHvHRyTt2FdALERgohF/bh0x3OXxay1Fdz4ALHaHZ6IlOjlNCSiYFOgq9q2y/pj+ZAqEs1K1J7rwbSjwWAJsRAHq2b0LemedAdbllx0mqAX0UBgKj4FK7kOGsQZqzHg5l8JOVdLjQF5mArsg0vvVbWL5nM5f4xZFhOFC2IgaDY/+2wwJgQ3oohJ7tm5E97xTZUaSIGNloD89Be/h4eNROeB0t8GjtcKq9cKoDh4aFDeFE1EhH2MhGIFaEgF4EQ+J56nT00p11yHDulR3DVurKshDo4CRKO+JPO5sKNe9DoK4GvnElsqNIpCBk5CIU+fCmJgKKIixz5DANjkMJIt+9SXYMW+nuzsW+bXz42xV/AtpY7+7tPKjjsBQ+/G0o37MeqhKRHcM2orofZcs46c/O+FPQxoQeQ/eWDSmxNJBSW5azEn7HftkxbENAQ/kaF2KhmOwolEAsADYX7e5E705u20n25VT7kOPm93g8NVbnoruhX3YMSjAWgBQQqK9BoL5WdgyiBBAo8KyHqvBNNV66u/NQv46rKFIBC0CK6N21FdEuruMle8lylcGrHZAdwzbC0XSUvc15Q6mCBSBFCF1H56Y1MMJh2VGI4sKhBpDrSp2dLxPNEA7sWSEQi3Dr5FTBApBCjGAQXVvWQwju6EHWl+/eCIW7/cWJgr3bstB/gC8IqYQFIMVE2lrRX863JrI2v2M//I59smPYxv6GArTu4Xr/VMMCkIIGKssQbKiTHYNoWBQYyHNvlh3DNrq681H9HucHpSIWgBR08LyAzQi3tcqOQjRkma4KOFVOVIuHYDgDe97qlR2DJGEBSFFCGOjauBaxXg77kXVoShg5nPgXF9GYD7vejMGIctJfqmIBSGEiFkXnhlUwwiHZUYgGJcu1h9v9xoEhXChdriHcx0mUqYwFIMXpgQA616+G0LmRCpmbqoSR5aySHcPyDGgoW5+GvgMs/qmOBYAQ7e5E9yYuDyRzy3aVcdnfUVNQuysXndWcQ0EsAPS+UOt+9O7cClYAMiNVCSPTWSk7huU17M3H/h3c5pcOYgGgQwJ11ejbxUNVyHyyXBVQ+fZ/VPY3jkD9ej786b9YAOh/DNRUob+iVHYMokM0RJDlqpAdw9LaWvJQvZJr/el/sQDQR/SVl2Kgqlx2DCIAQIarAio483+4OjryUbGMy33po1gA6LD69uzEQO1e2TEoxSlKDFkufvY/XF2d+djzZjfn9tBhsQDQYQkAvbu2IdBYJzsKpbBMZzU0hcvVhqOruwClb3SDT3/6OCwA9PGEQO+2TQjW18hOQilIgYEsZ5nsGJbU2V2A3a93gyt76UhYAOiIhBDo2b4ZA9UchqXkSnPWw6EOyI5hOV2d+Sh9vRsw+PSnI2MBoE8kAPTu3o7ePTtlR6GUIZDNPf+HrKM9H7vf4MOfBschOwBZx39WBmRMmyU5CdlduqMOLpWn1A1Fa/MIVL7DpX40eBwBoCEZqCpHz84t4IeLlCgKdOS4d8iOYSn7G/jwp6HjCAANWaC2GtANZB57AqAosuOQzWS7SuHkZ/+DpKC+Mh8NG/nwp6FjAaBhCTTUIhYMIGfuyVCcTtlxyCZcag+y3Xtkx7AEQziwd3s2Wku5vS8NDz8CoGGLtLWifdVy6MGA7ChkAwp0FHrXQIEuO4rpGYYLZWvS0FraLTsKWRgLAB2VWF8P2t97B9FuvoXQ0SnwrIdL5ffRJwnH0rD9bRc66/gxCR0dFgA6akYoiI7VKxBuaZYdhSwqz7MV6c462TFMbyCYg22vGBhoD8uOQjbAAkBxIfQYujau5vkBNEQCBZ6N3PFvEDo68rHjpX5EAzwWmeKDkwApboQQ6N25FbGuDmTMPgGKpsmORCamKSEUeNbB79gvO4qpCaGisSYP9ev48QjFFwsAxV2gsR7Rvh5kzT0FDp9fdhwyIZ9jP0a410NTg7KjmFpM96Bykw8de/nwp/jjRwCUENHubnSsXIZwW4vsKGQiDiWAEZ61KPKu4MP/EwTDGdj+pgMde/tkRyGb4ggAJYwRCaNr3Sr4J09D+pRp3DQohTmUILJc5ch0VXCZ3yC0t+WjYlkPDJ07blLisABQQgkh0F9RilhvD7KOnwvFwU2DUolT7UO2cw/SXbV88A+CLpyo252F/Tu4vp8SjwWAkiLU3IT25Z3InHMiXLn5suNQAinQ4XfsQ7qzFn7HPhw8T5I+SSiSgbJ3BfoP8OFPycECQEkTCwbQueZd+CZOQfoxM6AonIJiHwJerQ1pjgakO+ugKlynPhRtLfmoXMEhf0ouFgBKKiEEBqrKEWk/gOw5J0Hzp8mORMMm4NXakeZogN9ZD4fCSX1DFTM8qNrsQ3sl3/op+VgASIpoVyfa3v03MmbMhm9siew4NEgKdHi1A/A59iHd2QCND/1h6+nNQ9myfkQDnOVPcrAAkDQiFkXP9s2ItLUiY+bxUN1u2ZHoMFRE4Hfug9/RBL/WDEXhTnRHQxdO1O/Jwqmres0AAA0/SURBVL5tfOsnuVgASLrgvkaED7QiffoseMeWgIsFzcGtdSLTUYU0Zx1UJSY7ji30DeSifHkIoR4+/Ek+FgAyBSMaQc/2zQg11iPjuLlwcG6ANB5HK/JcO+DR2mRHsY2Y7kbtrjS07O6VHYXoEBYAMpVwRxvaV7yF9CnT4Zs4BQo3D0oat9qFXPd2+Lg3f1x1duejankfIgE+/MlcWADIdISuo3fPTgSbm5B57Fw4MzJlR7I1VQkjx7ULWa5KcM1+/IRjaaje7EDHXg73kzmxAJBpRbs60f7u2/AWj0XG9FlQ3R7ZkWxFUQxkOCuR494FDRHZcWzDEA60NuWgZnU3DJ37IZB5sQCQuQmBYGMdwi37kTZpKvwTJgMqNxA6Wl5HM/Ldm+FSOSwdT11d+di7OoBQD0/vI/NjASBLMKIR9O7ZiYGGWmTMmA3PiCLZkSzJqfQj17MNaY4G2VFsJRjOQPVGBV31HO4n62ABIEvR+/vQtX413IVFyJg+G460dNmRLEFRYshxliLLXcZDeeIoGvOhfo8PLTt7OHuCLIcFgCwp3LIfba3N8IwchfRps+Hw+2VHMi1NCWKkdyU8WofsKLahG260NGSgbn0PjFiP7DhEw8ICQNYlBEL7mxBu3g/vmHFImzIdmtcrO5WpaGoQo71vwaEOyI5iC4ZwoqUxG/XrexCLcLifrI0FgCxPCAOB+hoEGuvgGz0OaVNnQPNwxYACHSM9K/nwjwNdOHFgfw7q1/cgGuQEP7IHFgCyD+NgEQg2NcA3fiL8EydBc6fuiECeexuH/Y+SYbjQuj8Ldet7EQt1yo5DFFcsAGQ7Qo9hYG85Bmoq4R01BmmTpsKRniE7VlJ5tVZkuipkx7CsqO5Fa2MmGjZ1QQ/zjZ/siQWA7MswEGysQ6ixDs78EfBPmJQSywcVGMj3bJQdw5JCkQzsr3SiZUcvdMHRE7I3FgCyPQEg0taKSFsrnJlZ8E2YAm/xaCiKPTcUynBVcYOfIVHQO5CLpl0GOvb2AQjKDkSUFCwAlFKiPd3o2boB/WU74RtTAs/Y8XB4fbJjxY2iRJHjLJUdwxJihhsdrZlo2h5AoINL+Sj1sABQStKDQfRVlKKvcg9ceQXwj5sAT2GR5bcZznaWQ1P5BnskA8EstNY40bKzG7rOz/cpdbEAUGoT4tDHA6rTBU9RMfwTJsGRbr0TCFUljCxXmewYphTVvehsTTv4tt/JZZFEAAsA0SFGNHJwGWF9DRzZufCOGg3vqNFQPdZYSpjjKoWqRGXHMA1duNDdmYnWSh2dNX0Qghv3EH0QCwDRhwgA0a4ORLs60Fu6A66cXHiKRsNbVGzaMuBQgsh0VcqOIZ0QGvoGMtG6V0FrWR+Ezoc+0cdhASA6EiEQ6WhHpKMdfbu3w5mbD++o0XCPKDLVtsM57p0pe8iPbnjQ3Z2BjtoY2qr6YcT6ZEcisgQWAKJBEkIg0n4AkfYDALZA8/vhGTEKnsKRcObmQVE1Kbk0JYx0Z62Ue8sSiqSjp92Dtlod3XV9EIKT+YiGigWAaJj0gQEM1FRioKYSiuaAMycXnsIiuEeOSurSwjRnre3f/mOGG3296ejar6B9bz/CvSEAIdmxiCyNBYAoDoQeO7SaALu2QfN44MzJgys3H66cPDgzswBFSci9Mx17E3JdmWK6GwMD6ehtV9HVGEZPUwAQXKtPFE8sAEQJoIdC0Pc3/X979/Ib113Gcfj9nTM3x3ZshzRqSgMtFSBapF4kVNgBKwQ7VvwjSCDYskVCAv4GViBRLktYUSQkBIW2QhVtE2jjNG3q2Ek8nss5LNJCG/VmEs8Z532eXSx75uvI4/mMz8yZGL/674iIKP1+DE6djsGpj90Mgs2tKL3+bV/PSn05BvXxvmNs217sH6zF9av92H2tiSvnb8R4ZxYRx/v7gmUnAGAB2uk0Di5djINLF//7sXo0inp9I/rrG9Hb3Ir++snonTx5qOcSnOwfr0f/s/kwxgercWO3jutvRuxuT2Jv+0a0c6/Nh0UTANCR+Xgc8/H45mGDt5S6jt76yeivn4x6dS3qE6tRnViNsnEq+nX9rqMIVUxirXehg+UfrG3rmExXYjwexvh6L8Z7bVx7fRLXtvdjcqOJCM/Sh2UgAGCJtPN5THfejOnOu5/VfvlzX4zJxukY1CWGdRWDusTW8Gqs9s7FoJpEr5pEv0yjVx9EVSZRHcGTAuftMKbNMGbNIKbNMCbNIPbnK7E/G8W16UrsTkaxOxlGe2Uv7nn+jxFxcMc3AHeOAIBjoo2Ig3kbB/Obd+6v76/GCzuPvefn9qt5jOpp9OomemUeddVEHSV6ZRJVaaOqInplFhERTVQxm1fRtje/dhpVzJpeTJp+TGZ1TJo6ps1H/1Ux9AgfjgUBAHehaVPHtKkjnBkYeB/H+63PAID/iwAAgIQEAAAkJAAAICEBAAAJCQAASEgAAEBCAgAAEhIAAJCQAACAhAQAACQkAAAgIQEAAAkJAABISAAAQEICAAASEgAAkJAAAICEBAAAJCQAACAhAQAACQkAAEhIAABAQr2uB8Bx98ZnvhDTE+tHeh3zwfBIL/9OmqxvxfZjXz3S6+jt78Xpf/zpSK8D7nYCAG7TfDCK2ehE1zOWRlvVR/7/UZr5kV4+ZOAQAAAkJAAAICEBAAAJCQAASEgAAEBCAgAAEhIAAJCQAACAhJwI6BDm/WG0vX7XM1gybaWjF65UMVtZ63oFS6bMplFPD7qecWwIgEPYO/fZuHbmE13PgPSmK6ux/eiXu57Bkll77UJsvvhM1zOODQ9dACAhAQAACQkAAEhIAABAQgIAABLyKgBYAt96cBSfWq+7nrEQL+7N42cvjbueAekJAFgCD6zV8fBmjptj03a9AIhwCAAAUhIAAJCQAACAhAQAACQkAAAgIQEAAAkJAABISAAAQEICAAASEgAAkJAAAICEBAAAJCQAACAhAQAACQkAAEhIAABAQgIAABISAACQkAAAgIQEAAAkJAAAICEBAAAJCQAASEgAAEBCAgAAEhIAAJCQAACAhAQAACTU63oAELE3a2Nn0nY9YyH2Zjm+T1h2AgCWwE+ev9H1BCAZhwAAICEBAAAJCQAASEgAAEBCAgAAEvIqgENYvfRyjHZe63oGS2bnEw/HbHSi6xmp9A72Y/P8s13PYMnUB15NcxgC4BD613ejf3236xksmeq+T3c9IZ0yn8XoynbXM+BYcwgAABISAACQkAAAgIQEAAAkJAAAICEBAAAJCQAASEgAAEBCTgQEt6udR2nmXa9IpTSzrifAsScA4DadefYPXU8AODSHAAAgIQEAAAkJAABISAAAQEICAAASEgAAkJAAAICEBAAAJCQAACAhAQAACQkAAEhIAABAQgIAABISAACQkAAAgIQEAAAkJAAAICEBAAAJCQAASEgAAEBCAgAAEhIAAJBQr+sBH8U/L12OUkrXMwDgQzVN0/WEj+RYBMArV3a6ngAAdxWHAAAgIQEAAAkJAABISAAAQEICAAASEgAAkJAAAICEBAAAJCQAACAhAQAACQkAAEhIAABAQgIAABISAACQkAAAgIQEAAAkJAAAICEBAAAJCQAASEgAAEBCAgAAEhIAAJBQ+euF7efaEsPbuZA3d699fDZvbusyyKGNiKaZdT0Dlk5V9aJ0PYJjoVdXB1sn11653cspf/nX9n5EjO7AJvhQs9k8Xr96tesZsHROb25Er667nkEiDgEAQEICAAASEgAAkJAAAICEBAAAJCQAWKi26wEARIQAYMGqyiud4b1Uxa9jFstPHAtVl0oEwC3qqrhdsHACgMUqEaOBk0bCO7lN0AUBwMKtroyiFI92ICKilCpWV5yMlcUTACxcXVWxsbbqvOdQSmyurUZV+VXM4vmpoxOjwSA219f9JYC0qlLFqbW1GA76XU8hqV7XA8hrOOjHma2NuD6exMFkErP5PNrWCwW5e5VSol/XMRwMYmU0jEoA0yEBQKdKqWJtZRRrjoECLJRDAACQkAAAgIQEAAAkJAAAICEBAAAJCQAASEgAAEBCVUQ0XY8AABaqrSLictcrAICFulaViFe7XgEALNR21US83PUKAGCh/l6VUn7b9QoAYIHa+FXVTgdPRcS06y0AwELMm377VPX4g1s7UeLnXa8BABbil0+cPXu5iogos/huREw6HgQAHK1507Tfj3jrRECPPnDvS1HaH3e7CQA4Yj994pNnn4t4x5kAZ9v3ficift/VIgDg6JSIp1fHe99+x7//588XL95TZuXpEvHQ4qcBAEeixMv9afWlRx48s/32h971XgBPnD17eVJmT0bE7xY+DgC440rE07fe+Ue8x5sBPXn//W/0d9/4WpT2h+GJgQBwXE3biB+dGO995dY7/4hbDgHc6m8XLj00r9ofRBvfjIj+kU0EAO6UWYnyiybK9x4/d+aF9/ukDwyAtz1z/vxWU42+0Ub79RLx+TbivhKxHhGDOzYXADisaUTsRcQrUeLZiPKbfjv59SPnzl35sC/8Dw1uz8N7lIs2AAAAAElFTkSuQmCC;" vertex="1" parent="5hRMl-ogob8N2ftGV3x6-1">
          <mxGeometry x="-1370" y="-2170" width="690" height="690" as="geometry" />
        </mxCell>
        <mxCell id="vzekT2HtuLbiQsP1vmq4-2" value="" style="shape=image;verticalLabelPosition=bottom;labelBackgroundColor=default;verticalAlign=top;aspect=fixed;imageAspect=0;image=data:image/png,iVBORw0KGgoAAAANSUhEUgAAAgAAAAIACAYAAAD0eNT6AAAABHNCSVQICAgIfAhkiAAAAAlwSFlzAAALEwAACxMBAJqcGAAAABl0RVh0U29mdHdhcmUAd3d3Lmlua3NjYXBlLm9yZ5vuPBoAAAulSURBVHic7dlBi53lHYfh58w5ycwwYoIxWhVBCrWbLluK2IX72mW7KMW93Wh3DXRRt7VQaEEEG4uLfoDipmtX3UVEW2iCFgwKiUoXykzinHn7CUohIXmS3tf1BX7/xcx77nPe1cGFi8sAko4vvTPG8AiAop3ZBwAAd58AAIAgAQAAQQIAAIIEAAAECQAACBIAABAkAAAgSAAAQJAAAIAgAQAAQQIAAIIEAAAECQAACBIAABAkAAAgSAAAQJAAAIAgAQAAQQIAAIIEAAAECQAACBIAABAkAAAgSAAAQJAAAIAgAQAAQQIAAIIEAAAECQAACBIAABAkAAAgSAAAQJAAAIAgAQAAQQIAAIIEAAAECQAACBIAABAkAAAgSAAAQJAAAIAgAQAAQQIAAIIEAAAECQAACBIAABAkAAAgaDP7gNtx8vAyjl48mra//nBn7P55d9r+j5/6YPzue3+dtv/7f3x//Ob9H0zbhzvltV++OA7292afwT3uwh/eGp989sXsM27ZfR0AY2eMZX/e/LK7mjc+xtjd2Y6zp+cF0P7meNo23EkH+3vjAQHA/7Czc3//iH5/Xw8A3BIBAABBAgAAggQAAAQJAAAIEgAAECQAACBIAABAkAAAgCABAABBAgAAggQAAAQJAAAIEgAAECQAACBIAABAkAAAgCABAABBAgAAggQAAAQJAAAIEgAAECQAACBIAABAkAAAgCABAABBAgAAggQAAAStDi5cXGYfcctWYyx7E88/WY3VjXnzp3e242Bzc9r+0XYzDrenpu1z+44vvTPGuH8fAXfKwd7u2NlZzT6De9yXhzfGsty//z+b2QfclmWM1WH3n/TmyXrcvLk/+wz4v/PV0cSyh7vEKwAACBIAABAkAAAgSAAAQJAAAIAgAQAAQQIAAIIEAAAECQAACBIAABAkAAAgSAAAQJAAAIAgAQAAQQIAAIIEAAAECQAACBIAABAkAAAgSAAAQJAAAIAgAQAAQQIAAIIEAAAECQAACBIAABAkAAAgSAAAQJAAAIAgAQAAQQIAAIIEAAAECQAACBIAABAkAAAgSAAAQJAAAIAgAQAAQQIAAIIEAAAECQAACBIAABAkAAAgSAAAQJAAAIAgAQAAQQIAAII26/XO07PGl+ufPvz1tY//Mpbl3BiLGIG7bPuvv88+AXqWsR0744vVufM/Wp/5xvVZZ6xmDY8xxv7zLzxxcjyuzrwByo4vvzv7BMjarsaT48p70z4DfesGgCABAABBAgAAggQAAAQJAAAIEgAAECQAACBIAABAkAAAgCABAABBAgAAggQAAAQJAAAIEgAAECQAACBIAABAkAAAgCABAABBAgAAggQAAAQJAAAIEgAAECQAACBIAABAkAAAgCABAABBAgAAggQAAAQJAAAIEgAAECQAACBIAABAkAAAgCABAABBAgAAggQAAAQJAAAIEgAAECQAACBIAABAkAAAgCABAABBAgAAggQAAAQJAAAIEgAAECQAACBIAABAkAAAgCABAABBAgAAggQAAAQJAAAIEgAAECQAACBIAABAkAAAgCABAABBAgAAggQAAAQJAAAI2jz46z8+NGv85KPLZ5fPr8+aB9br2RdA15mzZ8YPf/rVrPnN9sbq81nj4/Gnx/rxp6fNQ91yvB1jLLPPgKTNGO+P7bx9rwAAIEgAAECQAACAIAEAAEECAACCBAAABAkAAAgSAAAQJAAAIEgAAECQAACAIAEAAEECAACCBAAABAkAAAgSAAAQJAAAIEgAAECQAACAIAEAAEECAACCBAAABAkAAAgSAAAQJAAAIEgAAECQAACAIAEAAEECAACCBAAABAkAAAgSAAAQJAAAIEgAAECQAACAIAEAAEECAACCBAAABAkAAAgSAAAQJAAAIEgAAECQAACAIAEAAEECAACCBAAABAkAAAgSAAAQtJl9wO04eWQZhy8fTdtfX1mPvTdPT9v/2TffG68/8/a0/Vc/eHa88u5z0/bhTnnrlV+MB/b3Zp/BPe6l374xrl77bPYZt8wvAAAQJAAAIEgAAECQAACAIAEAAEECAACCBAAABAkAAAgSAAAQJAAAIEgAAECQAACAIAEAAEECAACCBAAABAkAAAgSAAAQJAAAIEgAAECQAACAIAEAAEECAACCBAAABAkAAAgSAAAQJAAAIEgAAECQAACAIAEAAEGrgwsXl9lHAHMcX3pnjOERAEV+AQCAIAEAAEECAACCBAAABAkAAAgSAAAQJAAAIEgAAECQAACAIAEAAEECAACCBAAABAkAAAgSAAAQJAAAIEgAAECQAACAIAEAAEECAACCBAAABAkAAAgSAAAQJAAAIEgAAECQAACAIAEAAEECAACCBAAABAkAAAgSAAAQJAAAIEgAAECQAACAIAEAAEECAACCBAAABAkAAAgSAAAQJAAAIEgAAECQAACAIAEAAEECAACCBAAABAkAAAgSAAAQJAAAIEgAAEDQZr27nJs1fvLR5ceOP7/+/qx9qDv+8L3ZJ0DW9szZ74xHHvtk1v5q1vAYY+w//8ITJ8fj6swboOz48ruzT4Cs7Wo8Oa68N+0z0CsAAAgSAAAQJAAAIEgAAECQAACAIAEAAEECAACCBAAABAkAAAgSAAAQJAAAIEgAAECQAACAIAEAAEECAACCBAAABAkAAAgSAAAQJAAAIEgAAECQAACAIAEAAEECAACCBAAABAkAAAgSAAAQJAAAIEgAAECQAACAIAEAAEECAACCBAAABAkAAAgSAAAQJAAAIEgAAECQAACAIAEAAEECAACCBAAABAkAAAgSAAAQJAAAIEgAAECQAACAIAEAAEECAACCBAAABAkAAAgSAAAQJAAAIEgAAECQAACAIAEAAEECAACCBAAABAkAAAgSAAAQJAAAIEgAAECQAACAoM2Dv/rTt2aNL9c/ffjrax9fH8tyboxFjMBdtjq1O/sE6FnGduyML06dO//E+tvfPT3rjM12e/LPWePjoUfH+qFHp81D3XJ0NMZYZp8BNesxxvkxxt+W7fG0I3zrBoAgAQAAQQIAAIIEAAAECQAACBIAABAkAAAgSAAAQJAAAIAgAQAAQQIAAIIEAAAECQAACBIAABAkAAAgSAAAQJAAAIAgAQAAQQIAAIIEAAAECQAACBIAABAkAAAgSAAAQJAAAIAgAQAAQQIAAIIEAAAECQAACBIAABAkAAAgSAAAQJAAAIAgAQAAQQIAAIIEAAAECQAACBIAABAkAAAgSAAAQJAAAIAgAQAAQQIAAIIEAAAECQAACBIAABAkAAAgaDP7gNuyGmPZW+btn6zG6sa8+dM723GwuTlt/2i7GYfbU9P24U452NsdOzur2Wdwj/vy8MZYlomfQbfpvg6Ak/PLOHz5aNr++sp67L15etr+T576YLz+zNvT9l/94NnxyrvPTduHO+W1Cz8fD+zvzT6De9xLv31jXL322ewzbplXAAAQJAAAIEgAAECQAACAIAEAAEECAACCBAAABAkAAAgSAAAQJAAAIEgAAECQAACAIAEAAEECAACCBAAABAkAAAgSAAAQJAAAIEgAAECQAACAIAEAAEECAACCBAAABAkAAAgSAAAQJAAAIEgAAECQAACAoM3sA27LyRirw3nzqxvLvPExxo2T9fj3zb1p+4fH9/efD/w3Xx0ezT6B+8DJycnsE27L6uDCxbmfYsA0x5feGWN4BECRVwAAECQAACBIAABAkAAAgCABAABBAgAAggQAAAQJAAAIEgAAECQAACBIAABAkAAAgCABAABBAgAAggQAAAQJAAAIEgAAECQAACBIAABAkAAAgCABAABBAgAAggQAAAQJAAAIEgAAECQAACBIAABAkAAAgCABAABBAgAAggQAAAQJAAAIEgAAECQAACBIAABAkAAAgCABAABBAgAAggQAAAQJAAAIEgAAECQAACBIAABAkAAAgCABAABBAgAAggQAAAQJAAAI+g+1eOxkbVzMiwAAAABJRU5ErkJggg==;" vertex="1" parent="5hRMl-ogob8N2ftGV3x6-1">
          <mxGeometry x="740" y="-2170" width="740" height="740" as="geometry" />
        </mxCell>
        <mxCell id="vzekT2HtuLbiQsP1vmq4-3" value="" style="shape=image;verticalLabelPosition=bottom;labelBackgroundColor=default;verticalAlign=top;aspect=fixed;imageAspect=0;image=data:image/png,iVBORw0KGgoAAAANSUhEUgAAAgAAAAIACAYAAAD0eNT6AAAACXBIWXMAATr1AAE69QGXCHZXAAAAGXRFWHRTb2Z0d2FyZQB3d3cuaW5rc2NhcGUub3Jnm+48GgAAIABJREFUeJzs3Xt4lNW1P/Dv2u9kkqByEVRUbipeaVGMZBJEHQVmEiCZBDu9WEXbKp5fW217erHtOa2xtRetvdoej9Z6t62OSC5AMiHUWIVkghHFK1YUBBQtKgSEzGRmr98fxB60IoS8+33fmVmf5/F5fHxkrcVMMnvNfvcFEEIIIYQQQgghhBBCCCGEEEIIIYQQQgghhBBCCCGEEEIIIYQQQgghhBBCCCGEEEIIIYQQQgghhBBCCCGEEEIIIYQQQgghhBBCCCGEEEIIIYQQQgghhBBCCCGEEEIIIYQQQgghhBBCCCGEEEIIIYQQQgghhBBCCCGEEEIIIYQQQgghhBBCCCGEEEIIIYQQQgghhBBCCCGEEEIIIYQQQggh9o/cLkAIMTjT58wZ0ddXcDwDY0nxMQQ6kjWPBuEoEA0F8zAGhgM8lEC+/j82HP/3+88Atu35F04D1EPANhBtJ83bGXiLFG2BxptMmdcJ2NibtF55qr1+mxt/XyGEPaQBECILRKNRa1NP8rgMq0+A+DRifBKEEwEcD2CES2W9A8IrYP4HCM+A+XlLWc+uDJzxKurqtEs1CSEOkDQAQnhQycyqcQWWVcbEU8EoBXAmgEPdrusA7WDmJwnUBaBLA4lVrQ0b3S5KCPFB0gAI4QFlFTUTAAQBBJn5PAAT3KzHgFcBPMrM7RnNj3S3Nb3mdkFC5DtpAIRwQTAY9O0uGlHGrOcSMBNAids1OYr4FQBtpGnxCCvV2tzcnHS7JCHyjTQAQjgkGAwW9fqHzWJCFEAEwFC3a/KIXQT+mwbFhiT9D7e3x3a6XZAQ+UAaACEMKilZUFAw8s0KTXwxgeYCGOJ2TR73HhhNTHzfkGRPvL29Pe12QULkKmkAhDBg6qyaM5TCZQB/DsCRbteTpd4kwp8ZfFeipXGN28UIkWukARDCJpWVlYVvc0E1MS3Anuf6wj7dYLotXZi5r7upaZfbxQiRC6QBEGKQyufOPZb71NUM+hKAkW7Xk+O2gnB7mq3fdccffsPtYoTIZtIACHGQymdHPqk1fxVM8wEUuV1PnkkBeCDD6sYnWhc963YxQmQjaQCEGKBAqKaEFV9LjLmQ3yG3MUCNSunrOpobV7tdjBDZRD68hDhApbOqz4JFP5SB35OkERBigORDTIj9mDZ73vhMJvNjABdDfme8jgn0EEF/vyPe+LLbxQjhZfJhJsQ+nFMZPaJP9/2QwVcCKHC7HjEgKYBuSfsz13c3NW11uxghvMhyuwAhPKeuTpUWDrtEc6YJe87nl9+T7GMBKFMZWjBm4sm9J449unv9+vVyQ6EQe5EZACH2MjVUfa4iuhnAZLdrEXbipxl0VVe84TG3KxHCK6QBEALAGcGa4YVF+gYwXQH5vchZBIrpNP2/ruWL3na7FiHcJlObIu+VhSJVloWlAJ0PGfxz3SRSfOmxE095a/O6tU+7XYwQbpIPO5G3ysPRwzVStwG40O1ahAsIDyn2X9kRj73jdilCuEEaAJGXyipqgsx8L4AxbtciXLVRKXVJR/OiR90uRAinSQMg8kowGPT1Fg67joFrkPuPwDQYb4DoTYD7AOwgcC+gdjOwA8x9RLydCcPB5CfQIcx8CAh+EIaDuQCgowCMdvsvYlgGTD8rTm27Tq4fFvlEGgCRN6bOvPB4pdL3g1Dmdi022gZgNUCvAryBgfWK6DWtMxsybx+9qbv7tr7BJggGg0U7i4aOtzTGEdF4Bo8DaDyAEwGcDmDIYHN4AQMrFdHnO1vq17tdixBOkAZA5IXSiuooMd0GYLjbtQzCDhDWQKObCd0M3b2qvOQF1NW5tr89Go1a63t6TyGoEmKUQKEEjCnI3qagB8RfSbQ03ud2IUKYJg2AyGmVlZWFb2v/7wm43O1aDsIuAI8AaM4Qtz3R0vgSAHa5pv3a85jlsMnMKgRCJYBpAHxu1zUQBPzvjqH+rz0Xi6XcrkUIU6QBEDnrnMroEclMMkZE57ldywEjfgVAGwNtQ3oLm9vbYzvdLmmwJodChwxB8QWseC6YKgGMdbumA0JYoVXfp1YtXbrF7VKEMEEaAJGTysM1pRq8CMAxbtdyAF4GcK+l6P6VzfXr3C7GMAqEas4E4RKGvohAR7hd0H5sBFNtorW+2+1ChLCbNAAi55SGamqI+H54+zl0D4AGAu7pjDcsRxZM7dstGo1aG3tS5zMwH4xPgVDsdk378B4RX9TZ0tjodiFC2EkaAJFTAuHqrwH0KwDK7Vr2oY2J7rAOK6jviMV2u12MV5TOqB2pLL6IiS+HN+9hyDD4613xxt+7XYgQdpEGQOQKKg3X3ETg/3S7kI+QASOmLL6xo7lxtdvFeByVhWoqNPQ1nly7Qbgp0dLwHeThjI3IPdIAiFxApRWR3xLjKrcL2RsDSQIeZEtd37V00Utu15Ntyiurp2hN3wBwEbx1aNO9xcntX5RDg0S2kwZAZLVoNGq91pO6HcBlbteyl+1gutlvFfzusebYP90uJtudVVF9ssXqOwDPh1e2ExIe2nmY//OyTVBkM2kARNYKBoO+3YVD7wHoc27X0i/N4D8WqsJrZeC3X9nM2lNZ6ZtAmO12LQDAQMuQ5Pba9vb2XrdrEeJgSAMgstKkaNR/aE/qz/DOTX5tysJ/dixteMbtQnLd1IqaGYr1LwE63e1aQGgt7t0ekSZAZCNpAETW6R/8HwBQ43YtAF5g8Le74o1L3C4kr9TVqdKO1RcTcAPcv6woXpzcXiNNgMg20gCIrFJSsqDAN/LNeg9MA+9k8PfGDy28JRaLZVyuJW+dXV19WLqXrgfhq3Bx6ycTmob0bp8nCwNFNpEGQGSPujoVWLn6fhA+62odhBXIZL6QWLb4H67WIf6lPBSZpgl3AjjJrRqYcH9X2ZT5bl7OJMRAeGlrjRAfK1A49Fcgcu9SH8ZuIvwgUT7lis133Pa2a3WIf7Np3dqN486c/CedzPhoz+VDjn+5IWDymE1bRm1et3ap07mFOBgyAyCyQiAc+SGA61ws4e+Woi/mwVn9Wa+soibIzHcAOM6VAoi/n2hp/JkruYUYAJkBEJ5XFqr+PIh+B3ca1jSDvtdVPuXKjbf/7zsu5BcDtOnlF9efOHbyn9JWehyIXDhWmC4Yc8LJazevW/us87mFOHAyAyA8LVBRO51ZtxFQ6EL6rQR8rjPe0OZCbmGDQKhmAYhvBuB3OHUvaZ7ZuaxxhcN5hThg0gAIz5pWWXNCRnMCwEgX0ndpxqdWtTZsdCG3sFGgonY6WD8I4GiHU29l1qVdrU2vOpxXiAPi1RvTRJ4LBqOHZjK8CO4M/veqof6gDP65IdGy6HG/8p8O4BGHU48iUvWTQ6FDHM4rxAGRBkB4EfUW9t0BwicdzpsC85cS8Yb5clVvbnmsOfbP9NajwgD+4HDqycUovh0y2yo8SBYBCs8JhCLfBeFqh9PuBHMk0dq40OG8wiFvvNGtN69bu3TMCackQZgBpwZlwifGnHDKzs3r1q50JJ8QB0i6UuEppeHIOQT8Dc7e+vYuk5rT1bKow8GcwkWl4ch8Av4E537O0qQ5KIsChZdIAyA8Y/qcOSP60r7VAMY7mPYNZSEsl/jkn0C4KgKovwIocijlJk6rM7qWL5JDpIQnyBoA4RXUly64E84O/i+mM7pMBv/8lIg3NRBRJYAeh1KOIZ++G/LFS3iENADCE8pCNV8FOOJcRnoy7dfndLc1veZcTuE1nS317ax5BgCnDnmaEwhHvuxQLiE+lnSiwnVnVVSfbDE9CWCIMxnpH0jrcxLLG990Jp/wuvJwTakGLwdwqAPpdrGlpnQtXfSSA7mE2CeZARCuCgaDPovpbjg2+GOjZalZMviLvXXE67uYdQRArwPphlBG3xWNRmUXlnCVNADCVb3+YdcACDiU7k3ozIyVSx/e4FA+kUW6Wpv+RsSfB5BxIF35xp7UtxzII8Q+ySMA4ZrS2bUnUUY/DWdWYW8n6As6401POpBLZLFAuOYSgO+C4S9IDCQt1md0tDa9aDKPEPsiMwDCLYR05jY4M/jvIs1zZPAXByIRr7+XGca/nRNQqJX1B8gXMeESeQYlXFEWjlwOoqscSMXEmN+5rLHZgVwiR2xet7Zz7MRTRgM4y3Cq48ZMPGXD5nVrnzKcR4h/IzMAwnElVVWjGLjBkWSEX3a2NjzgSC6RU3YM9X+NASeO7/1F6YxaNy69EnlOGgDhOF9SXQ/gcNN5CFhe3Lv9e6bziNz0XCyWYqvvQjA2G041knz6OsM5hPg38uxJOKq8snqK1rQK5h8/bfAr/9THmmP/NJxH5LhAZVUZa9VOQKHBNBmGKumKL3raYA4hPkBmAISTSGv6LUwP/ozdSnGtDP7CDonmpk4QvmY4jUXQvzGcQ4gPkEWAwjGloZoaInzHdB4mXJ5oaYybziPyx+aX13aPmXjqOABTDKaZMPaEU57ctG6tnBAoHCEzAMIR0WjUIuKfOJCqvivecI8DeUSe2c27rgbwstEkhJ/KCYHCKdIACEds2NF3GYDTTOZg8D8tVleazCHy15rW1vdI82UweFIgA5/YsD15san4QuxNOk1hXDAYLEpbhQsBDDOaiNXFna313UZziLy26ZW1G8dMPHkEQGWmchDRlMknHX/Lyy+/7MSRxCKPyQyAMG530bAvAhhrOM09Xa319YZzCIHDVd93ATxnMMX4dzKFlxqMLwQAaQCEYSUlCwrA+LbhNK8X+NJfN5xDCABAc3NzEkyXAugzlYOI/2tSNOo3FV8IQBoAYVjBqDcvBTDBZA5iuvzxJUveNZlDiL0lWuu7QfilqfgMjDu0J/V5U/GFAKQBEAZFo1FLA981nKaxs7VezvkXjtutd18PYJO5DPQ91NXJZ7QwRn64hDGv9fTVEHCCwRR9bCnTjxeE+EhrWlvfA+j75jLwiaUrn6o2F1/kO2kAhDnE3zAanvD7rqWL5NAU4ZpEvP4+EFaYik+Gf4dEfvO5XYDwnpKqqiEqqUZC+woUJS2QbygAsCI/aU4BAPtoB6dU2k99vTuod/ueb0P/p3RW9VlgnG2wzLd9VvrHBuMLcSCYob5N0Ctg5m6Vc0tnVZ/Vtazxiff/Q8nM6DBL9R5u+dShOk3/WijIrEkBhUyqd89/SPdoLsxApft8w/xbO2Kx3QbqE1lMLgPKI9Fo1Nr8XmYMM0/IZDITlFLHAZjAzMcCGAVgJBijQCg+iPC7QLyFmbYQ8BYD48ngsanEdHVna/3NpuILMRBl4cj9DFxkJjo/DaI3mXECAeNx8F/cdgF4e88/9E8ivK61fhXAegZe1ZrXHz+iaHMsFpPzB/KENAA56oxgzXC/P3MmEX0SUJNBPBkakw5ycPeaF9Nbj5rc3X2bsW1YQgzE1FBkrCK8CGCI27UM0i4CPQfWa5jwDIA1yaRa/VR7/Ta3CxP2kwYgRwRmzT2RSU0jorMBTMOeY3dz8/1lRBOtDQ+5XYYQewtURH4BxrfcrsMADeAFEK9gphUWeGVHvNHsnQjCEbk5QOSByaHQIUNQfAErngumSpg/ac8TGFg3fqj/ZJmmFF4zdfbs0SpT8CqAIrdrccBbBHpUgxf7fekmOYcjO0kDkEVKQ1XHgawoQVf1n0Wed4s4CbiiM95wu9t1CPFRAhXVt4Jpgdt1OCwNoIOJm3zK9+DKpQ9vcLsgcWCkAfC4Pc8WeR6IomBMQ36/Z1uKk9uPa29v73W7ECE+ytSZFx6vrPRa5GFzvpfniSimCPeubK5f53YxYt/yeTDxrGAwWLSrcNg8Aq4AcB7kfdqD8e1Ea8NNbpchxMcJhCJ/AeGzbtfhAQyiR6D1Hw+3+hY1Nzcn3S5IfJAMLB4SqIycBs1XAHQJgJFu1+Mx7/oKefyKxsYdbhcixMcpDdeeTtCrIZ+ve9vKoHtUhm7vbFv0gtvFiD3kB9R9FJhVMwsWfxOMWZD35KMxXZ9orf+B22UIcSACocgSEGa7XYcHMQNxBfyyM97Q5nYx+U4GG5dMikb9h+xIRhSrbzN4qtv1eFxaFWQmdCxevNntQoQ4EKWh2rlEusntOjxuDZj+UJzado+s63GHNAAOKylZUGCNevNzRHwtmI53u54sUZ+IN9S6XYQQByoYDPp2Fw7bAOAYt2vJAhsB/uXhqu9/ZZ2Asyy3C8gbdXWqtGjop6whuxYS8CWARrhdUtYgfHPzy2v/4XYZQhyo9evX62MnnnIkAdPdriULDAOoYjdbF4854dTdJ44d/fT69eu120XlA7kN0AFlFdXVgY7VzxPTgwCf6HY9WWbTuMP8cbeLEGKgNPGdbteQZSaA+NbdhcPWlIar57hdTD6QRwAGlYeqTtFQv5TFQIPA+EWiteE7bpchxMEoDUdW0J6jucUAEbCcLHyjY2nDM27Xkqvy+bAKY0pn1I4kS/9IExZAXuNBIdJ/dbsGIQ4a0R1glgbgIDAwgzN4srQicovfSl8rxw3bTx4B2KwsFKkin14Dwpchg/9gvdgZb3rS7SKEOFhDegseALDT7TqymI8YV/WlfS+UhiPz3S4m10gDYJOS8LyjA+GahUxohKz8tQnd6nYFQgxGe3tsJxj3u11HDjiKgLsD4cjiqaFIXlx85gRpAGxQWhG50ofMiwDPc7uWHLINKnmH20UIMVik1W8ByO2V9pijCM+UhSOXu11ILpBFgINwTmX0iJTu+yPAEbdryTXMfFlXa+PdbtchhB1Kw5GfE3CN23XkmPq0X1/R3dS01e1CspXMAByk8nB1RUqn1sjgb8RdMviLXDJSpa4F8JjbdeSYGl9KPR0IVc9yu5BsJQcBDVBJyYKC8aePuYlBNwM4zO16cg0x/2ncsMIFzz//PLtdixB2efnllzMnjp0cSxfoMgDHuV1PDjkMRBePnXjykIljj26XA4QGRh4BDMDU2bNHq0zBAwDOdbsWm2kw3gDxq4B6C6S3EtNWzdhKoPdYIQPonr3/gGIaxkyKiEeAcBRrPgJEowEaD/AEAAUDrGErMX+9s7VRFkyJnBWNRq2NPalvMfBDAEMG+MdTAF4FsB7AWwC/Bag3wNgB6DQrfOCmTNKq/7RRHkrERzDUKAAjAR4NYAKAowb3t/GcRyxWn13ZuugttwvJFtIAHKDyUGSaJsSQ3Sv8+wB+HoxnWGENQGsok3nlcF/mNTvP4A4Gg75U8fDxaeaJinGGBp9JUFMAnoi9fuYYSIK5kxQ9mC7Qd3U3Ne2yqwYhvKykqmpUQVJdCaIIg8/EB2dj0wDWgnk1SD0F1mtIqX+MPaxgYywWs20xYUlV1RBfWk3gDJ2klP4EWE1m8OkATkD2zg5vIsanOlsbEm4Xkg2kATgAgVDNAhDfDMDvdi0D9DaAFQxaobReMcLX94Sbl20Eg8GiVPHwYzMZDGdk3hlppV+Xyz9EvpscCh1SzP5jQL6haZ35Z++Ioi3PxWIpt+o5u7r6sHQvykips5n5bABlAA51q56BYiAJoq90tdT/ye1avE4agI9HZRU11zLztW4XcoA0gNUMtCmgrSi5vb29vT3tdlFCiOwVDAZ9u4tGlDHruQTMBHAmsmHsYPwuMW3KN1BXJ+sC9sH7b6JLKisrC9/RBXcC9Dm3a9kPDUIHmGNp+B7sjj/8htsFCSFyV8nMqnE+i2pBFAXjbLfr2Y+Faqj/ko5YbLfbhXiRNAAfoaSqapQvpRoBlLtdy8dYC8btPuY/r1jW+LrbxQgh8s9ZFdUn+5jmM/AFAEe7Xc9H48cVCiMd8dg7blfiNdIAfEhJeN7RPmSWAZjkdi0fIUXAQyD6Y2dL/aMAZKucEMJ1wWDQt8s/fC6RXgBQGF47Y4bxjPb1hVYtXbrF7VK8RBqAveyZ2rLaAD7R7Vo+pAeMu2BZv0g0P7zJ7WKEEGJfplXWnJDJ8NUgXI6Bb3U06VVmPaOrtelVtwvxCmkA+pWHqydqUBuA8W7XspctAN1QnCy4vb09JjeKCSGyRmBG9VHko6sZuAreOTRtvaVo5srm+nVuF+IF0gCgv2PV/Hd4Z4//Via+MVPAf5C98UKIbFZSVTXK16euAePL8MKMAGOzZdF50gRIA9A/7a/+Di9882fsBvFNvkL8YkVj4479/wEhhMgO/eurrgPwJbi/RmC9Zpy7qrVho8t1uCqvG4BpodojM6QfBXCK27UQeLFmvlqeTwkhclnZzNpT2dK/BhB2txL6RxrqvHzeOp23DUDpjNqR5NOPwv3V/i8wcGVXvEFuChNC5I2yUOQzTPgt3L2TYI2C//x83SLo9jSMK4LBYBEV6Aa4O/inGbihOLn9TBn8hRD5prO14YFkkk4B8W1wb0vzZI1UfWVlZaFL+V2VjzMAFAhH/gLgM+6VwE+DMD/R0rjGvRqEEMIbysKRmQzcAWCsG/kJ+HNnvOFi5NnZKtl649NBKw1Hfk7AlS6lZzBuPtzq+0x7yxI5vU8IIQBsWrf2ldHHTb6DrMxYAia7UMInx5xwqrV53YuPuJDbNXk1A1AWjlzOwB9dSv+6Jpq/qqV+uUv5hRDC88oqai5j5pvhwg2ERPSFzpb6u5zO65a8aQDKQpGAJjxKgAvPevjxNHyfzufVpkIIcaDOqqg+2WJ6GMBpTuZlIMmkz1nV0rTKybxuyYtFgNNCtUcy4SFXBn/i29JbR18gg78QQhyYJ1oa1/oKuQzAQifzElCoWC08pzJ6hJN53ZLzMwDBYNC3u3DYMgBBh1OniOjKfJpOEkIIm1EgVPMjEP+3w3nbxg31V8RisYzDeR2V8zMAvYVDfwLnB/9tmmi2DP5CCDEonGit/wGYvwSgz8G8Mzf2pH7kYD5X5PQMwNSKmhmKuRXONjobNPScVfGm5xzMKYQQOa1/q+BCAEMdSqmVUhd0NC961KF8jsvZBmD6nDkj0mnfUwyMczCtXDcphBCGlIWrzmSoOIBRDqXcpOA/PVdPCszZRwCptPW/Dg/+L/g0T5fBXwghzOiMNz1JGXUuAKfOURmjkbrNoVyOy8kGIBCOfIFAn3Yw5VNpvz53xbJGOdxHCCEM6mxb9AJb6nwwNjuU8sJAuOYSh3I5KuceAUydPXu0yhQ8D2CEQylfQprPTSxvfNOhfEIIkfdKZ9eeRBn9KIDRDqR7B2k+Ldc+53NuBkBl/H+AQ4M/A+t8ms/PtR8KIYTwuq6li14CcRiAE8/nD4dFv3Egj6NyagagrKJ6HjM5dXDE65ZlTVu59OENDuUTQgjxIYHKqjJotRzAENO5mFVVV+uixabzOCVnGoCSmdFhPiv1PIBjHEi3Uyk+t6O5cbUDuYQQQnyM0opILTEegvlZ7Y2+Qp60orFxh+E8jsiZRwAFvtS1cGbwzwD6Yhn8hRDCG7paGhYR8bcdSDW2L0n/5UAeR+TEDED/YpBnAPhN52LwVV3xxt+bziOEEGJgSsPV/0Og/2cyBwNJn6JJK5vr15nM44ScmAGgjP4VHBj8wXyfDP5CCOFNma2jvwbgMZM5CCjUGf6FyRxOyfoGYGpFzQwAc8xn4qfThXyl+TxCCCEORnf3bX3a6vs0DB8UxITawKyakMkcTsjuBqCuTinmXzmQaRuRquluatrlQC4hhBAHadXSpVuUUhcBMHuTn8LPkOWP0S23CxiMMv+wT4PwFdN5mOiLiZb6x03nEUIIMXibXn5xw5gTTi0A4VyDaY4+9sRTnt788toXDeYwKmtnAKLRqMWEax1IdU9XS/1fHMgjhBDCJsWpbdcB6DCZgxg/Rl1d1o6jWVv4az19FwE41XCaV6FSVxnOIYQQwmbt7e1pS9ElAHYaTDMpsPJJJ++dsVVWPr+IRqPWaz2pFwFMNJiGNdGsVS31yw3mEGLQysPRw9PoPRpkjSbowxVjODMNA2gYKx5GjGEEKmZiAmP4v/4goRiMIgC7ACT7/5smpu0AwOCdAG8HqIeIt4OpRxNvt8h6i/vwFhf0bk40N/e48XcW4kCVhWquYuLfGUzxYqJ8yiTU1WmDOYzIygagtKI6SkwPms1CdyTi9V8ym0OI/airUyWPd4+xFCYqohMATGSi45lxDO05+Go0gCIXK9wF4HWAt4BpExPWEbBOM6/z+fW6jsWLnbqxTYiPVlenSjtWP0bANFMpmKm2q7W+3lR8U7KyAQiEI50AAgZTbCnwpU97fMmSdw3mEGJvNHXmhceRykxWSn8CrCYz+BMMHE9AodvFDUIvgJcAfg5MaxjqWZ+PnpE7NISTApWR01jjSWO/S4QViZaG6UZiG5R1DUDZrOqzWZHRFfnEfHFna+P9JnOI/FYaqjoOyiojzWUgTAXwSQCHul2Xg7YDWANwF5g6YVmdieaHN7ldlMhdZeHITxj4vrEESpcnmps6jcU3wOd2AQNG9E3DGTo6Wxv/bDiHyCPBYNC3u/iws5BRQRDKsWf26igwZ2ELbpthAM4B6BwQAJ1BIBTZDEInEa8Ec3tneclT2fhcVXhTUdL/s92Fqctg6s4Yrb4F4FNGYhuSVR8/ZRU1E5h5HcztXmAFKuuI13cZii/yA5WGayeD9QWK+AIGnQtgqNtFZaF3AGpn6EdI0d8SzQ3Pu12QyG6l4ch8Au42FD6Tzujju9uaXjMU33ZZ1QAEQjU/BvF/G0vAfF+itfESY/FFzgoGo4fuLuwLAzyXwXMIdITbNeUcxmYoXkKaFtMwf1tHLLbb7ZJE1qGycE2CwVONBCe6rrOlvs5EbBOypgEIBoO+3f5h60E41lCKPp3xnbKqbeErhuKLHDM1FBmrFKrAqGYgmOWL9bILYzcRL2dWTWlSTd3xh99wuySRHQKzakJQHDcUfuO4of7jYrGY2WOIbZI1DUAgXBUBlLltFoxbE60N/2EsvsgJpTNqR5LFF0LxfDCmIYt+h3KYBqEDzDFtpR9YtXTpFrcLEt5WGqpuJ6LzjAQnzEm0NCw1EttmWbMIkECXs6HYDCQZ+Imh8CLLlYejh2coFSXGZwAswC/gAAAgAElEQVR9LgALpn4YxcFQYJwN0NkqU3BTIBxZDuABqNRCOahIfBTLsq7VWrcbCc64AkBWNABZ8e3lnMroESmdeh2mGhb59i8+rK5OBVY+OQOgLzKhVqb3s9IuAA9p5j+tam18DJC2TfyfQDjyKGDksqBUgS89OhvOkcmKGYBUpq8WZKxWzT7lxJXCIguUzKwaZyn6AnWsvgxEE4As6ZLFRxkCYL4imh8I1/wDpO/0ZXD3imWNRu+KF9mBGDexmdsC/X19Vi2AOwzEtlVWfLYFKmqWg/kCQ+HrE/GGWkOxRZYIVNROJ+arGVyLLGmMxUHRBF4K0G874w1tbhcjXEWBcORZAKfZHxmtiZaGsO1xbeb5BiAwo/oo+GgzAMtEfAbO7Yo3PGYitvC2kqqqIb6kdTERX8XAJ9yuRziNnmTWvxtp9f21ubk56XY1wnll4cjlDPzRQOh02q+P7m5q2mogtm08fx0wWWoeDA3+YDwjg3/+mRaqPTIQqvmpL6U2gvhWGfzzFZ9JRHe9o/2vBcKRH5aHo4e7XZFwVp9f/xnANgOhfb6kNc9AXFt5vgFg0lXmYvNtpmIL7ymZWTUuEIr8NkP6VRB/D4B84AsAOBLAdRqpDYFQ5LeBynlj3C5IOKO7qWkXGGaOfieeYySujTz9CCAYDBbtLhz2NvYs5rEXY3cyRcc81V5vovsTHlI6u/YkyvA1AF8MwO92PcLbGEgS4y6tfTfKwWC5rzRcezpBP2Ug9M7DVWqUlx8veXoGYFfRsPNgYvAHAMJDMvjntrKKmgmBcOROyujnAf4iZPAXB4CAQhCuVFb6xUBF9a0yI5DbuuKLngbhCQOhD93KhZ6+ItjTDQAxV5iKrcBy41+OOqcyekRpOPJzZn4BwGUwtYZE5LoCMC2AzqwLVFTfOnX27NFuFyTMIPBfTMRVMDeG2cHTDQBApl68d1JbRy83FFu4ZPqcOSPKwtU3pHRqPQHXAChyuyaRE/xgWqAyBf8IhGp+fHZ19WFuFyTsldEUg4GDoojh6QbAs2sApoVqj8yQftNQ+D8m4g0LDMUWTqurU6Udqy8m4BfYs6BLCJO2Anz9uKGFv8+WS1/E/gUqIo/vOVLaVpz26yO9uh3QsweepMHTTHUnCvywodDCYYFQ9Sx0rP41gElu1+IR7xKwmYEtBHqXwdsI/C4TtpFWOxnYsyBJ6V3v/zsBhdBqyPv/zkofCk0jQBhOoOEMHkHAaAaOBTDCvb+aZ4wC6DcbelKXllfWfqOjedGjbhckbMD0EMB2NwBUkFTlAJpsjmsLzzYApPhsQyd37ypM9rQbiSwcUx6unpgh+hUYxraJehED6xT4BYA2gXiz1tjISm3y6czmVCFe625q2mUyf0lV1ZCC3b7xGR8fQ1qPIVLjCHwMwGM06FQCTjCZ30sImKK1bg+EIwsty/rmyqUPb3C7JnHwMqSbLaZf2x1XE86GRxsAzz4CCIQjKwGUGwi9JBFvmGsgrnBAScmCAt+oLV8G6CcADnG7Hoe9mUzSKV7dvTJ9zpwRfWnfSwBGuV2LC3YR0S92HFbw0+disZTbxYiDUxqOvGx/E8uPJ+KN59gb0x6eXARYWVlZyMCZJmIzuMVEXGFeeWXteb5Rbz4N0G+Qf4M/APq2Vwd/AHh8yZJ3QbjW7TpcMoSZrz20J9kVqKwqc7sYcXCIETcQ9axJ0agntyB7sgHYhoLTTF2/qgnLTMQV5pTOqB0ZCEfu0Fo/AuBUt+txyd8T8fr73C5if4p7t99GwLNu1+EeOh1arSgLR24pmRkd5nY1YmAYZGJ8KDqkJ+3Jzy1PNgDM6nRDobc+0dL4kqHYwoCyUE0lWfppAF+Ahx9ZGaYJ+hvIgvvs29vb05r119yuw2WKgf/wWakXykKRvFqjku0yhZnHYWI7IGU+aXdMO3iyAdAMUy+WkTdX2K9kZnRYoKL6ViZeCsKxbtfjsvs6401Pul3EgepqbfobQA1u1+EBRzOhMRCO3CNnB2SH/u16a+2OS+bGtEHxZANA4MlGAjNWGIkrbBWYVRPyWalnwCRnNQC96Yz+gdtFDJTOWP/5ry2H4pJ0kp6ZWlEzw+1CxP4Rs+3jhAaZGdMGyZMNAGCmW2JCwkRcYY9gMFgUCEd+D8UtAMa6Xc8BehvAdlPBGfQ/3W1Nr5mKb8qqtoWvEPgWgym2Y89rny3GK+ZlgXD1TV5dECb6EXXaHlJmAA5M/1TZUQZCcypJzxiIK2xQHqo6ZXfhsA4AX4H3n/VrAG0MXMqspwIoNpGEgWSB1r80EdsJ2krfAKDXUPhizZhCjGoCxQCkDeWxEwH0zUN7UisDs+ae6HYx4qMRaI2BoMdODoU8t3PJcw1AX9I63lDoDV7eQpXPSsOR+ZrUEwDOcLuW/djEwA3MemIi3jCrK95wj4K6CIZuGSTGn1Ysa3zdRGwnrFq6dAsYdxsK71eKL+5sbWjqjNd/WhVkJhDwXRBnw/W9JVBWdyBcc4nbhYh/l/JnnsWeJt9WxVbxeLtjDpbnGgBFGSMvEhPk27/HBCorhwYqIjEC7oaX9/UT/Y1ZVSXKp4zvijd8t6u16VUAiEajFhOuMJS1z/JZNxqK7RiGvgGmvp0zLUBdnQKAjsWLN3fGG25IlJ15IhFHADxiJKd9DgP4nkA4cndJVZWZK8/FQdlzmiatszsuaz7O7piD5bkGAKAJRqICz5mIKw7O1HDVJGj/KjA+5XYtH4WBJBHdzVBnJFrqZ3S1LlqMuroPfCvYuD01G4Cprv7+XDhatr9ZMnX19oTSjicrP/Bf6up0Z0tjYyLecIHWNAXAPQC8fDLffF9KdUyrrMmbI5SzA5sYL6QB2B9mQ12SpleNxBUDVlpRHVVQnQBOcruWj/AumK5nq29CZ0v9ZV3xRU/v639k4D8M1ZDJEP/cUGzHKdY/g4EpVQBQH/MerFpW/1Qi3nBpGtYEBn4C4F0TNdhgckbzqtJw9Ry3CxF7EMH28YKACXbHHCzPNQAEZWjPt5YGwGXRaNQqDUd+TkwPADjU7Xo+ZAcDNySTdHyitf4Hq5Yu3fJx//PUmRceDzJ21/dDT7Q02r4X2S0drU0vgmDkBk4GzS6rqJnwcf9Pd/zhN7riDf9dnPSPI+C78GYjMIJATaXhyM/ff6whXLXe9ohMnjvPxIM/aHy4kag+K+unU7PZ9DlzRmzsScUJuAbeWuX/LkA/TGf8Y7viDd890IWiZKUXwMzvDzPUzwzEdZUi/qmp0GA+oHUY7e2xnZ3xhhvSGf9xzFwHwGuLgomAawIdqxcFg1GvNcj5Rds/AwCikbbHHCTPNQAMNnKT2JBd72bdXupcUR6untiX9nUw4KWDUHYAuDad8R+XiNf/uLstdsB7+aPRqEWMiw3V9ejHPXbIVh3NjasB/N1EbAYuGci35u622Pau1sbrkkk6joiuA7DTRF2DUL27MPVYoHLeGLcLyVes2PYvjKbGtsHwXAMAJhMv0vb29nZT+5HFxygPRaZp0AoAJ7tdSz8N4F5t9Z2UiDf8aCAD//te2568wNTxxAQyeXiOqxi41VDosaUru4MD/UNPtddv62ypr0v79XFg/A5Axv7SDtoZ0JmuqRVVU90uJB+l2fdPu2MqQGYA9osMvEjE2XRiWM4IhKo/qwnLARzpdi0AQMByhjozEW+Yv79n/B8fiIzs32bwP0eoZM6eof/eUP9DAN4yEZtIHfR70t3UtDXR2vA1yqhPAlhiY1mDdbRi9ffSiprPuV1I3tk6aitsvjeGAZkB+DjBYLAIQJHdcYmVNAAOC4QjPwTRX2Dg/TwILxDT7M54w8zBTq/3n+ZVa1NdH6BAf2xubs7Z8/Ofi8VSDNxpKPyFg91P39m26IVEvGEug+cCeNGmugariJjvK6uIXO12Ifmku/u2Pux5TGinIV47BtpTDcAO3xGFJuIy+B0TccVHqKtTZeGamwFc53YpYOxm4L/SW486vbO1vtmOkMWqqBZmdjBklGXdZiCup3DGdxvMbAk8rCBJtjRmXfHGJTuH+k8nxn/D3FHGA6GY8dvScOR6eGsBba6z/Yvj8GTSyBh3sDzVAAwpMHak6i4TccUHTYpG/YGVq+9n8FfdrgVAe0bxlK54w0/7u3l7sJpvW6y9ELg5Fw7+2Z9VbQtfYaDVRGxNZNvCzOdisVRna8NPdMY3CUDcrriDQcB/lVXU3BkMBn1u15InbG/++t6zZAZgX1LImJkBIE+fBJYTJodChxzak6wH4bMul/ImA5cm4g3n272X/uxZ1ccAfIGdMd+ngf81EdeLCNrI35WAUPncubYuzlzVtvCVRLyhgok/DUPrFwaCmS/dXTj8ofJo1MgFVOIDbH8cV6DMjHEHy1MNgO4jU92RNAAGlcyMDium4mUAVe7//zbq3gJf+tSueMM9JoKnlfo0AMtA6A3jhxa2GIjrSeOGFi0GsNFAaKX7lJGjpbtaGmMK/lPJ3LHGA8AR3dPXIHcIGGd7A9BHLA3AvrCvr8BEXGKWBsCQM4I1w31WqhVAuYtlvA3QpxLxhvmPL1li8JQ3nmco8N2xWMxLW9CMisViGTAZuiWQLjQTF+iIx97pjDd8nhifBeDyuiKe5UupxV68YjaH2N4AaGXsS+5B8VQDoLSZgZqJTHxry3tnBGuGFxZyHECpa0UQWlVB5vREvH6hyTSBGdVHAZhmJLjCA0biehhpMvVN+uyS8LyjDcUGAHS2NjyANJ9G4MUm8xyA84upqOXs6urDXK4jJzFg+1oLH5Sndvl4qgFgX2a3mcCe2IqWU6bPmTOisIiXwa3Bn7Eb4K8nWhoqOhYv3mw6HVlqHoxM/9OTieaG5+2P622dbYteALDGQGhlUabaQNwPSCxvfLMz3lgNpisBvGc6377R9L4ktQQqK4e6V0POsn2dhdLkqQXpnmoAFLOZF4cgz8psVB6OHt6X9rWDcZZLJTxPWpUk4o2/hc2HdewLk5npfyb9VxNxswLjLybCEpt7DPAhnGitv01DB+DiuQEETGPtb5bHAfYiE2fSFBn6knuQPNUApN8aa+bFIZkBsEtJVdUQjWQDgMlu5Cfgz8VJf6D/G6QjSmfUjgQQNBCafcr3oIG4WSGt9Z9hpIHj80uqqhw7dW1VvOm54qR/KhiuNXMETBtCxQ39h6kJe9j+xbGgp0cagH3p36+dtj0w2z+Vk48mRaN+X0o9DNB0p3MzkAT4653xhs+3t8ccvbyFfLoaBp4HAngsH/b+70t3W9NrDHQYCO0r6LPmGoi7T+3tsZ2J1obP9T8ScGXRMQMzdhcOe0DOCbCN3eNGqr293f7xbRA81QD0M/EYQB4BDFJJyYKCw3qSCwGEXUi/Hpqn90/5O44Mrf4npvyd/v8XNvIYAKydegzwAYnW+tsU6BwAbjV21bv9Q+8cyO2IYp/sHjc89e0f8GYDYP+LxBhte8x8UlenfKO23M0gR79V9ft72q+ndi1rfMKF3CiPRouZycQ1xukCq+AhA3Gzio+tB2Fg1o+ZZri1T74jXt/lV/6pIKxwIz+ILg6sXH2zK7lzRP96CruP/PbUAkDAkw0A9dgfEqOj0ahsBTxIgY4nbwTIjRvJ7to51D+ru6lpqwu5AQC8vS8IMvEIiZc91hyz/crRbLOyddFbAJbbHphQ7OtTQdvjHqDHmmP/PJxSMwDc60oBhC8HQpHvupI7BxSz/xgDYe0f2wbJgw0AbzIQ1Nq0e7fMAhyEslDNVQB90+G0GozvJeINX3guFnP1ECet2Mzphoy8//b/PoKZ14LY3ZMpm5ubk4l4w3wG/gsO7Vb5AMJPS8ORixzPmwPI8tl6pDQAEGBibBsUDzYAhl6kPvvf0FxXGqqdy8S/djhtLxNdnGht+LnDeT8SMUwMIlr70ksNxM1KfbCWwMAAyeA5dsc8GF3xhp8CFIXzU8BEwF1TK2pMPMLKaQw9xv6YeM3umIPluQaAzJwRjgyxNAADEKisKiPoB2Hm7Pt92apA53W11JtZGDZA5eHqiQAmGgj9xKqlS7cYiJuVuuMPvwFCt4HQx5XOrj3JQNwBS8TrFyrQ+TBwxex+FCjmWKAycprDebMas7L/EQCT8QPLBspzDYAGG2kAiGm8ibi5qGRm1Tho1WDm2fc+baSMOrcjXt/lYM6PlQEqzEQmt4+Q9RzWZo7VpQzPNhH3YHTE67ugcC6cnwoeAY3FTp6NkO2I2cR4YWRsGwzPNQBgy9QvxycNxc0p5dFosc+nFgI40rGkxK/ojC/o5OE+B8LUM2St0WQibjYjKENNERtq4g5OornhecuypgN4yeHUx/lStGhSNOqpy2g8i+wfL0zNbg+G9xoAMvMikTQAB4J0T/JPDh/x221pq3xV28JXHMy5X8FgsAhk4PQ/xuZVy+qftj1ulku01j8Jhu1TpAwEg8Go3du5BmXl0oc3WKzOYWC1s5lp+iE7Ujc5mzNrTbI7YBokDcD+WPAZeZEYPEkOx/h4ZeHId5zc7sfMj0KlLujfCuYpvYXDpsPAAVJEaIIbK8K9j0GwfWEkAYW7i1Ln2h13sFa2Lnork/GfD/DjTuYlxlWlFTVfcjJntglUzhsD4HC746ZTRna4DYrnBsSOeOwdACYGhCGBFU+cYCBuTigL1VQy8FMHUz7Wi945ieZmz+2NBQBt5ux/aPevkPUsIkOvjTbzXg5Wd1tsu68QsxlY6WReYv6f0oracidzZhPKaBOzxW881V6/zUDcQfFcAwAAIDxlJKyl5DHARyiZWTWOie+FQz8PDKz0FfKcNa2tLl6j+vHIxPQ/sMsaWvg3A3FzQl8BtwHotT2wwvm2x7TJisbGHaRSlQASDqb1E+sHZFHgPhAbuOiMjYxpg+XJBoDYzIvFIOl6P6SkZEGBT6kHAIx0JCGjk1SqckVj4w5H8h2EyaHQIWBMtTsuE5Z3xGKeOw/cK7qbmnaBYX+DxJhSMjM6zPa4Nkk0N/ekM/4wgVY5mHasL0X3yGPRf8egUtuDEnly3Y8n33wNMy8WMZ1nIm42843aciMIZU7kYmC1Ir9np/3fV8xDzgZg/2pp5lbbY+YaomUGolqWSp9jIK5tutti2/syBbOcbQKoMrBy9Xecy5cVCGDb14wQk8MLPg+MJxsAUmYeATD4TC9/E3BaaUWkFqCvOZGLgGf9vvSM/jUenkaKjTSKmq12E3FzCYMeMRKY2LOPAd7X3RbbrtNUCcC57bCEH08NVXtukaRbzgrVTgJg+6ORNGmZAThQxbu3vwQ2cnWiZVlJx++y96KyipoJxLgDADmQbiMrq/LxJUvedSDXoBlaAPjWE62LnjMQN6d0lZ/+DAADlz95vwEAgK7li95OZ3SFiS2R++BToD+Xzqh15hGgxynKBA2Efe+JsjP/YSDuoHmyAWhvb08T0bMmYstjAAB1dYqZ7wQw3IFs20E8N9H8sOe2wHyUkqqqIQT7z0FgcDtk+9/+1dVpgP5ud1gCTs+WQa67rek1TToMwJmGmXCssvQfHcnlcUT2jw8MPL3n59p7PNkAAACDzRwJS5hlJG4WKe146lswtM3tAxi7QWpuoqVxjfFcNvH1WtNh4Pm/YtVud8zcxSZ2SihY7Ol1AHtbFW96TilVCxO7Ij4CE2pLw5H5TuTyqmg0ajHb//jP4cWdA+LZBoDIyIcAAJwxrbImb88DmDqr5gwC/9iBVBkQXZJoWeToQSeDpvhsE2HTSsv2vwOkodtNxCVD760pHc2LHiXizwDIOJGPgN+VVdRMcCKXF23c0XcOgY6wOy4xL7c7pl082wD09qq/wdAPfpr1PBNxva6ysrJQEd8DEyvcP4QZ307E6xeazmM7Mzsi3niipXGtgbg5aVW86XkAJm5LzLptwJ0tjY0M+r5D6YYx63uj0aiTN4B6B+NCA1HTbKUeNRDXFp5tAJ5qr99GoCdNxCZNedkAvMP+601ccvER7ulqbfi1A3nsRib2/xNgZmV77mIA9n9oMkqy8TKcrnj9jUy435lsNH3D9tTVzuTyFGJwjYG4q7y87dmzDQAAMKPNSGBCoGRm1TgjsT1qakXVVDC+YT4TPamG+v/DfB77lc2sPQXACAOhpQEYICYjr1nR0J6+MwzENW5I7/bLAThyVTYRrs+3x6SlFbVlAMbYH5nNjGE28XQDoBVMPTshn0W1hmJ7TknJggLF6nYApqf2XvdpXZWtp91plbH/BDAAtGcHgBgIpYw0TRo66x4DAEB7e3svlHUhzDwa+bAhGY1b4MwWYU8gzpiY/odSlmef/wMebwAO6d22wtB5AADoi2biek/BEVuuAWDgfOsP6CXGvBXLGl83nMcYRWT/83/G5o5448u2x81xXUsXvQTgDdsDs4H32CGJ5oc3Mal5DCTNZ+NZZRU1l5rP476SkgUFAH3eQOj3eg71dRiIaxtPNwDt7e29INi+J7jf5Hy4Eas8VHWKZvpv03mY8PXO1gYnLzSxnQYCtgclyurXxGX2v3aUfQsB99bVsqhDMTnwKA9g5l8GZlQf5UQuN/lGvVUNYLTdcQn8yHOxWMruuHbydAMAAGB+0FRoBb7SVGyPIE3qVgIKTSZh8INdLQ23msxh2uRQ6BCC/Qsk2dlb3nILGTkLZHxJeN7RBuI6prO1/hYQHnIg1eFcQL90II/bjIwDDGVs7LKL5xuAgoLMIgBGuijW/Onpc+aYWPTlCaXhyOcAGD3nm4F1pPquMJnDCYUoKgHgszuuImcWbuUi1mykeSqgdFbPAgBAOu2/HMSvmM5DjIty+a6APYsdeYaB0L1QyQYDcW3l+Qbg8SVL3mVC3EhwQnE647vESGyXnV1dfRgBvzCcJgXNn/XyNpcDRaASA2EzRb0FTxiImxfISj8BwPYjVFkr2496dlp3W2y7YvU5GPpytBdSRDcHg0Hbm2MvSGu+AmbGwSXZ8Lno+QYAAJTmB4wFZ3xzzyKQ3JLupR8AOMZsFv5O17LGnBjgiDDF/qj8bHt7bKf9cfND/weo7TfjMbGB99p5HfH6LjhzSNDkXYVDs3Jr78fpf+z3JTPR6S9m4torKxqAolRhg6ndAAyMs0ZuuchEbLecVVF9Mgimr/ldkog3/s5wDiedbn9Ikun/QbN/ESXBRLPnjkS8/lcMtJjOQ6AfnVMZtf2YXDcV0ZCvwMDVvwB2qKEFSw3EtV1WNADt7bGdRLTYVHwi+l4uHX9pMX4Ns8f9vuvTvAA5crtdZWVlIYBT7Y5LDh3cktPYyCLKo8rnzj3WQFw3MCnrCgDbDOcZkeLk9YZzOKY8Gi0m8H8aCc7ckC1noWRFAwAAmvFng+FP3rg99SmD8R0ztaJmBkCVZrPQ17J5v/+Hvat9kwDY/hiILNkBMFhsaBtlJlWQO7MAzQ9vYuavG0/E9MWymbW2N8pu4O19lwMwssWRFd1nIq4JWdMAjB9W0ARgg6n4TPg+sv3kq7o6pRg3mk1CDYl4/b1mcziLoQxM/2PHmEP8zxuIm1eGJN99DsB7dselHFkH8L6u1sa7CWxslrSfjy39U8M5jJsUjfqZ+NtmotM/usqmLDMT235Z0wDEYrEMAbcYTDG5NBzJ6h0Bgc4nLwL4TIMp3tZWKucWA7GRBYB4IhaLOXKNay5rb29PA+i2Oy5xbjUAANAH3wIA7xhOUxOoqJ1uOIdRh2xPfQXAWBOxiXEz6ups37liStY0AACg0+p2c0cDA8T46eRQ6BBT8U2qrKwsBNOPTOZg4OpVS5c6cRa5o4jtXwBI4FV2x8xf9r+Whpo+V3XHH34DxKYX/wLQPzefw4zSGbUjifADQ+F3sJW821BsI7KqAehavuhtAptbC0A4tpiKrjEW36C3M/4vAzjOXAZa1hVvMLkOwy0EEzsAGGtsj5mnGGTitZxQHo4ebiCuqxItjfcRjF2itgfj7EC4KmI0hyHKx3Uwc+MnCHR3Nuz931tWNQAAoMm62WgCpm9l21XBJVVVQ4hgrHFhIMkWfdVUfDeVVdSMBzDM7ris8IzdMfMVayMNADSSJtZ+uI5YfxXGDwhSdciyNVNlM2tPZbCpR5hMnPmDodjGZF0D0BVf9DRg7IIggFDss5ThhXT2spLqShha0drvpv7b2XKPtn/7H4DUzsMKXzQQNy+N8iVfAJC2Oy4Dk+yO6QUdrU0vgo2f4X9Gaagmq2YBtKV/BQPHfQMACMs6Wpuy7nc+6xoAACDGTYZTfKYsFKkynMMW5dFoMRG+YzDF+ow/+1f+7osGn2J7UMZar98Clk2am5uTANbaHVeBcrIBAIB0YeZ6GNw1BQD9z9KzYhagNBy5iIAKU/GJjR+7bkRWNgCdrQ1NMHzLGhNuzYZnhLqn70oYuMryfcS4urupaZep+G4jsn8GgJU8/7cf2/6aMnCa3TG9orupaRczGT4bgM8sC0Xmms0xeHtOMOTfmMvAj3fGG9rMxTcnKxsAAICmHxrOcLRG6teGcwxKeTRaDLDBb//c3N9s5TLbZwBI41m7Y+Y9MrKmImdnAACgq7W+HjB0kVo/JlwLj88C9GVStxLI3DHGZH3PWGzDsrYBSCyrb2XmRw2nmV8aqqkxnOOg8fa+ywCYuttca62cuGjEbQaOAKan7Y6Z71hbJhqAkdNCtUcaiOsdxN+BgRsV91ISmFUzy2D8QSkNRy5iQq2p+Ay0JFoWPW4qvmlZ2wAAgGVZ15rOQcR/8OSHRF2dYjJ3/CcR3btqWf1TpuJ7QemM2pEwcBlIBiwzADbL6LSRxypppD9hIq5XJFoa1wAwezStMnSm/iAFKueNIcDkhWUMzabOFHBEVjcAHc2LHgVg+tnLMRnSf/XaZUGlK5+qBnCSofC9femM6UcsrqMCIzsA3l3V2rDRQNy81t3W9BqAd20PTJSz6wDepwoy3zd5gBqAcGm41lNbKktKFhRAp/8CYKSpHMSoz/br0LO6AQAAKP0DmL+V7vwNPanrDOcYECKDXfk+h/oAACAASURBVDfj5v4P3JxGrO3fAQDZ/2+Q7TMrubwT4H0dixdvhoLRPeoEbf4yogHwjdpyI0AmjyzOkA/GZ6BNy/oGINHc1AnTU1wACPi+V06/mlpRNRXAOYbCv6vIn7VHfQ6EBpl4/i87AMyRnQAHKdlLPwHwtsEUF5WE55lajzQgez6nyeiRyAS6pWNpQ9Y3+55evXmgAjOqj4KPXgQw3HCqd5j1WV2tTa8azvOxAuHIXwF8xlD4PgA7DcX2mkMA+G2NyNgNQq+tMcUejCIQim2OmgGQVce3DsKhMHDt9b8wXZ9orXf1mXjp7NqTKKNXARhqMM2bySSd8lR7/TaDORyREw0AAATCka8A+L0DqV72K/+0x5pj/3Qg17/pb3Zeg90DlxBCDM6W9NajxnV339bnRvKSqqpRvpRaAXNro/YgviTR0mh81tkJWf8I4H2J8im3wPDhQP0mpnRqYTAYLHIg178rwBchg78QwntG+0a9Ve1G4vJotNiXUo0wPfgDjyVaGu83nMMxOdMAoK5Og+kr2DOlZ9o5vYXD70FdndOvH4Hpiw7nFEKIA3Wl0wmj0ajF21P3Ayg3nCoN4q/C/KJzx+ROAwAg0VrfzeDbnMjF4Ghpx1OOnv9cHq4OA5joZE4hhDhwPDMwa+6JTmbc0JO82eRhP+8j8K/6z1XIGTnVAABAJlP4PQDrnchF4P8sDUeudyIXAGiQ4921EEIMAMGyFjiVLBCK3Eig/+dAqudpaGGdA3kclTOLAPcWqKidDtbtAJw5vIfpZ4nWeqPH5k4NRcYqwiswdZ2lEELYY+vhKjWm/xZHYwLh6psA+qbJHADAQJI1leXiyag5NwMAAImWRY+D6WeOJST+Xmk4YnTvvKVQCxn8hRDeN2qbLjjfYHwqq4j8yonBHwAU8fdzcfAHcrQBAIDi1Lbr4MyuAAAAAdcEQpEbYWpWheHK6lohhBgohppjKDQFQpHfMOMbhuJ/KBtaO1saPX0r7GDk5COA902deeHxyko/BeAwp3Iy+MEhyZ5L29vbbTsMpiQ872gfMhvh1CMNIYQYnC2J8inHoq7OtpsIKysrC9/JFNwOoovtirkfW32aT1+xrPF1h/I5LmdnAABgVdvCVwAYPRLywwj06d2Fw5qnz5kzwq6YFmc+Cxn8hRDZY3TZiidt25ZXUlU16h1d0Obg4M9E/KVcHvyBHG8AACARb7gT5MzWwL0E+9K+Lru2w5DCRXbEEUIIx1h0oR1hplXWnOBLqccNX+7zQUw/72xpbHQsn0tyvgEAgJ2HFV4F8OMOp50IZT1WXll73mCCBGbNPRGMs+wqSggh/n97dx5fV1ntDfy39j4552ROJzq3QFsoc2lpTloGA7QZgCYpmqvilYv3iohX/by+r9OrXgl6P/py9Xo/inrFGVDhGjRDKU1CC2FqhtKJodCRznPTTE3OuNf7R1tB6JCc7Gc/e5+zvv+JzXpWcs7ee+1ndATjwxjhMHNRaeWihMWdAC61J6khaexYOOdbDranTVoUAG/W1kY5blaBeIfDTY+3LGtVUVlVTbK7BpLp+4TdSQkhhGoMTCsqqSxM5merq6vNorKqGgaaAIy2ObVzeSue8N9t59wFN0uLAgAAOlfVHWM274TzJ92ZzPxAqG39MzeWV48b7g8z88dUJCWEEKoxMOxhgOsXV0za3RtdycwPwNm5T0eZrdvXrqztcbBNrdKmAACAzua6jUy4G4CO6q40moiun19ScdNQf2BByZLZcLbrSwgh7EPDW74cWlxVEjdoPYBiNQmdVcwwjI/oPurdaWk3s3zfts1vT545O07ArY43Tsgjon+aPGv22FlTrn5p585N0XP988kzLrsHhBKn0hNCCJuNnXLxrD/t27Gl61z/aE5xVcG0Sy99mAg/ApDjUG6nMQGfbW+qr3O4Xe3SqgfgtM7mhu+B4ehBPu9hEOMLg4Ho66HFVed+uBOWOJSTEEIowWTeca7/v6ikckkgwK8T8Glo2JuGgP/b3tzwa6fbdYOU3gjoPChUVvELMDl2cMVZ/N6A//+0Ndf+XYVcXFydMxiIdgHI0JSXEEKMHNFzHU31H+hxPbnBmfVTgO/UkdYp3+lobnhAY/tapWUPwCncUTT3fib8UXMe91iIbisqrfxaeXl54PR/DPtjN0Ie/kIIr2O+cU5xVcHp/zlvyZKsotLKr/mQeFvrw5/xk3R++ANpOAfg77S28sJrr27ojsRnE+gKjZlkAlgUZvPuSTNnd+3bvvm1STMv/RcCnNv4Qggh1DAzfLR+7yc/9lZhIP+TZoIaASwFEDjfDyr0u46Whs9pbN8V0nkI4G+uqK725/RGGwGU6s4FAEB4BYyxsHkFgH/MVORePN/OkEKIFNK3Yw2ix/bYH/jkPa0AgM4XrdMe71hw7T3pstb/XKQAOKW8vDzQxf4/gPER3bmoMua6KuTOKtKdhhDCpXq3tqHr1Qbdaaj0+8xIz72tra1x3Ym4QTrPAfg7K1asiEzL9X9Mw7kBjglOvER3CkIIF8uamLrbjjDwUEdzw6fk4f+u9J4D8D6bNm3ifds2L5866zLA+Y0olMrIuwAFV96iOw0hhIsZ/kyc2P0arMgJ3anYiYn4yx3Njd/VnYjbSA/AB3F7U30Ng78APTsGKpE1ebbuFIQQHpA1KaV6CqNgvqu9qfFHuhNxIykAzqKzufGnfPLs6XPu1ucVmRNS6qIWQigSnJAywwD9YL6jo6XxSd2JuJUUAOfQ2VT/BFl8C4ADunMZCTJMBMZN152GEMIDghdcCDK8PjpMWxNsLOhoaXxWdyZuJgXAebQ/2/iK3/BfA+B53bkkKzB2GsiUPYWEEOdHZgb8Y6bqTmMklkciKHy1pe4N3Ym4nRQAQ/DSitojmZGeEgYe0p1LMoIXXKw7BSGEh3j0nsEMPNSx4NqKDa313bqT8QKv9/M4ZufOnda+7ZtXTp45eysBZQD8unMaqoIrF8GXM1p3GkKMmM8gjM4ykeU3ABBiFutOKSURM/p3rtOdxnB0MeHOzuaGR9DaKl+KIfLpTsBrOpsb/jR/cdUmw+AnYfNOfSqQYSIwdpruNGwX9BFmjglgxpgMXJDtw/hcH/L8Bvw+gt9Mbn8rBtAfTqAnwtjeFcHGAxFsPhKBE3eTzAzCNRODuHp8EBNzfSjIMhFI8vc4n4GYhWgCiMQsHB1M4GBfHIf743jneBT7euNgl90+gz7C9dOzMH9KJibn+2DSu3+X7rCFTYfCeHnXIHYe1z9fN8dvYM6kIK4cH8TEHBP5mSYYQPdgAvt743j9YBgbDoQRjrvsj/w+gXHTQYYBtjywEIrRzrDu6mxe9o7uVLxGdgJMUnFxcXAgkF9DwJfh4p4U/5ipmFTyr7rTsIXfJFw7MYjQ1EzMGuf/uweBKru7Y/jrpl5sOaLm4WIahJsvzkLprBxk+/WPyPVHLWw9GsWGA2FsPBBGNKHvQUUAbrooG3fMHtrf5s3DETy5sQfHBhLqk3ufDAMomZWLW2dmI+g79/eyP2qhZWs/nt8+gITbqq332N/8MKJd+3SncS4xIvre1NyM79bW1jr/oacAKQBGqLBs6QJi6/cAXLnOLveShRgzr0J3GiMS9BFuuigbi2ZmI0fDQ5IBPLu1Hw2b+mztDcjxG7h3/ijMGuvO0aRwnLF+fxjP7+jH3h5nN0/zGYR/ua4A10wMDuvnBmIWfrnmuLKC7UwKggY+GxqNaQXDm2i75UgUv3r1OE5E3fmWfezVevRtbdedxpkxXjdM/qe2FY3rdafiZa59c/WKfdve3jtt7tW/sSIJHwEL4bKiKv+ShfAXTNSdRlIMAm66MBv3F43CVROCSXftjxQBmDHGjwyT8LZND5agj/ClG8biwlHuXZ3hMwhT8zNww4XZmFbgx9GBOLrD6h9WBgH3F43GVROG9/AHgAyTcN3kTOztiePwCfVFS27AwJdvGouJucMfTR2TbeLyC4Lo3DMIjR0tZ2WFT2Bg3ybdabxfnIEfnMj3f3xdQ52ruye8QAoAG+zdtCm+b/vmlVNnzl4N4EYAo3TndNqoOeUwA1m60xi2sdkm/rVoNG64MAsZmh787zdjjB8H+xM40DfyB8u/XOfeN//3IwDjc3xYOD0LY7N92N4VVTo0cPvsHCycnvx31iDCtZOCyosAIuBzRaMxNT/5Ii4vaGB8jg/r9odtzMweZPrQt7VNdxrvYrxuGVblmubGx45s2iRd/jaQAsBGe7dv3jFr6sRHYr7gIAEhaF4pYPgzMfqa8pN3Kg+5ZmIQny8ag3HZ7pujOmO0Hy/tHBjRG9vlFwRQcVmufUk5hABMyc/A9dOz0BuxlAwLjMv24VPzCmAaI/vOOlEEhKZk4pYZ2SOOMzHXh+3HYzh6wl3PNNOfhd7Nr4At7WfnHAPhK5mRns+sXtmyV3cyqUQKAJvt3Lkzvm/75pcmzLzi9wZZuQDNgab9FgJjpiHn4ut0NJ20D12UjbuvLXDNW//7BX2E/qiFd47Hko5xz7wCjMr07qWXYZ5csTAu28Rbh6O2dl9XXJaDi0fbUzerLAIIwL2Fo22buDku28Tq3YO2xLINEQb2v43EgLYl9XEQ/9pvBD68uumvL+zcudOdkyU8TP+04xS1tvmvBzqaGu8DUwjASzpyyCiYoKPZpJXMysFHr85zfYfF3EnDH5s+bVSmiQtHeaPr/3wKp2bha8VjMTrLnmKGCJg3OdOWWKf5DMK9hQW4anzyn9mZTCnIwLhs+4q4i0b7URB03+3Yr+seQvScYWJuR1PjfS+tqD2iJ4nU575vXIrpaKlf29Hc8CEwfxzAW0627c8f72RzI3LDhVmovNwb3eIXjfIjMyO5KuXyCwLumiU6QhNyfPjKjWMxOW/kwzWTcn1KlkKqKAIuHxewLRZwskfh8vH2xrSDP9/xAmADMSo6mupvbXum4XWnG083UgA4gztaGp/sWHDtlcSoINAaJxr1j/LG7P9LxvjxsavzPfNgJAJGJ9mFb9fbspvkBw186YYxmDrMZXDvN0bh3+Z0EXD1BHsesio+x2S/Uyo52AOwgYn/oaO5YW57S8MypxpNd1IAOKmmxmpvaVjW3lwfYvAdDKxW1hYRMvIuUBbeLjkBA5+6bhRGOOfLcbmB5G7WuS7Y7EeFrAwDnw+NGtHEzcwMtX8bn0H49PxRtvQE5AXszzUvye+USuqHEfllWFTa0dxwbWdTYy3gyMab4pTUvBu5H3c2Ny7vbG64HuBbAN5odwO+YA6MDHvHPVX46FX5yHfh2Of5DMSSm4/k81qlMwy5QROfXzAauUk+HJ2Y+2FXT4Cp4Cvrxu+GkRGEGcxREJk3EtHNHc2NN3Y8W9+ioAExBN6786aYjubG5wlk+2JbX84Yu0Pa7rILApg32f1Fypn0ht21ZMstxmWb+Od5Ba6eyHm6J8Cu4YBUp+JewsDq9qb6VtsDi2GRAsAVeIrdEd1eABCAO6/I051GUo4NJBzZEc+rLh0XQMlMFW+N9pEiYOgyFJwkSqDJtgcVwyYFgAtYCi6GjFx3H/975YSALTPHdXjtYER3Cq53x2U5rv98pQgYGkUvE1IAuIAUAC5AwCS7Y/pyxtod0laLXP6GeDZxi/H8jn7dabieSYSPXeP+lR1SBJxfRq4UAKlKCgDNrqiu9gOwfbq+L7vA7pC2GZttYuYYb26G8+I7A67bstWtZoz2IzTN3o19VJAi4NzMLCX3kgtO3fuERlIAaJbdE54MBScImpnuHV+fPznT9W+GZ7KjK4qGt/p0p+Epd8zOHfG+/k6QIuDsfGruJUbweNhbW5WmICkANCPDZ39XGJGipTv2mH2B926yO45H8UjnccTceG6ri43ONHGdR1Z6SBFwZmaWmpcJ06fg3ieGRQoAzciybL8IjIwgyHTnOfN+k3DhCHeMc1LCYrTuOIEfv9KFvojM/E9GyayRn5jnFCkCPojMDCV7iqi494nhkQJAMyayfwmgoordDhPzfK496e+9usMWXtw5gO8+fxR/fr1X3vxHYGJuhqcOQJIi4IOU9AIQSwGgmbvX6aQFa6LdUwCMgHu7/8fnqHv77xpIoGPPAA70JWAlsaMoM9AXsdATtnD0RNwze5Lu6Y6hedvQViaYRMgNGBidaeKyC/yYmOtMb0xoWhA7j0cdacsOp4uAX685Lss+ARgB+3txVKx+EsMjBYBmRMZYZnsfNUaGe2dej1N04MuWY1E80tGFwZhXHtv26YkksG5fOKmfnZDjw+2zczF3clDpxMx5kzJR+1ovLA99PFIEvMv0Z9kflOHu3crSgAwBaMYM29fYGH73TroKJnmM7rkkLMaja7vT8uE/Ugf74/jNq8fx49XH0B9VN8chx29gSr535n6cJsMBJxkZ9v/+TOTetcppQgoAzZgt2y8C08UFQEDB+P/+3jiOD8ra/JHYciSK/3jxqNItji8d5515AO8lRYCaXkWC/S8/YnikANCMyP6LgHzuLQBUnHjWE5GHvx2Onkjgkc4uJHnQ4Xl5dfMnQIoANT0AyLc9qBgWKQC0I9un15IHjgEW7rTreAzNW9RsdezUhENV0rkIMPwK5hUpGP4UwyMFgH62z64xTJnbKZK3als/+hXseTAm03TlmffDcboImJLv3d6MZJChYPIuw72zldOEFAD62f5aRIZ8rCJ5kQRj3f5B2+MSAeOy1awCcZLPIBQE0+waU3BPYeL0qqJcKM2+xa5kf7+oimpdpBVVy95y/XLL8STD/l5FAkkBoJlcjZoxYPtFQCQfqxiZ/b0xJXH9PvluepGiIQApADSTq1EzUtEDQNIDIEamL8KweX8qAECmz9tzANKVkpcKkgJANykAhBAfJM9pIVKeFAD62b9BOsu6eDEy+QEDpKAIGIzLbo1exKxkc4j03l/ZBaQA0M/2AkDRxSrSyIRcNUtJo3H5bnoRW0peKrxzOlSKkgJAP/svAjUXq0gjV01Us9lNn8LzBoRCVlxFVCkANJMCQD/7ewAsucmK5AV9hLkT7d+jxWLgyAlni9NYgrHtmDxnRkzNPUU+GM2kANDP/gIgoWYJl0gPi2ZmIzdg/62hayCBuMPnATOAn7Z1YctRedaMhJVQ0ANALB+KZlIAaEe2P62tuMytEcm5cFQGSmbmKIl9oF9PYRpNMH7eLkXASFgxBfcUJvlANJMCQDtrwPaIUfu3cbWLpWBxudf3l3eLcdkm7iscDZ+CI5sBYKvGB7AUASPDsbCCqGT7vU8MjxQA2lGX3RGtqIqL1R4qTu6dkp+BDEUPrXQxe1wAX71pLPIV7nG/WfPDV4qA5FlRJc/qYyqCiqGTAkA7Om53RDXVuj3CMfsrgBy/gYrLcm2Pmw4m5vpw7/xR+MLC0chWuE9/X8TC3h79c1OkCEiOkiEAsO0vP2J45NxYzRjcZfe7a8LFBcCxQTUrFG6dkY2xWSZe2jmAIycSYAx/qMFioC+cQMxjiyjyAybmTg4O6d+aRMgNGBibZeKyCwIYn+PMLWDd/kElWwsn43QR8Lmi0bhkrOxGOxSJmIJhRUa3/UHFcEgBoJkB7mKb9121wv22xrPT4X4l64kBANdMDOKaiUN7EJ7LQMzC9mMxbDwYxpo9A64vCKYWZODT143SncY5dexx17wUKQKGxwqfsD0mkQwB6CZDAJox2z8EEB/stTukbfb3xl3zJng2WRkGrpoQwD/OyceDi8ejaKr9a+LTyYG+OHYe19/9/34yHDB0CQX3FGbYfu8TwyMFgHYqJgEOunYvgIGYhb2KjppVoSBo4O65BfjEnHxZbZCkli3u7ZGSIuD8OBGDpWRYUeYA6CYFgGZkWEdVxE0M9qkIa4u3D3vvZnv99Cx8Yk6+7jQ85+iJBF7d5945KYAUAeeTGFDTo0igI0oCiyGTAkCzBHiPkrguHgZ4db+7xoOHKjQ1E8UXZ+tOw1OWb+5Dwu1jPpAi4FxU3UssMnYrCSyGTAoAzYwYKbkI4gM9KsLaYk93DPv71E0GVOmO2TnIypDLZii2dcXQ6bLJf+ciRcCZxQfUDNWb8Cl5+RFDJ3cyzTpWNR4GYHsfabxfyciCbVp32D+r2AlZGQY+JL0A55WwGE9u6E5iMaZeUgR8UKxPyVB9f1tzrcwB0EwKAP0YwF67gyq6aG3TtnsQXYPePLZ4jqKjclPJsrf7PdvLI0XA34v3K1mtt0tFUDE8UgC4g+1dYYouWtskLMYzm907O/xcpuRnIEfhrnle9+bhCJ7d6s3P9jQpAt4V67f/ZYIV3PPE8MldzAWI7J8H4PYCAADadg1gx3Hv3WAJwKhMU3carnTkRByPrvVe1/+ZSBFwkop7CRHLBEAXkALABZjZ9u6weLhf0dpd+zCAP67vRTThvcdFsvvmxy3v/a5D1RtJ4OG2LvRHk9s6MabgezDS71Y0wfjv9i5sO6a+CHDjagkrFkZCzc6iO1UEFcMjBYALMNHb9gdlxHoO2R7Wbgf6Yvjz6+5dsng2J5J8yPWpOA7RBU5ELfys7TiOnkj+9+sJ27/nsh0xIwnGz9rUFwHJfqdUinUfVBKXLeMtJYHFsEgB4AKcgJKLIaro4rXb6l0DnlsVcDyc3INO1WFIOnWHLfzo5WPYM8LT/g73J2wfOrDr7AknioADLpw0qeoeYhmWFAAuIAWAC2THut8GYPuroarqXYXaN3qxdp831owf6IuhP5Lcg/ytw5GUGB8/bV9vHD948agtD6/eSAJ7uu3dJvr1g/YNg6ksAhjAVgeGGYZLUQEQzQn3blcRWAyPFAAu0NraGmYFY2LRHu8UAMzA79f2oN0DG8e8djD5s9GPDyaw04MTH8+kbfcgfvDiURy3cTlnx54B22KF4zyiz+pMVBUBW45E0DXgvuEhFfcQAra0tra6r7sjDUkB4BaETXaHjHYfhOuP3nuPBDMeX9eNFVv6XfuWHEkwnt8+sofU0297e4nciaiF36/rwePru22fwPnSzsERzSN4r5at/RhQcJZzJMH4aZu9qwOWu3BJLIMV9SKSdP+7hBQALmEw235RWNFBxDywHPC9GMCyt/rw8xHMJlepaXM/ekc4ke+twxGs3+/uFRpnwgBW7xrEg6uOoNPGN/X3iluMJ17rwUgXS+zpjmHVNnUPVTtXB7y0c8CRVQbDFe85omYlkYKXHZEcKQBcgmG8oSJu5Jg399t483AED646gtYdJ1zTifHawQhabHqoPLauG/t6vdELyjj5uz/0wlH8YUO38sLsrcMR1L7em3Qv0PHBBP67owsKXv7/zunhgJGM3W85EsVTb7hzFYyqewdbrOReJ4ZPdjNxiakXXRaDwf9qd1xfVj4yJ11qd1hHxBKMNw9HsOlwFPlBA+NyfCBNuWw8EMbv1nYjYdNDJcHAuv1hXFjgx5hsd16GgzHGmr2DeHx9N57fcULJMr2z2dUdw6H+OK4cH4RpDP1T33E8ip+8chw9SU7SHK4EA6/uDWN0tokpeRnD+tm1+wbxqzXdrt0bom9bJ6Jdtu9SjrhlfeXAji3uPa0sjei6n4oPolBpZReAAjuDBkZPxcRS2+sKLabk+7BwWhbmTc5EbsCZzquBmIWmLf1Yte2EknkJJhGKL85C6SU5rtheuD9iYfPRCDYcCGPjgYj2h9PoLBNLZudi/pRMnKsO6AlbWL65D227BrVsqEMAQtMyUXFZHgqC5/4cjw0k0PhWH9bsdfeE1/1NDyN6fJ/dYQ93NDeMtzuoSI4UAC4SKq18DsDNdsYkw8S0j9SAzOG9nbiZaRAuKvDh0nFBzBiTgfE5Plu35mUGdnVHsfFABK/sGnBkLkLQR7hmYhBXTwhiUp4P+UETQZ+ay3MgZiESZ0QTjMMn4jjUl8DhE3HsOBbFgb64Kydg5gYMXDk+gItH+5EXNBD0GegNWzg2EMebhyPYcSzmip30/Oa7n+OUPB9GZZlgAN0DCRzoi2P9gTDW7w9rL6zOhxMx7H7qAbBl73efwE+3NzcusTWoSJpPdwLiXQx0ks0FAFsJRI7uRnD8DDvDapWwGNu6YtjW9e6a8QwDyAuaCJgEn5n8g/NE1EJvxFKyLe25hOOMjj2D6PDAMkgd+iIW2nYPom23u/8+0cTJYRO3v92fT+TILtsf/gDAMDptDyqSJgWAixBoDRS8f4UP70ipAuBMYtbJrlUhxMgNHt6hJK4Ba42SwCIp+gcdxd/EEwklF0f4kGy6JYQYOkX3DE7ETSkAXEQKABdZu3LZbgD77Y4bObYHnLB3i1UhRGqy4lEls/8BbOlcVeetjUlSnBQALsOE522PaSUQPrLT7rBCiBQUObITbNk/nEaw/94mRkYKANchJRfJ4IEtKsIKIVJM+KCqe4Wae5tInhQALsNxU00BsH+zirBCiBQzsE/JvYI5br2gIrBInhQALrNm5V92QMHJgLHew4j1d9kdVgiRQuL9XYj1HVERelPHqsZDKgKL5EkB4E6tKoKGZRhACHEOAwfU9BQy4TklgcWIyD4ArkTPAXyP3VH73lkLkNR8Qogz639nnZK4BrhVSWAxIlIAuJDJ1JwgtmBzD0302B4c8+jpgEIIz4qFw4b0ALiQvA660OqWusNgyJaZQohU8MKG1vpu3UmID5ICwKWYsEx3DkIIMVIk9zLXkgLApUxTLhohhPcR8zO6cxBnJscBu1iotHIHgIt05yGEEEl6s6O54UrdSYgzkx4AN2PpBRBCeJh0/7uaFAAuZhnUqDsHIYRIlmFJAeBmUgC42JqiOc9DwemAQgjhgD1tLQ1tupMQZycFgJvV1FgA1epOQwghhovATwBg3XmIs5MCwOWI+QndOQghxHCRgSd15yDOTVYBeECotGoLwLN05yGEEEO0uaO5YbbuJMS5SQ+AJ1hSSQshPIOI5J7lAVIAeIDB/CfdOQghxFAx8Z915yDOT4YAPCJUWrkVwEzdeQghxLnR1o7m+kt0C4gGZAAAG3VJREFUZyHOT3oAvIJlNYAQwv0ILPcqj5ACwCPiVuIXABK68xBCiHOwQPQr3UmIoZECwCPWrly2G+AW3XkIIcTZEPiZ9qb6nbrzEEMjBYCn8CO6MxBCiLOx2JR7lIdIAeAh0/KCTxOwW3ceQgjxfgTsnp7vW6E7DzF0UgB4SG1tbQJEv9OdhxBCfADjl7W1tTJPyUN8uhMQw8Nk/Bqc+AaADEVNxAD0K4rtNnkATJtjptPfz2kZAHJ0JyHOKJrwxX6jOwkxPLIPgAcVlVb+kYG7FIU/bsA/s625tktRfNcIlVa+AOAmO2MSaE17c32hnTHFSYWllXcT8KjdcZlwJ8d9G+2O6zaGGfsCQP9LRWwierS9qf4eFbGFOtID4EnWfwKGqgJglIXINwB8WVF81yBgE9tcADDzldXV1aZ0hdqPwFcreGfhRNz/3NqVtT12B3aTG26/fVQs7rtbVXyL6b9UxRbqyBwAD2pvXrYOQKu6FugLC8urZqiL7xJMm2yPScjcdSKe+n87LYyrFQTdm+oPfwCIxc1vAhitKHxzZ3NdyvegpCIpADyK2fhPheH9ceYHFcZ3BQuJN1XEpQRfpSKusP/vyoCS74CbLLztzukM+ryyBphV3ouEQlIAeFRnS91yAG+pik+Mu0IlVfNUxXcDSpCaAoAgBYDNbiyvHgdggt1xCZzyBUAiHv93AgJKgjNe72hpXKkktlBOCgDvYgA/UBifYOA/FMbXrmNV4yEAx2wPbLGKruq0FuaYor+pmiLQLeYvrpoDIlXzhQDw93DyXiQ8SAoAD5uW538MoK3KGmC+pai06h+UxXcH2+cBsPQA2I4UFVVGahcAZBj8X1B3n3+rY+FcOfbXw6QA8LDa2toEEx5S2QaDfzxvUXW+yjZ0IjVjwBcXF1fLenUbKRpWYSNgKRtG062wpOJuAMWq4jPRd1FTY6mKL9STAsDjEkcueAzAOwqbmGCasW8rjK+XipUAgBH2R69QEDedqegB2P1KY2OfgrjahcrL84jo+wqb2DI9N0Pe/j1OCgCPW7v2lzECq7zQQeAvFpYuvUZlG7owWW8oCSzDALaprq42wbjc9sCcwisALP/3AExUFZ6BB2WvC++TAiAF9OUFHoXaXgAfYP0cKbhzpIHARiiYxMQsBYBd9vaEZ4GQaX9kSsm166dW73xWYRObpuf5/0dhfOEQKQBSwJu1tVEGvqWyDQIWFpZW3KeyDR1ObXm8y/bApKTLOi0xmYr+lrxOTVx9qqurTRD/HPafcfE3xPi6vP2nBikAUkRnc8MTANaqbINAP1xQWjFTZRs6EGO9grDzqqurld2E0wnDUnK2gmX5Uq4A2N0T/QoAlWdRvNTe0rBMYXzhICkAUgcTker9+7Mtot+jpialvjdMpKIAyH2nJ36ZgrjpKKQgZs+alX9ROWzmuKJFSy8D4QGVbRiMr6uML5yVUjfydNfeVN8KoFlpI4zri9rXq9tWVAOGpeRN0DBYxYMrrRQXF/sAulZB6HVIoQ1siouLfTD5UQBBZY0QnmpraVitLL5wnBQAKYZhfA2A0vE5Znw/tPiOWSrbcFKGpWQIAMRSAIzUiYyCKwFk2x2XCBvsjqlT2J//NQbPV9hElA3jmwrjCw2kAEgxnc11Gwn4leJmsmCavzv5duZ9rzzbuB/AIQWhpQAYITLVFFHMSoZ9tFhwW+VVTFC7Vwfjx53P1G1R2oZwnBQAKYjg/yaAo0obYVw/6C9QOt7oLCUzwq+QHQFHhlhREWWw0gmzTikuLg5aCX4cgF9hMwdhRv9dYXyhiRQAKaitubaLmNTv3kf8jdDiqhLl7TiAoOSN0IxkxlP6REUHqCgABjIHe1LibXYgkP8wQEo36WKi/92xYkWvyjaEHlIApKip+Rm/BEj1MicDBj82/7bbbD+m1WkW0xoVcROWzANIVqi8PA/AbLvjMrChtbU1bndcpxWWVX2cgE+rbIOZX+hsqn9SZRtCHykAUlRtbW3CYP4C1M90Hm9Y/j96fWkg+6LtKuKSzANIGid810HBPYrAbXbHdNqC0oqZxPwLxc3ETR85cQ8Rmnj6pi3Ora2lYTUBjyhviPmWwtXr/k15OwqteeaZgwB22h+ZVW7KktLIIDXFE5OSYs8p5eXlAQv0JIA8pQ0x/aDtmYbXlbYhtJICIMXFEv6vg7FPdTtE9O2iksolqttRS8mb4ZRQ+Z1TFMRNfWwoKQAMf8LTPQBdnPETAKrnlmzJjHZ/R3EbQjMpAFLc2pW1PUzsxB7+BhP+eF3J0isdaEsJIjVvhmwlblIRN6XV1BgA36Ag8q62p59WXhCrEiqt/FcwfUZxMxYDn25tbQ0rbkdoJgVAGuhsblzOYCfO7s41yWqct2TJWAfasl0Clqo3w5sVxU1ZCzrWXQNgjILQnu3+D5UtvQHAj1S3w+BHOpsbXlLdjtBPCoA0QXF8EcAxB5q6yBc1nvDiJkEDucGNAFS89UgBMEzMqv5m3hz/LyxZchHYqoPa9f4AsDeRCPxfxW0Il5ACIE10rGo8xMT3O9TcokF//n861JZt3qytjYLsP1GRgBnzFi2ZZnfclKaoACD23gqA4uLqHCKjHoDqnjUm4FNrV9b2KG5HuIQUAGmks6mxFsDjjjRG+GJhSeWXHGnLTsxK3hBN0yhWETcVVVdXmwy6UUHocF++31NbABcXF/vCgcgTAK5W3xr/uL25YaX6doRbSAGQZuIJ/xcA7HKiLSL8sLCs6uNOtGUfVjL2STIMMGQ7+8JzAeQrCL3mzdraqIK4ygwE8v+bQXc40NSbmZFe6fpPM1IApJm1K2t7QMY/QvGJgacYxPxoYVllqQNt2SISMV+Agr8NAbfYHTNVmWyo+ls9ryiuEqHSiu+o3unvlBhbfI/M+k8/UgCkoY6mupfB6mcTn5JBjNoF5RUqznS33YbW+m4GXrM7LgPT5i/68MV2x01FFlCsIi6z9YKKuCoUllXeB5Ajm2sx6Fudzza+6kRbwl2kAEhT8WPjvwnAqQlRuZZFzyworZjpUHsjYhBaVcQlX0KGAc5j3rzPZBBg+/p/BiJmftATEwBDpUsqifEzRxpjPNO5YM4PHWlLuI4UAGlq7dpfxizGR6H62OB3TbBAzy0sr5rhUHsjwK0qopJlFauIm0r8Yw7NB2D/EcrM7W21tYO2x7VZqKRiMWA8CcB0oLm98YD1T6ipsRxoS7iQFABpbE1Lwx4G3wPnDvuYmrB4VVFZ1YUOtZeUcNh4ESrmSBAt8vqhSaolwItVxDUMo1VFXDsVlVYuAqgBQNCB5mIG46Nrly1z6gVAuJDcjNJcZ3PjcgL/wMEmp4P5hcKSJRc52OawbGit7wawQUHoCQvaNlynIG7KICIl50kQkasnAIbKlt7AQB0ImY40yPhGW0vDakfaEq4lBYBAMNL7TWZ2bIIUA9NAxrPuPiRHzTCABcuJJV2eNK/0zokA5ioIHQ4MHu9QENcW80sqbgJbTVAx9HEGxKjraGnw3EZdwn5SAAi0trbGA2agGg7tDwCc3B0PVuJ5t/YEsKIlYw6t6fakDCRuB0AKQre5dYnb/JKKmwyi5QCynWiPgDeCUf/dcG7YT7iYFAACAPDSitojDKMSwAkHm51JZKwOlVU4sMvZ8IQ53MpAxO64BMxxd8+HPgyoOU6a0aIk7ggVllbcboAce/MH0GUYVNXaWtvvUHvC5aQAEH/T2Vy3kYidfjuYAKbWBSWVCx1s87xea2k5QYCKXQGJOXG7grieVlxcHARwq4rYTMYKFXFHorC08i4COTfmD8SZrerVK+q3O9Se8AApAMTfaW9q/CsB33e42VEWoSW0uKrE4XbPiYiVPDgMZhkGeJ+wv+BmqOkG39/ZXGf7xk4jUVha8Xk6eSZHhlNtMvhLnS3LnnOqPeENUgCID2hfcO2/EajW4WazYfCyopLKjzrc7lkxUZOSuEy3zluyJEtFbK9iKCuKmuGi8e7CkooHCPQwHLz3MuHhzubGnzrVnvAOKQDEB9XUWMFI990Av+xwy34mPFFUVlUDNZPBhqVjRcMmqJgYScjMiBhKurs9i6BmWITxjJK4w1RcXOwLlVT+jIhqnGyXwE9Pz/V771RO4QgpAMQZtba2hjluVgHY7HDTxMwPFJZVPl5eXh5wuO0PYqjpBTBkGOC0U5NApysIHY9ESfvxtoW3Lh0z4M9bCcLnHG2Y0R7z80dra2udOPhLeJAUAOKsOlfVHWO2ygEccrptYnyiK+FvDd1aMd7ptt+LoWoYAEuLi4t9KmJ7jmVUqwnM7ac2ddImtPiOWeSzXiGiDznaMPEOJLhq7bJlA462KzxFCgBxTp0ty96xyFoCoM/xxglF8FH7dSVLr3S87VMygtYqALafIU+gcQPBfBkGAADij6kIyyCts/9Di6tKYJidAC51uOlDSFhlHasaHS/chbdIASDOa03TsjVEVAGGjsNULjTJai8qqfiEhrbxSmNjH1SdDshQ8uDzkvllS+YDUHJKJBE/rSLuUJouLK36KgxeDqDA4baPg7ik49mntzrcrvAgKQDEkLQ31beCqUrF5jhDkM1EfwiVVj62oLraqXXTf8PMdYpC36nj93ETg+kuRaG3dTQ1Or78L1Renhcqq/wzgR8C4PQQzwDIqNDxewtvkgJADFnHs/UtBvFdAOKaUvik1Rt7ef6iD1/sZKMURx1UnA4I5Fm9sdsUxPWGmhoDTErG/wn8VxVxz2VBecW1bPnXgfERp9sGEGXCnR1NdU6v3BEeJgWAGJb2psa/MtFnoW1tNc81zPiawpKljs2iPzmWym1Kgisa//aCwtVri0GYrCK2RWa9irhnEyqp+oxl0WoCZjjZ7ilRBt/Z2dTQrKFt4WFSAIhh62yq/w2B7wNgaUphNJHVWFha8fOrS0qcOUSFoGYYgHFHqLw8T0lstyPj44oi7+8susaR0/8Kb106pqi06s8gfgRA0Ik234uBCLPx4c7mxuVOty28TwoAkZT25sZfgfle6CsCiED3Z1Lm66GypTeob874K9T0egQ5kbFUQVxXu6K62k/AnYrC16GmRvn3MrS4qoRMayODFS1jPK+oQfwPnS11uiY7Co+TAkAkraOl8bcMfApqxseH6iKw9XyotPJBlevq25vqdzKwQUlworQbBsjti5QBGK0iNgFKu/+vLinJLiyt+DkMblI1hHFejEEmVLQ3NTZqaV+kBCkAxIh0Njc8Rsz/BL1FgA/At8OBgtULbqu8SlUjBqmZWEbA4vkllVNVxHYrZvqUotBdwUhPq6LYKCxbuiCTstYT6H7o2656gAgVMuYvRkoKADFi7S2NfyTiOzXtE/A3DJ5vJbAuVFL54+LiatvPWDfIeAJqhgFMg/heBXFdKVR+5xQAaiZxEj/V2tpq+yqVeYuq80MllT8mtl4CeJbd8YfhOMgobW9u0L7FsfA+KQCELdqbGhsN0ygH0KM5FR8IXxwMRF9bUFpRZmfgU2epd9oZ811077x5n3HseFitrMS9ULRG3rLwR7tjFpVULvGZ0ddB+CIA0+74w3CAYdwsS/2EXaQAELZpW1H3gmVRMYCDunMBcJEFWlFUWvlHO88TYPAf7Ir1PhN8Yw5VKortGqfmaXxaRWwCdq9ZONe2h2NRWdWFodLKp5nQCED3EM1m0zQXdDbXbdSch0ghUgAIW615tn6DadANDGzXnQsAMHAXfLS5sKziK3acLhgwAv8DIGZDah9AhM+qiOsm4WBeBYBJKmIz4U92zP6ft2RJVqi08tvM/Aag6Jji4emM+60bVj/zV/uPphZpTQoAYbvVK+q3I26EALyoO5dT8onpP7os/9bC0sq7MYLJWy+tqD0CoMW+1N7FwC2Fty29REVst2Cm+1XFTljGSLv/qbCsotoXNTYBeBCAI3tMnDMhRl3cb928dtmyo7pzEalHCgChROequmOjjWgJgMd15/IeUwl4NFRa2b6gpHJhskGYyPZx5lMICb5PUWztFpZXzQBwi6LwG15tqXsj2R8OlVbcXFhauZaY/gxguo15JY/xk/aF135EjvQVquhaxiLSBxWWVHybiB6Au75vzOBaBn9nTfOyN4fzg/OWLMnyRY2DAHIV5NVl5PmntNXWal1RoUKorPIHYHxZSXDGVzpaGn443B+bv7hqDpn8HWIsUZFWkmJMdH9nU/1vdCciUpvOGa0iTezbvvmFybMu20Inx1OdPiHtbIhAVxDos1NmzL5s6kWXb9q74+0hdbMe2LIlNnXGpTNANFdBXpmIxHft3b55nYLY2lxfUZFrxelRACpOP4z7mP9lz47NfUP9gfmLq+ZMnXXpfxPhvwi4VEFOyepitio7mxsdP8xIpB8ZAhCO6Gyqf8KyaAGAd3Tn8j4GCB9j03qjqLTqzwtKlsweyg8RGb9UlRATvq5yV0MdYhHjfija+Q+g5a8827h/KP/yupKlV4ZKKx8zDF4LoAru6pXaYCV88ztblj2nOxGRHqQAEI5Z82z9Bo4b80FqJtGNkMHgaouMN0KllU+db45AW3N9J0Bq3tKZLg778z6qJLYGC6qrMwn8JVXxGdavzvdvCksrbwyVVtWbZL0G4JNw373vcSPPv3DNyr/s0J2ISB9uqn5F+qCi0sqvMvA9uO9G/B60jsE/zor0/OlMu8sVllXeR4xfKGr8rY4F117pxKE2qhWWVnyeQA8rCr9nWp7/otra2g9sRT1v3mcyzHEHq4jpSwAWKGp/pOIEfKu9ueEh3YmI9CMFgNCmsKSqioh/C2CU7lzOYxdAD2f4Yr99efny46f/4/UVFbnxCO2DmsmAYMKdnU0Nao4hdsi8eZ/JyBh7aBsD0xQ18UBHc8N33vsfFpRWj7Y4+hkAn9d2WM8QELCbGB9va2lYrTsXkZ5c/PYlUl1nS329xbgG7tkv4GymA/zDaNx3oKi06s9FpZWLANArjY19YPxJWauMf4PHi3Rz3OG7FT78E/GE9fvT/yNUUjUvVFbxiIXobhC+7+aHP4B6gv9aefgLnTx9cxGpobq62tzTF/s3Zv4WvLMyZQ8DfzKIVzNTg6pGmFDm1VPfqqurzd290U0AVG1u1BiH+dkMJO7mk9sLz1TUjp3CAH+9o7nxJ1BzsJQQQyYFgHCNBeVLP2RZ1h8ATNGdyzDEcbJoUXQt8csdzY03qomtVmFp5V0E+w/neY9dOPld8UrRuAnEH+9oanxNdyJCAN65cEQa2Lvt7V0TLrr6t4YZHw3QPN35DJEBpYU0TZs6Y/a6vds3b1HXhv2uqK72ByKJWihb+gcAKIA3hjEZxL8a5PBH1jU/s1d3MkKcJj0AwpVCZZW3wcIvXT6O65TNmZGeK1Wcc69KYUnll4jwI915aEe8wyDzn9tW1L2gOxUh3k96AIQr7du2eeu4qZf91pfBXuoNUGVs3Mzct2/722t1JzIUc4qrCnw+PAUgS3cuGjGIf5UZDix9eeVftupORogzkR4A4XqFZZVLycLDad4bcCgSodkbWuu7dSdyPkVllT9ihrKNfzxgE8i4r6Op7mXdiQhxLl4YPxNprrOpoS4esC5h4CEAH9jwJU2MDwbwXd1JnM/80iVXMOPzuvPQgjFIRA+ONqJz5eEvvEB6AISnzF9cNccw+BcAQrpz0SBhGDy/bUXjet2JnE2otPJ5AMW689CgNUH82VebGjfrTkSIoZICQHhOdXW1uas3cj+BHoTaWeZudAiEjWDsB7AbTPuYrH2mSbuR8O9ra67tUtl4eXl54GgsazKZ8ckG8zSLjMnEPBmEaQBNA1jFCYmuRcBuML7a3tLwP7pzEWK4pAAQnnVqy9cHQLgfQIbufFyBMQjCbmY+SETHAXQD3M2MbpAxSIxTcwisOBs4eXwuUwYx5QAAyMoEUyYTCoh4FDMKiKiAGeMImARgvJ5fzHVOEPH/o9zAf7bV1g7qTkaIZEgBIDyv8LallxgJ/ncGV+vORaQ8JtBTsUTiy2tXLtutOxkhRkIKAJEyQourSmDw9wCk+7JBoQQ9y5b1jc5nG1/VnYkQdpACQKScotLKRQz+IUDX6M5FpIQOi+iba5rqV+lORAg7SQEgUlNNjVHYvu7DxPQ9eOOQGOE+m5i4prOp8SnIwT0iBUkBIFLaFdXV/pyeyD+C6GtQdyqdSCWEVwn8/faiufWoqbF0pyOEKlIAiPRQU2MUrV5/OxO+BaBQdzrChQivkIWH2lsanoa88Ys0IAWASDtFJVXlTPxVpOeGNeLvWQAamYz/6Gyqa9OdjBBOkgJApK3ryiouNS36HAifRnofXJOOekH8pGHxf7W1LHtbdzJC6CAFgEh78xZV5/vMyD0AfQnAdN35CJVoK2D9LDMS+E1ra22/7myE0EkKACFOqa6uNnf1xMsNWP/MhDsguwumhpO7Iz5lGMZv2lbUvQgZ3xcCgBQAQpzRDbffPioWy6gGWZ+T/QQ8axMBj1lx49edq+qO6U5GCLeRAkCI8wiVLymCZX4MJ7canqQ7H3FO74DpScPHT7Q90/C67mSEcDMpAIQYqpoaI9S+cSEsqxqEj0IOxnEHxj4Af4Fh1HY01b0C6eIXYkikABAiCcXFxb5wIL+YGUtg8B1gulh3TmlmEwPLiIynO4quWS0b9ggxfFIACGGDUHnl5WzRHQRrCUBFAHy6c0oxUQAvAvy0lchYtmblX3boTkgIr5MCQAibXV1Skp1FmQssYBEBiwBcC8DQnZfHJABsAOMVNvhlolhzx4oVvbqTEiKVSAEghGI3llePi1mxmy3iG4gRwsmCQJYYvhdjEAbWMVMHGC/5M2IvvLx8+XHdaQmRyqQAEMJhxcXFwYg/f24CCBEhBGAegIuRPr0EcQBbwbyWCR1M3GEdmbhh7dpfxnQnJkQ6kQJACBe4uqQkO2AELjfZuIYZV4FwFYDZACbqzm0EGMA+AG8z6DWD8Do48dooI/7mihUrIrqTEyLdSQEghIvNW7Iky58wZiTiNIMIMxjWDGKaDuLJAI3HyaWIuq7jBIDDAB0gWPsZtIsZ2w2DtzPRtszBnh2tra1hTbkJIc5DCgAhPKy4uNgXyckZH4/TJLJ840FWnsGUz+B8JhQYQD6D8wmGjwET4LzTP0ugfABgcM+7EamXgATAMQC9FtBjAMctcA/I6AFbvcTGQR9bByYVBA7V1tYmHP+lhRBCCCGEEEIIIYQQQgghhBBCCCGEEEIIIYQQQgghhBBCCCGEEEIIIYQQQgghhBBCCCGEEEIIIYQQQgghhBBCCCGEEEIIIYQQQgghhBBCCCGEEEIIIYQQQgghhBBCCCGEEEIIIYQQQgghhBBCCCGEEEIIIYQQQgghhBBCCCGEEEIIIYQQQgghhBBCCCGEEEIIIYQQQgghhBBCCCGEEEIIIYRj/j/oBQmTDT/AtwAAAABJRU5ErkJggg==;" vertex="1" parent="5hRMl-ogob8N2ftGV3x6-1">
          <mxGeometry x="630" y="-822" width="872" height="872" as="geometry" />
        </mxCell>
        <mxCell id="vzekT2HtuLbiQsP1vmq4-5" style="edgeStyle=orthogonalEdgeStyle;rounded=0;orthogonalLoop=1;jettySize=auto;html=1;entryX=1.005;entryY=0.436;entryDx=0;entryDy=0;entryPerimeter=0;strokeWidth=14;" edge="1" parent="5hRMl-ogob8N2ftGV3x6-1" source="vzekT2HtuLbiQsP1vmq4-3" target="vzekT2HtuLbiQsP1vmq4-0">
          <mxGeometry relative="1" as="geometry" />
        </mxCell>
        <mxCell id="vzekT2HtuLbiQsP1vmq4-6" style="edgeStyle=orthogonalEdgeStyle;rounded=0;orthogonalLoop=1;jettySize=auto;html=1;entryX=0.548;entryY=-0.002;entryDx=0;entryDy=0;entryPerimeter=0;strokeWidth=14;dashed=1;" edge="1" parent="5hRMl-ogob8N2ftGV3x6-1" source="vzekT2HtuLbiQsP1vmq4-2" target="vzekT2HtuLbiQsP1vmq4-3">
          <mxGeometry relative="1" as="geometry" />
        </mxCell>
        <mxCell id="vzekT2HtuLbiQsP1vmq4-9" value="" style="endArrow=classic;html=1;rounded=0;strokeWidth=14;" edge="1" parent="5hRMl-ogob8N2ftGV3x6-1">
          <mxGeometry width="50" height="50" relative="1" as="geometry">
            <mxPoint x="710" y="-1410" as="sourcePoint" />
            <mxPoint x="-780" y="-590" as="targetPoint" />
          </mxGeometry>
        </mxCell>
        <mxCell id="vzekT2HtuLbiQsP1vmq4-10" value="&lt;font size=&quot;1&quot; style=&quot;&quot;&gt;&lt;b style=&quot;font-size: 87px;&quot;&gt;Cache Miss&lt;/b&gt;&lt;/font&gt;" style="text;html=1;strokeColor=none;fillColor=none;align=center;verticalAlign=middle;whiteSpace=wrap;rounded=0;rotation=-30;" vertex="1" parent="5hRMl-ogob8N2ftGV3x6-1">
          <mxGeometry x="-360" y="-1120" width="610" height="49" as="geometry" />
        </mxCell>
        <mxCell id="vzekT2HtuLbiQsP1vmq4-11" value="&lt;font size=&quot;1&quot; style=&quot;&quot;&gt;&lt;b style=&quot;font-size: 87px;&quot;&gt;Cache Hit&lt;/b&gt;&lt;/font&gt;" style="text;html=1;strokeColor=none;fillColor=none;align=center;verticalAlign=middle;whiteSpace=wrap;rounded=0;rotation=0;" vertex="1" parent="5hRMl-ogob8N2ftGV3x6-1">
          <mxGeometry x="-250" y="-500" width="610" height="49" as="geometry" />
        </mxCell>
        <mxCell id="vzekT2HtuLbiQsP1vmq4-12" value="&lt;font size=&quot;1&quot; style=&quot;&quot;&gt;&lt;b style=&quot;font-size: 87px;&quot;&gt;DNS Query&lt;/b&gt;&lt;/font&gt;" style="text;html=1;strokeColor=none;fillColor=none;align=center;verticalAlign=middle;whiteSpace=wrap;rounded=0;rotation=0;" vertex="1" parent="5hRMl-ogob8N2ftGV3x6-1">
          <mxGeometry x="-1640" y="-1100" width="610" height="49" as="geometry" />
        </mxCell>
        <mxCell id="vzekT2HtuLbiQsP1vmq4-13" value="&lt;font size=&quot;1&quot; style=&quot;&quot;&gt;&lt;b style=&quot;font-size: 87px;&quot;&gt;DNS Resolver&lt;/b&gt;&lt;/font&gt;" style="text;html=1;strokeColor=none;fillColor=none;align=center;verticalAlign=middle;whiteSpace=wrap;rounded=0;rotation=0;" vertex="1" parent="5hRMl-ogob8N2ftGV3x6-1">
          <mxGeometry x="-1330" y="-2310" width="610" height="49" as="geometry" />
        </mxCell>
        <mxCell id="vzekT2HtuLbiQsP1vmq4-14" value="&lt;font size=&quot;1&quot; style=&quot;&quot;&gt;&lt;b style=&quot;font-size: 87px;&quot;&gt;User&lt;/b&gt;&lt;/font&gt;" style="text;html=1;strokeColor=none;fillColor=none;align=center;verticalAlign=middle;whiteSpace=wrap;rounded=0;rotation=0;" vertex="1" parent="5hRMl-ogob8N2ftGV3x6-1">
          <mxGeometry x="-1330" y="150" width="610" height="49" as="geometry" />
        </mxCell>
        <mxCell id="vzekT2HtuLbiQsP1vmq4-15" value="&lt;font size=&quot;1&quot; style=&quot;&quot;&gt;&lt;b style=&quot;font-size: 87px;&quot;&gt;CDN Edge Server&lt;/b&gt;&lt;/font&gt;" style="text;html=1;strokeColor=none;fillColor=none;align=center;verticalAlign=middle;whiteSpace=wrap;rounded=0;rotation=0;" vertex="1" parent="5hRMl-ogob8N2ftGV3x6-1">
          <mxGeometry x="705" y="150" width="750" height="49" as="geometry" />
        </mxCell>
        <mxCell id="vzekT2HtuLbiQsP1vmq4-16" value="&lt;font size=&quot;1&quot; style=&quot;&quot;&gt;&lt;b style=&quot;font-size: 87px;&quot;&gt;Orign Server&lt;/b&gt;&lt;/font&gt;" style="text;html=1;strokeColor=none;fillColor=none;align=center;verticalAlign=middle;whiteSpace=wrap;rounded=0;rotation=0;" vertex="1" parent="5hRMl-ogob8N2ftGV3x6-1">
          <mxGeometry x="735" y="-2310" width="750" height="49" as="geometry" />
        </mxCell>
      </root>
    </mxGraphModel>
  </diagram>
</mxfile>
